G75*
%MOIN*%
%OFA0B0*%
%FSLAX24Y24*%
%IPPOS*%
%LPD*%
%AMOC8*
5,1,8,0,0,1.08239X$1,22.5*
%
%ADD10C,0.0010*%
%ADD11C,0.0740*%
%ADD12R,0.0660X0.0660*%
%ADD13C,0.0660*%
%ADD14C,0.1500*%
%ADD15C,0.4000*%
%ADD16C,0.0160*%
%ADD17C,0.0100*%
D10*
X000438Y005650D02*
X000440Y005681D01*
X000446Y005712D01*
X000456Y005742D01*
X000469Y005770D01*
X000486Y005797D01*
X000506Y005821D01*
X000529Y005843D01*
X000554Y005861D01*
X000582Y005876D01*
X000611Y005888D01*
X000641Y005896D01*
X000672Y005900D01*
X000704Y005900D01*
X000735Y005896D01*
X000765Y005888D01*
X000794Y005876D01*
X000822Y005861D01*
X000847Y005843D01*
X000870Y005821D01*
X000890Y005797D01*
X000907Y005770D01*
X000920Y005742D01*
X000930Y005712D01*
X000936Y005681D01*
X000938Y005650D01*
X000936Y005619D01*
X000930Y005588D01*
X000920Y005558D01*
X000907Y005530D01*
X000890Y005503D01*
X000870Y005479D01*
X000847Y005457D01*
X000822Y005439D01*
X000794Y005424D01*
X000765Y005412D01*
X000735Y005404D01*
X000704Y005400D01*
X000672Y005400D01*
X000641Y005404D01*
X000611Y005412D01*
X000582Y005424D01*
X000554Y005439D01*
X000529Y005457D01*
X000506Y005479D01*
X000486Y005503D01*
X000469Y005530D01*
X000456Y005558D01*
X000446Y005588D01*
X000440Y005619D01*
X000438Y005650D01*
X000188Y005650D02*
X000190Y005798D01*
X000196Y005946D01*
X000206Y006094D01*
X000220Y006242D01*
X000238Y006389D01*
X000260Y006536D01*
X000286Y006682D01*
X000315Y006827D01*
X000349Y006972D01*
X000387Y007115D01*
X000428Y007258D01*
X000473Y007399D01*
X000523Y007539D01*
X000575Y007677D01*
X000632Y007815D01*
X000692Y007950D01*
X000756Y008084D01*
X000823Y008216D01*
X000894Y008346D01*
X000969Y008475D01*
X001047Y008601D01*
X001128Y008725D01*
X001212Y008847D01*
X001300Y008966D01*
X001391Y009083D01*
X001485Y009198D01*
X001583Y009310D01*
X001683Y009419D01*
X001786Y009526D01*
X001892Y009630D01*
X002000Y009731D01*
X002112Y009829D01*
X002226Y009924D01*
X002342Y010015D01*
X002461Y010104D01*
X002582Y010189D01*
X002706Y010271D01*
X002832Y010350D01*
X002959Y010425D01*
X003089Y010497D01*
X003221Y010566D01*
X003354Y010630D01*
X003489Y010691D01*
X003626Y010749D01*
X003764Y010803D01*
X003904Y010853D01*
X004045Y010899D01*
X004187Y010941D01*
X004330Y010980D01*
X004474Y011014D01*
X004620Y011045D01*
X004765Y011072D01*
X004912Y011095D01*
X005059Y011114D01*
X005207Y011129D01*
X005354Y011140D01*
X005503Y011147D01*
X005651Y011150D01*
X005799Y011149D01*
X005947Y011144D01*
X006095Y011135D01*
X006243Y011122D01*
X006391Y011105D01*
X006537Y011084D01*
X006684Y011059D01*
X006829Y011030D01*
X006974Y010998D01*
X007117Y010961D01*
X007260Y010921D01*
X007402Y010876D01*
X007542Y010828D01*
X007681Y010776D01*
X007818Y010721D01*
X007954Y010661D01*
X008089Y010598D01*
X008221Y010532D01*
X008352Y010462D01*
X008481Y010388D01*
X008607Y010311D01*
X008732Y010231D01*
X008854Y010147D01*
X008975Y010060D01*
X009092Y009970D01*
X009208Y009876D01*
X009320Y009780D01*
X009430Y009681D01*
X009538Y009578D01*
X009642Y009473D01*
X009744Y009365D01*
X009842Y009254D01*
X009938Y009141D01*
X010031Y009025D01*
X010120Y008907D01*
X010206Y008786D01*
X010289Y008663D01*
X010369Y008538D01*
X010445Y008411D01*
X010518Y008281D01*
X010587Y008150D01*
X010652Y008017D01*
X010715Y007883D01*
X010773Y007746D01*
X010828Y007608D01*
X010878Y007469D01*
X010926Y007328D01*
X010969Y007187D01*
X011009Y007044D01*
X011044Y006900D01*
X011076Y006755D01*
X011104Y006609D01*
X011128Y006463D01*
X011148Y006316D01*
X011164Y006168D01*
X011176Y006021D01*
X011184Y005872D01*
X011188Y005724D01*
X011188Y005576D01*
X011184Y005428D01*
X011176Y005279D01*
X011164Y005132D01*
X011148Y004984D01*
X011128Y004837D01*
X011104Y004691D01*
X011076Y004545D01*
X011044Y004400D01*
X011009Y004256D01*
X010969Y004113D01*
X010926Y003972D01*
X010878Y003831D01*
X010828Y003692D01*
X010773Y003554D01*
X010715Y003417D01*
X010652Y003283D01*
X010587Y003150D01*
X010518Y003019D01*
X010445Y002889D01*
X010369Y002762D01*
X010289Y002637D01*
X010206Y002514D01*
X010120Y002393D01*
X010031Y002275D01*
X009938Y002159D01*
X009842Y002046D01*
X009744Y001935D01*
X009642Y001827D01*
X009538Y001722D01*
X009430Y001619D01*
X009320Y001520D01*
X009208Y001424D01*
X009092Y001330D01*
X008975Y001240D01*
X008854Y001153D01*
X008732Y001069D01*
X008607Y000989D01*
X008481Y000912D01*
X008352Y000838D01*
X008221Y000768D01*
X008089Y000702D01*
X007954Y000639D01*
X007818Y000579D01*
X007681Y000524D01*
X007542Y000472D01*
X007402Y000424D01*
X007260Y000379D01*
X007117Y000339D01*
X006974Y000302D01*
X006829Y000270D01*
X006684Y000241D01*
X006537Y000216D01*
X006391Y000195D01*
X006243Y000178D01*
X006095Y000165D01*
X005947Y000156D01*
X005799Y000151D01*
X005651Y000150D01*
X005503Y000153D01*
X005354Y000160D01*
X005207Y000171D01*
X005059Y000186D01*
X004912Y000205D01*
X004765Y000228D01*
X004620Y000255D01*
X004474Y000286D01*
X004330Y000320D01*
X004187Y000359D01*
X004045Y000401D01*
X003904Y000447D01*
X003764Y000497D01*
X003626Y000551D01*
X003489Y000609D01*
X003354Y000670D01*
X003221Y000734D01*
X003089Y000803D01*
X002959Y000875D01*
X002832Y000950D01*
X002706Y001029D01*
X002582Y001111D01*
X002461Y001196D01*
X002342Y001285D01*
X002226Y001376D01*
X002112Y001471D01*
X002000Y001569D01*
X001892Y001670D01*
X001786Y001774D01*
X001683Y001881D01*
X001583Y001990D01*
X001485Y002102D01*
X001391Y002217D01*
X001300Y002334D01*
X001212Y002453D01*
X001128Y002575D01*
X001047Y002699D01*
X000969Y002825D01*
X000894Y002954D01*
X000823Y003084D01*
X000756Y003216D01*
X000692Y003350D01*
X000632Y003485D01*
X000575Y003623D01*
X000523Y003761D01*
X000473Y003901D01*
X000428Y004042D01*
X000387Y004185D01*
X000349Y004328D01*
X000315Y004473D01*
X000286Y004618D01*
X000260Y004764D01*
X000238Y004911D01*
X000220Y005058D01*
X000206Y005206D01*
X000196Y005354D01*
X000190Y005502D01*
X000188Y005650D01*
X010438Y005650D02*
X010440Y005681D01*
X010446Y005712D01*
X010456Y005742D01*
X010469Y005770D01*
X010486Y005797D01*
X010506Y005821D01*
X010529Y005843D01*
X010554Y005861D01*
X010582Y005876D01*
X010611Y005888D01*
X010641Y005896D01*
X010672Y005900D01*
X010704Y005900D01*
X010735Y005896D01*
X010765Y005888D01*
X010794Y005876D01*
X010822Y005861D01*
X010847Y005843D01*
X010870Y005821D01*
X010890Y005797D01*
X010907Y005770D01*
X010920Y005742D01*
X010930Y005712D01*
X010936Y005681D01*
X010938Y005650D01*
X010936Y005619D01*
X010930Y005588D01*
X010920Y005558D01*
X010907Y005530D01*
X010890Y005503D01*
X010870Y005479D01*
X010847Y005457D01*
X010822Y005439D01*
X010794Y005424D01*
X010765Y005412D01*
X010735Y005404D01*
X010704Y005400D01*
X010672Y005400D01*
X010641Y005404D01*
X010611Y005412D01*
X010582Y005424D01*
X010554Y005439D01*
X010529Y005457D01*
X010506Y005479D01*
X010486Y005503D01*
X010469Y005530D01*
X010456Y005558D01*
X010446Y005588D01*
X010440Y005619D01*
X010438Y005650D01*
D11*
X009792Y007546D03*
X009085Y008254D03*
X002292Y008254D03*
X001585Y007546D03*
D12*
X005688Y010687D03*
D13*
X005688Y009113D03*
D14*
X001488Y004150D03*
X009888Y004150D03*
D15*
X005688Y004150D03*
D16*
X005688Y009113D01*
X005688Y010687D02*
X003355Y008254D01*
X002292Y008254D01*
X001585Y007546D02*
X001488Y007450D01*
X001488Y004150D01*
X008022Y008254D02*
X009085Y008254D01*
X009792Y007546D02*
X009888Y007450D01*
X009888Y004150D01*
X008022Y008254D02*
X005688Y010687D01*
D17*
X001943Y001825D02*
X009434Y001825D01*
X009525Y001923D02*
X001852Y001923D01*
X001762Y002022D02*
X005383Y002022D01*
X005436Y002013D02*
X005604Y002000D01*
X005638Y002000D01*
X005638Y004100D01*
X003538Y004100D01*
X003538Y004066D01*
X003552Y003897D01*
X003578Y003730D01*
X003618Y003566D01*
X003670Y003405D01*
X003734Y003249D01*
X003811Y003099D01*
X003899Y002955D01*
X003999Y002818D01*
X004108Y002689D01*
X004228Y002570D01*
X004356Y002460D01*
X004493Y002361D01*
X004637Y002273D01*
X004788Y002196D01*
X004944Y002131D01*
X005104Y002079D01*
X005269Y002040D01*
X005436Y002013D01*
X005638Y002022D02*
X005738Y002022D01*
X005738Y002000D02*
X005773Y002000D01*
X005941Y002013D01*
X006108Y002040D01*
X006273Y002079D01*
X006433Y002131D01*
X006589Y002196D01*
X006740Y002273D01*
X006884Y002361D01*
X007021Y002460D01*
X007149Y002570D01*
X007268Y002689D01*
X007378Y002818D01*
X007478Y002955D01*
X007566Y003099D01*
X007642Y003249D01*
X007707Y003405D01*
X007759Y003566D01*
X007799Y003730D01*
X007825Y003897D01*
X007838Y004066D01*
X007838Y004100D01*
X005738Y004100D01*
X005738Y002000D01*
X005738Y002120D02*
X005638Y002120D01*
X005638Y002219D02*
X005738Y002219D01*
X005738Y002317D02*
X005638Y002317D01*
X005638Y002416D02*
X005738Y002416D01*
X005738Y002514D02*
X005638Y002514D01*
X005638Y002613D02*
X005738Y002613D01*
X005738Y002711D02*
X005638Y002711D01*
X005638Y002810D02*
X005738Y002810D01*
X005738Y002908D02*
X005638Y002908D01*
X005638Y003007D02*
X005738Y003007D01*
X005738Y003105D02*
X005638Y003105D01*
X005638Y003204D02*
X005738Y003204D01*
X005738Y003302D02*
X005638Y003302D01*
X005638Y003401D02*
X005738Y003401D01*
X005738Y003499D02*
X005638Y003499D01*
X005638Y003598D02*
X005738Y003598D01*
X005738Y003696D02*
X005638Y003696D01*
X005638Y003795D02*
X005738Y003795D01*
X005738Y003893D02*
X005638Y003893D01*
X005638Y003992D02*
X005738Y003992D01*
X005738Y004090D02*
X005638Y004090D01*
X005638Y004100D02*
X005738Y004100D01*
X005738Y004200D01*
X005638Y004200D01*
X005638Y004100D01*
X005638Y004189D02*
X002368Y004189D01*
X002368Y004287D02*
X003543Y004287D01*
X003538Y004234D02*
X003538Y004200D01*
X005638Y004200D01*
X005638Y006300D01*
X005604Y006300D01*
X005436Y006287D01*
X005269Y006260D01*
X005104Y006221D01*
X004944Y006169D01*
X004788Y006104D01*
X004637Y006027D01*
X004493Y005939D01*
X004356Y005840D01*
X004228Y005730D01*
X004108Y005611D01*
X003999Y005482D01*
X003899Y005345D01*
X003811Y005201D01*
X003734Y005051D01*
X003670Y004895D01*
X003618Y004734D01*
X003578Y004570D01*
X003552Y004403D01*
X003538Y004234D01*
X003538Y004090D02*
X002368Y004090D01*
X002368Y003992D02*
X003544Y003992D01*
X003552Y003893D02*
X002335Y003893D01*
X002368Y003975D02*
X002368Y004325D01*
X002235Y004648D01*
X001987Y004896D01*
X001698Y005016D01*
X001698Y007052D01*
X001868Y007123D01*
X002009Y007263D01*
X002085Y007447D01*
X002085Y007646D01*
X002009Y007830D01*
X002193Y007754D01*
X002391Y007754D01*
X002575Y007830D01*
X002716Y007970D01*
X002746Y008044D01*
X003270Y008044D01*
X003272Y008042D01*
X003357Y008044D01*
X003442Y008044D01*
X003443Y008045D01*
X003446Y008045D01*
X003505Y008107D01*
X003565Y008167D01*
X003565Y008169D01*
X005538Y010227D01*
X005839Y010227D01*
X007812Y008169D01*
X007812Y008167D01*
X007872Y008107D01*
X007931Y008045D01*
X007934Y008045D01*
X007935Y008044D01*
X008020Y008044D01*
X008105Y008042D01*
X008107Y008044D01*
X008631Y008044D01*
X008661Y007970D01*
X008802Y007830D01*
X008985Y007754D01*
X009184Y007754D01*
X009368Y007830D01*
X009509Y007970D01*
X009368Y007830D01*
X009292Y007646D01*
X009292Y007447D01*
X009368Y007263D01*
X009509Y007123D01*
X009678Y007052D01*
X009678Y005016D01*
X009390Y004896D01*
X009142Y004648D01*
X009008Y004325D01*
X009008Y003975D01*
X009142Y003652D01*
X009390Y003404D01*
X009713Y003270D01*
X010064Y003270D01*
X010387Y003404D01*
X010635Y003652D01*
X010768Y003975D01*
X010768Y004325D01*
X010635Y004648D01*
X010387Y004896D01*
X010098Y005016D01*
X010098Y007146D01*
X010216Y007263D01*
X010292Y007447D01*
X010292Y007646D01*
X010216Y007830D01*
X010075Y007970D01*
X009891Y008046D01*
X009693Y008046D01*
X009509Y007970D01*
X009585Y008154D01*
X009585Y008353D01*
X009509Y008537D01*
X009368Y008677D01*
X009184Y008754D01*
X008985Y008754D01*
X008802Y008677D01*
X008661Y008537D01*
X008631Y008464D01*
X008112Y008464D01*
X006148Y010511D01*
X006148Y010994D01*
X007006Y010851D01*
X007844Y010563D01*
X008623Y010141D01*
X009322Y009597D01*
X009922Y008945D01*
X010407Y008203D01*
X010763Y007392D01*
X010980Y006533D01*
X010980Y006533D01*
X011046Y005745D01*
X011012Y005858D01*
X010848Y006000D01*
X010634Y006031D01*
X010634Y006031D01*
X010436Y005941D01*
X010319Y005758D01*
X010319Y005542D01*
X010436Y005359D01*
X010436Y005359D01*
X010436Y005359D01*
X010634Y005269D01*
X010848Y005300D01*
X010848Y005300D01*
X011012Y005442D01*
X011046Y005555D01*
X010980Y004767D01*
X010763Y003908D01*
X010407Y003097D01*
X009922Y002355D01*
X009322Y001703D01*
X008623Y001159D01*
X007844Y000737D01*
X007006Y000449D01*
X006132Y000303D01*
X005245Y000303D01*
X004371Y000449D01*
X003533Y000737D01*
X002754Y001159D01*
X002055Y001703D01*
X001455Y002355D01*
X000970Y003097D01*
X000614Y003908D01*
X000397Y004767D01*
X000334Y005518D01*
X000436Y005359D01*
X000436Y005359D01*
X000634Y005269D01*
X000848Y005300D01*
X000848Y005300D01*
X001012Y005442D01*
X001073Y005650D01*
X001073Y005650D01*
X001012Y005858D01*
X000848Y006000D01*
X000634Y006031D01*
X000634Y006031D01*
X000436Y005941D01*
X000334Y005782D01*
X000397Y006533D01*
X000614Y007392D01*
X000970Y008203D01*
X001455Y008945D01*
X002055Y009597D01*
X002754Y010141D01*
X003533Y010563D01*
X004371Y010851D01*
X005228Y010994D01*
X005228Y010511D01*
X003265Y008464D01*
X002746Y008464D01*
X002716Y008537D01*
X002575Y008677D01*
X002391Y008754D01*
X002193Y008754D01*
X002009Y008677D01*
X001868Y008537D01*
X001792Y008353D01*
X001792Y008154D01*
X001868Y007970D01*
X001684Y008046D01*
X001485Y008046D01*
X001302Y007970D01*
X001161Y007830D01*
X001085Y007646D01*
X001085Y007447D01*
X001161Y007263D01*
X001278Y007146D01*
X001278Y005016D01*
X000990Y004896D01*
X000742Y004648D01*
X000608Y004325D01*
X000608Y003975D01*
X000742Y003652D01*
X000990Y003404D01*
X001313Y003270D01*
X001664Y003270D01*
X001987Y003404D01*
X002235Y003652D01*
X002368Y003975D01*
X002294Y003795D02*
X003568Y003795D01*
X003586Y003696D02*
X002253Y003696D01*
X002180Y003598D02*
X003610Y003598D01*
X003639Y003499D02*
X002082Y003499D01*
X001979Y003401D02*
X003672Y003401D01*
X003713Y003302D02*
X001741Y003302D01*
X001236Y003302D02*
X000880Y003302D01*
X000923Y003204D02*
X003758Y003204D01*
X003808Y003105D02*
X000966Y003105D01*
X001029Y003007D02*
X003868Y003007D01*
X003933Y002908D02*
X001093Y002908D01*
X001158Y002810D02*
X004006Y002810D01*
X004090Y002711D02*
X001222Y002711D01*
X001286Y002613D02*
X004185Y002613D01*
X004293Y002514D02*
X001351Y002514D01*
X001415Y002416D02*
X004418Y002416D01*
X004565Y002317D02*
X001489Y002317D01*
X001580Y002219D02*
X004743Y002219D01*
X004979Y002120D02*
X001671Y002120D01*
X002034Y001726D02*
X009343Y001726D01*
X009225Y001628D02*
X002152Y001628D01*
X002278Y001529D02*
X009099Y001529D01*
X008972Y001431D02*
X002405Y001431D01*
X002531Y001332D02*
X008846Y001332D01*
X008719Y001234D02*
X002658Y001234D01*
X002798Y001135D02*
X008579Y001135D01*
X008397Y001037D02*
X002980Y001037D01*
X003162Y000938D02*
X008215Y000938D01*
X008033Y000840D02*
X003344Y000840D01*
X003526Y000741D02*
X007851Y000741D01*
X007569Y000643D02*
X003808Y000643D01*
X004095Y000544D02*
X007282Y000544D01*
X006984Y000446D02*
X004393Y000446D01*
X004984Y000347D02*
X006393Y000347D01*
X005993Y002022D02*
X009615Y002022D01*
X009706Y002120D02*
X006398Y002120D01*
X006633Y002219D02*
X009797Y002219D01*
X009887Y002317D02*
X006812Y002317D01*
X006959Y002416D02*
X009962Y002416D01*
X010026Y002514D02*
X007083Y002514D01*
X007192Y002613D02*
X010091Y002613D01*
X010155Y002711D02*
X007287Y002711D01*
X007371Y002810D02*
X010219Y002810D01*
X010284Y002908D02*
X007444Y002908D01*
X007509Y003007D02*
X010348Y003007D01*
X010411Y003105D02*
X007569Y003105D01*
X007619Y003204D02*
X010454Y003204D01*
X010497Y003302D02*
X010141Y003302D01*
X010379Y003401D02*
X010540Y003401D01*
X010583Y003499D02*
X010482Y003499D01*
X010580Y003598D02*
X010627Y003598D01*
X010653Y003696D02*
X010670Y003696D01*
X010694Y003795D02*
X010713Y003795D01*
X010735Y003893D02*
X010756Y003893D01*
X010768Y003992D02*
X010784Y003992D01*
X010768Y004090D02*
X010809Y004090D01*
X010834Y004189D02*
X010768Y004189D01*
X010768Y004287D02*
X010859Y004287D01*
X010884Y004386D02*
X010743Y004386D01*
X010703Y004484D02*
X010909Y004484D01*
X010934Y004583D02*
X010662Y004583D01*
X010602Y004681D02*
X010959Y004681D01*
X010980Y004767D02*
X010980Y004767D01*
X010981Y004780D02*
X010503Y004780D01*
X010405Y004878D02*
X010990Y004878D01*
X010998Y004977D02*
X010193Y004977D01*
X010098Y005075D02*
X011006Y005075D01*
X011014Y005174D02*
X010098Y005174D01*
X010098Y005272D02*
X010627Y005272D01*
X010634Y005269D02*
X010634Y005269D01*
X010655Y005272D02*
X011022Y005272D01*
X011030Y005371D02*
X010930Y005371D01*
X011012Y005442D02*
X011012Y005442D01*
X011020Y005469D02*
X011038Y005469D01*
X011040Y005765D02*
X011044Y005765D01*
X011036Y005863D02*
X011007Y005863D01*
X011012Y005858D02*
X011012Y005858D01*
X011028Y005962D02*
X010893Y005962D01*
X010848Y006000D02*
X010848Y006000D01*
X011020Y006060D02*
X010098Y006060D01*
X010098Y005962D02*
X010481Y005962D01*
X010436Y005941D02*
X010436Y005941D01*
X010436Y005941D01*
X010386Y005863D02*
X010098Y005863D01*
X010098Y005765D02*
X010323Y005765D01*
X010319Y005666D02*
X010098Y005666D01*
X010098Y005568D02*
X010319Y005568D01*
X010366Y005469D02*
X010098Y005469D01*
X010098Y005371D02*
X010429Y005371D01*
X009678Y005371D02*
X007459Y005371D01*
X007478Y005345D02*
X007378Y005482D01*
X007268Y005611D01*
X007149Y005730D01*
X007021Y005840D01*
X006884Y005939D01*
X006740Y006027D01*
X006589Y006104D01*
X006433Y006169D01*
X006273Y006221D01*
X006108Y006260D01*
X005941Y006287D01*
X005773Y006300D01*
X005738Y006300D01*
X005738Y004200D01*
X007838Y004200D01*
X007838Y004234D01*
X007825Y004403D01*
X007799Y004570D01*
X007759Y004734D01*
X007707Y004895D01*
X007642Y005051D01*
X007566Y005201D01*
X007478Y005345D01*
X007522Y005272D02*
X009678Y005272D01*
X009678Y005174D02*
X007580Y005174D01*
X007630Y005075D02*
X009678Y005075D01*
X009584Y004977D02*
X007673Y004977D01*
X007713Y004878D02*
X009372Y004878D01*
X009273Y004780D02*
X007745Y004780D01*
X007772Y004681D02*
X009175Y004681D01*
X009115Y004583D02*
X007796Y004583D01*
X007812Y004484D02*
X009074Y004484D01*
X009034Y004386D02*
X007827Y004386D01*
X007834Y004287D02*
X009008Y004287D01*
X009008Y004189D02*
X005738Y004189D01*
X005738Y004287D02*
X005638Y004287D01*
X005638Y004386D02*
X005738Y004386D01*
X005738Y004484D02*
X005638Y004484D01*
X005638Y004583D02*
X005738Y004583D01*
X005738Y004681D02*
X005638Y004681D01*
X005638Y004780D02*
X005738Y004780D01*
X005738Y004878D02*
X005638Y004878D01*
X005638Y004977D02*
X005738Y004977D01*
X005738Y005075D02*
X005638Y005075D01*
X005638Y005174D02*
X005738Y005174D01*
X005738Y005272D02*
X005638Y005272D01*
X005638Y005371D02*
X005738Y005371D01*
X005738Y005469D02*
X005638Y005469D01*
X005638Y005568D02*
X005738Y005568D01*
X005738Y005666D02*
X005638Y005666D01*
X005638Y005765D02*
X005738Y005765D01*
X005738Y005863D02*
X005638Y005863D01*
X005638Y005962D02*
X005738Y005962D01*
X005738Y006060D02*
X005638Y006060D01*
X005638Y006159D02*
X005738Y006159D01*
X005738Y006257D02*
X005638Y006257D01*
X005255Y006257D02*
X001698Y006257D01*
X001698Y006159D02*
X004919Y006159D01*
X004701Y006060D02*
X001698Y006060D01*
X001698Y005962D02*
X004530Y005962D01*
X004388Y005863D02*
X001698Y005863D01*
X001698Y005765D02*
X004268Y005765D01*
X004164Y005666D02*
X001698Y005666D01*
X001698Y005568D02*
X004072Y005568D01*
X003989Y005469D02*
X001698Y005469D01*
X001698Y005371D02*
X003918Y005371D01*
X003854Y005272D02*
X001698Y005272D01*
X001698Y005174D02*
X003797Y005174D01*
X003747Y005075D02*
X001698Y005075D01*
X001793Y004977D02*
X003704Y004977D01*
X003664Y004878D02*
X002005Y004878D01*
X002103Y004780D02*
X003632Y004780D01*
X003605Y004681D02*
X002202Y004681D01*
X002262Y004583D02*
X003581Y004583D01*
X003565Y004484D02*
X002303Y004484D01*
X002343Y004386D02*
X003550Y004386D01*
X001698Y006356D02*
X009678Y006356D01*
X009678Y006454D02*
X001698Y006454D01*
X001698Y006553D02*
X009678Y006553D01*
X009678Y006651D02*
X001698Y006651D01*
X001698Y006750D02*
X009678Y006750D01*
X009678Y006848D02*
X001698Y006848D01*
X001698Y006947D02*
X009678Y006947D01*
X009678Y007045D02*
X001698Y007045D01*
X001889Y007144D02*
X009488Y007144D01*
X009389Y007242D02*
X001988Y007242D01*
X002041Y007341D02*
X009336Y007341D01*
X009295Y007439D02*
X002082Y007439D01*
X002085Y007538D02*
X009292Y007538D01*
X009292Y007636D02*
X002085Y007636D01*
X002048Y007735D02*
X009329Y007735D01*
X009371Y007833D02*
X009371Y007833D01*
X009470Y007932D02*
X009470Y007932D01*
X009534Y008030D02*
X009653Y008030D01*
X009574Y008129D02*
X010440Y008129D01*
X010483Y008030D02*
X009931Y008030D01*
X010114Y007932D02*
X010526Y007932D01*
X010569Y007833D02*
X010213Y007833D01*
X010255Y007735D02*
X010613Y007735D01*
X010656Y007636D02*
X010292Y007636D01*
X010292Y007538D02*
X010699Y007538D01*
X010742Y007439D02*
X010289Y007439D01*
X010248Y007341D02*
X010776Y007341D01*
X010801Y007242D02*
X010195Y007242D01*
X010098Y007144D02*
X010826Y007144D01*
X010851Y007045D02*
X010098Y007045D01*
X010098Y006947D02*
X010876Y006947D01*
X010901Y006848D02*
X010098Y006848D01*
X010098Y006750D02*
X010925Y006750D01*
X010950Y006651D02*
X010098Y006651D01*
X010098Y006553D02*
X010975Y006553D01*
X010987Y006454D02*
X010098Y006454D01*
X010098Y006356D02*
X010995Y006356D01*
X011003Y006257D02*
X010098Y006257D01*
X010098Y006159D02*
X011011Y006159D01*
X009678Y006159D02*
X006458Y006159D01*
X006676Y006060D02*
X009678Y006060D01*
X009678Y005962D02*
X006847Y005962D01*
X006989Y005863D02*
X009678Y005863D01*
X009678Y005765D02*
X007109Y005765D01*
X007213Y005666D02*
X009678Y005666D01*
X009678Y005568D02*
X007305Y005568D01*
X007388Y005469D02*
X009678Y005469D01*
X009678Y006257D02*
X006122Y006257D01*
X007850Y008129D02*
X003527Y008129D01*
X003620Y008227D02*
X007757Y008227D01*
X007662Y008326D02*
X003715Y008326D01*
X003809Y008424D02*
X007568Y008424D01*
X007473Y008523D02*
X003903Y008523D01*
X003998Y008621D02*
X007379Y008621D01*
X007285Y008720D02*
X005964Y008720D01*
X005940Y008702D02*
X006001Y008746D01*
X006055Y008800D01*
X006099Y008861D01*
X006133Y008928D01*
X006157Y009000D01*
X006168Y009075D01*
X006168Y009084D01*
X005717Y009084D01*
X005717Y008633D01*
X005726Y008633D01*
X005801Y008644D01*
X005873Y008668D01*
X005940Y008702D01*
X006068Y008818D02*
X007190Y008818D01*
X007096Y008917D02*
X006127Y008917D01*
X006159Y009015D02*
X007001Y009015D01*
X006907Y009114D02*
X005717Y009114D01*
X005717Y009141D02*
X006168Y009141D01*
X006168Y009150D01*
X006157Y009225D01*
X006133Y009297D01*
X006099Y009364D01*
X006055Y009425D01*
X006001Y009479D01*
X005940Y009523D01*
X005873Y009557D01*
X005801Y009581D01*
X005726Y009593D01*
X005717Y009593D01*
X005717Y009141D01*
X005717Y009084D01*
X005660Y009084D01*
X005660Y008633D01*
X005651Y008633D01*
X005576Y008644D01*
X005504Y008668D01*
X005437Y008702D01*
X005376Y008746D01*
X005322Y008800D01*
X005278Y008861D01*
X005244Y008928D01*
X005220Y009000D01*
X005208Y009075D01*
X005208Y009084D01*
X005660Y009084D01*
X005660Y009141D01*
X005208Y009141D01*
X005208Y009150D01*
X005220Y009225D01*
X005244Y009297D01*
X005278Y009364D01*
X005322Y009425D01*
X005376Y009479D01*
X005437Y009523D01*
X005504Y009557D01*
X005576Y009581D01*
X005651Y009593D01*
X005660Y009593D01*
X005660Y009141D01*
X005717Y009141D01*
X005660Y009114D02*
X004470Y009114D01*
X004565Y009212D02*
X005218Y009212D01*
X005251Y009311D02*
X004659Y009311D01*
X004754Y009409D02*
X005311Y009409D01*
X005415Y009508D02*
X004848Y009508D01*
X004942Y009606D02*
X006434Y009606D01*
X006340Y009705D02*
X005037Y009705D01*
X005131Y009803D02*
X006246Y009803D01*
X006151Y009902D02*
X005226Y009902D01*
X005320Y010000D02*
X006057Y010000D01*
X005962Y010099D02*
X005415Y010099D01*
X005509Y010197D02*
X005868Y010197D01*
X006166Y010493D02*
X007974Y010493D01*
X008156Y010394D02*
X006261Y010394D01*
X006355Y010296D02*
X008338Y010296D01*
X008520Y010197D02*
X006450Y010197D01*
X006544Y010099D02*
X008678Y010099D01*
X008804Y010000D02*
X006639Y010000D01*
X006733Y009902D02*
X008931Y009902D01*
X009058Y009803D02*
X006827Y009803D01*
X006922Y009705D02*
X009184Y009705D01*
X009311Y009606D02*
X007016Y009606D01*
X007111Y009508D02*
X009405Y009508D01*
X009495Y009409D02*
X007205Y009409D01*
X007300Y009311D02*
X009586Y009311D01*
X009677Y009212D02*
X007394Y009212D01*
X007489Y009114D02*
X009767Y009114D01*
X009858Y009015D02*
X007583Y009015D01*
X007678Y008917D02*
X009941Y008917D01*
X010005Y008818D02*
X007772Y008818D01*
X007866Y008720D02*
X008903Y008720D01*
X008745Y008621D02*
X007961Y008621D01*
X008055Y008523D02*
X008655Y008523D01*
X008636Y008030D02*
X002741Y008030D01*
X002677Y007932D02*
X008700Y007932D01*
X008798Y007833D02*
X002579Y007833D01*
X002009Y007830D02*
X001868Y007970D01*
X002009Y007830D01*
X002005Y007833D02*
X002005Y007833D01*
X001907Y007932D02*
X001907Y007932D01*
X001843Y008030D02*
X001724Y008030D01*
X001803Y008129D02*
X000937Y008129D01*
X000894Y008030D02*
X001446Y008030D01*
X001263Y007932D02*
X000851Y007932D01*
X000808Y007833D02*
X001164Y007833D01*
X001122Y007735D02*
X000764Y007735D01*
X000721Y007636D02*
X001085Y007636D01*
X001085Y007538D02*
X000678Y007538D01*
X000635Y007439D02*
X001088Y007439D01*
X001129Y007341D02*
X000601Y007341D01*
X000576Y007242D02*
X001182Y007242D01*
X001278Y007144D02*
X000551Y007144D01*
X000526Y007045D02*
X001278Y007045D01*
X001278Y006947D02*
X000501Y006947D01*
X000476Y006848D02*
X001278Y006848D01*
X001278Y006750D02*
X000451Y006750D01*
X000427Y006651D02*
X001278Y006651D01*
X001278Y006553D02*
X000402Y006553D01*
X000390Y006454D02*
X001278Y006454D01*
X001278Y006356D02*
X000382Y006356D01*
X000374Y006257D02*
X001278Y006257D01*
X001278Y006159D02*
X000366Y006159D01*
X000357Y006060D02*
X001278Y006060D01*
X001278Y005962D02*
X000893Y005962D01*
X000848Y006000D02*
X000848Y006000D01*
X001007Y005863D02*
X001278Y005863D01*
X001278Y005765D02*
X001040Y005765D01*
X001012Y005858D02*
X001012Y005858D01*
X001069Y005666D02*
X001278Y005666D01*
X001278Y005568D02*
X001049Y005568D01*
X001020Y005469D02*
X001278Y005469D01*
X001278Y005371D02*
X000930Y005371D01*
X001012Y005442D02*
X001012Y005442D01*
X001278Y005272D02*
X000655Y005272D01*
X000634Y005269D02*
X000634Y005269D01*
X000627Y005272D02*
X000355Y005272D01*
X000363Y005174D02*
X001278Y005174D01*
X001278Y005075D02*
X000371Y005075D01*
X000379Y004977D02*
X001184Y004977D01*
X000972Y004878D02*
X000387Y004878D01*
X000396Y004780D02*
X000873Y004780D01*
X000775Y004681D02*
X000418Y004681D01*
X000443Y004583D02*
X000715Y004583D01*
X000674Y004484D02*
X000468Y004484D01*
X000493Y004386D02*
X000634Y004386D01*
X000608Y004287D02*
X000518Y004287D01*
X000543Y004189D02*
X000608Y004189D01*
X000608Y004090D02*
X000568Y004090D01*
X000593Y003992D02*
X000608Y003992D01*
X000621Y003893D02*
X000642Y003893D01*
X000664Y003795D02*
X000683Y003795D01*
X000707Y003696D02*
X000724Y003696D01*
X000750Y003598D02*
X000796Y003598D01*
X000794Y003499D02*
X000895Y003499D01*
X000837Y003401D02*
X000998Y003401D01*
X000429Y005371D02*
X000347Y005371D01*
X000338Y005469D02*
X000366Y005469D01*
X000341Y005863D02*
X000386Y005863D01*
X000436Y005941D02*
X000436Y005941D01*
X000436Y005941D01*
X000481Y005962D02*
X000349Y005962D01*
X000985Y008227D02*
X001792Y008227D01*
X001792Y008326D02*
X001050Y008326D01*
X001114Y008424D02*
X001821Y008424D01*
X001862Y008523D02*
X001179Y008523D01*
X001243Y008621D02*
X001952Y008621D01*
X002110Y008720D02*
X001307Y008720D01*
X001372Y008818D02*
X003605Y008818D01*
X003699Y008917D02*
X001436Y008917D01*
X001519Y009015D02*
X003794Y009015D01*
X003888Y009114D02*
X001610Y009114D01*
X001700Y009212D02*
X003983Y009212D01*
X004077Y009311D02*
X001791Y009311D01*
X001882Y009409D02*
X004172Y009409D01*
X004266Y009508D02*
X001972Y009508D01*
X002066Y009606D02*
X004361Y009606D01*
X004455Y009705D02*
X002193Y009705D01*
X002319Y009803D02*
X004549Y009803D01*
X004644Y009902D02*
X002446Y009902D01*
X002572Y010000D02*
X004738Y010000D01*
X004833Y010099D02*
X002699Y010099D01*
X002857Y010197D02*
X004927Y010197D01*
X005022Y010296D02*
X003039Y010296D01*
X003221Y010394D02*
X005116Y010394D01*
X005211Y010493D02*
X003403Y010493D01*
X003615Y010591D02*
X005228Y010591D01*
X005228Y010690D02*
X003902Y010690D01*
X004188Y010788D02*
X005228Y010788D01*
X005228Y010887D02*
X004585Y010887D01*
X005176Y010985D02*
X005228Y010985D01*
X006148Y010985D02*
X006201Y010985D01*
X006148Y010887D02*
X006792Y010887D01*
X007188Y010788D02*
X006148Y010788D01*
X006148Y010690D02*
X007475Y010690D01*
X007762Y010591D02*
X006148Y010591D01*
X005962Y009508D02*
X006529Y009508D01*
X006623Y009409D02*
X006066Y009409D01*
X006126Y009311D02*
X006718Y009311D01*
X006812Y009212D02*
X006159Y009212D01*
X005717Y009212D02*
X005660Y009212D01*
X005660Y009311D02*
X005717Y009311D01*
X005717Y009409D02*
X005660Y009409D01*
X005660Y009508D02*
X005717Y009508D01*
X005717Y009015D02*
X005660Y009015D01*
X005660Y008917D02*
X005717Y008917D01*
X005717Y008818D02*
X005660Y008818D01*
X005660Y008720D02*
X005717Y008720D01*
X005413Y008720D02*
X004092Y008720D01*
X004187Y008818D02*
X005309Y008818D01*
X005250Y008917D02*
X004281Y008917D01*
X004376Y009015D02*
X005218Y009015D01*
X003511Y008720D02*
X002474Y008720D01*
X002632Y008621D02*
X003416Y008621D01*
X003322Y008523D02*
X002722Y008523D01*
X007838Y004090D02*
X009008Y004090D01*
X009008Y003992D02*
X007833Y003992D01*
X007825Y003893D02*
X009042Y003893D01*
X009083Y003795D02*
X007809Y003795D01*
X007791Y003696D02*
X009124Y003696D01*
X009196Y003598D02*
X007767Y003598D01*
X007738Y003499D02*
X009295Y003499D01*
X009398Y003401D02*
X007705Y003401D01*
X007664Y003302D02*
X009636Y003302D01*
X009585Y008227D02*
X010391Y008227D01*
X010327Y008326D02*
X009585Y008326D01*
X009556Y008424D02*
X010263Y008424D01*
X010198Y008523D02*
X009515Y008523D01*
X009425Y008621D02*
X010134Y008621D01*
X010070Y008720D02*
X009267Y008720D01*
M02*
