G75*
%MOIN*%
%OFA0B0*%
%FSLAX24Y24*%
%IPPOS*%
%LPD*%
%AMOC8*
5,1,8,0,0,1.08239X$1,22.5*
%
%ADD10C,0.0050*%
%ADD11C,0.0080*%
%ADD12R,0.0539X0.0001*%
%ADD13R,0.0550X0.0001*%
%ADD14R,0.0556X0.0001*%
%ADD15R,0.0555X0.0001*%
%ADD16R,0.0561X0.0001*%
%ADD17R,0.0560X0.0001*%
%ADD18R,0.0564X0.0001*%
%ADD19R,0.0564X0.0001*%
%ADD20R,0.0568X0.0001*%
%ADD21R,0.0567X0.0001*%
%ADD22R,0.0570X0.0001*%
%ADD23R,0.0574X0.0001*%
%ADD24R,0.0576X0.0001*%
%ADD25R,0.0576X0.0001*%
%ADD26R,0.0578X0.0001*%
%ADD27R,0.0581X0.0001*%
%ADD28R,0.0580X0.0001*%
%ADD29R,0.0583X0.0001*%
%ADD30R,0.0582X0.0001*%
%ADD31R,0.0585X0.0001*%
%ADD32R,0.0586X0.0001*%
%ADD33R,0.0588X0.0001*%
%ADD34R,0.0590X0.0001*%
%ADD35R,0.0591X0.0001*%
%ADD36R,0.0593X0.0001*%
%ADD37R,0.0594X0.0001*%
%ADD38R,0.0596X0.0001*%
%ADD39R,0.0595X0.0001*%
%ADD40R,0.0597X0.0001*%
%ADD41R,0.0598X0.0001*%
%ADD42R,0.0598X0.0001*%
%ADD43R,0.0599X0.0001*%
%ADD44R,0.0601X0.0001*%
%ADD45R,0.0600X0.0001*%
%ADD46R,0.0601X0.0001*%
%ADD47R,0.0602X0.0001*%
%ADD48R,0.0602X0.0001*%
%ADD49R,0.0603X0.0001*%
%ADD50R,0.0604X0.0001*%
%ADD51R,0.0604X0.0001*%
%ADD52R,0.0605X0.0001*%
%ADD53R,0.0606X0.0001*%
%ADD54R,0.0606X0.0001*%
%ADD55R,0.0607X0.0001*%
%ADD56R,0.0607X0.0001*%
%ADD57R,0.0609X0.0001*%
%ADD58R,0.0608X0.0001*%
%ADD59R,0.0609X0.0001*%
%ADD60R,0.0610X0.0001*%
%ADD61R,0.0610X0.0001*%
%ADD62R,0.0610X0.0001*%
%ADD63R,0.0611X0.0001*%
%ADD64R,0.0611X0.0001*%
%ADD65R,0.0611X0.0001*%
%ADD66R,0.0612X0.0001*%
%ADD67R,0.0612X0.0001*%
%ADD68R,0.0613X0.0001*%
%ADD69R,0.0613X0.0001*%
%ADD70R,0.0611X0.0001*%
%ADD71R,0.0606X0.0001*%
%ADD72R,0.0610X0.0001*%
%ADD73R,0.0604X0.0001*%
%ADD74R,0.0603X0.0001*%
%ADD75R,0.0608X0.0001*%
%ADD76R,0.0602X0.0001*%
%ADD77R,0.0599X0.0001*%
%ADD78R,0.0606X0.0001*%
%ADD79R,0.0598X0.0001*%
%ADD80R,0.0604X0.0001*%
%ADD81R,0.0596X0.0001*%
%ADD82R,0.0594X0.0001*%
%ADD83R,0.0602X0.0001*%
%ADD84R,0.0594X0.0001*%
%ADD85R,0.0592X0.0001*%
%ADD86R,0.0600X0.0001*%
%ADD87R,0.0590X0.0001*%
%ADD88R,0.0589X0.0001*%
%ADD89R,0.0598X0.0001*%
%ADD90R,0.0587X0.0001*%
%ADD91R,0.0586X0.0001*%
%ADD92R,0.0595X0.0001*%
%ADD93R,0.0582X0.0001*%
%ADD94R,0.0579X0.0001*%
%ADD95R,0.0591X0.0001*%
%ADD96R,0.0577X0.0001*%
%ADD97R,0.0590X0.0001*%
%ADD98R,0.0574X0.0001*%
%ADD99R,0.0571X0.0001*%
%ADD100R,0.0569X0.0001*%
%ADD101R,0.0584X0.0001*%
%ADD102R,0.0566X0.0001*%
%ADD103R,0.0562X0.0001*%
%ADD104R,0.0581X0.0001*%
%ADD105R,0.0557X0.0001*%
%ADD106R,0.0552X0.0001*%
%ADD107R,0.0576X0.0001*%
%ADD108R,0.0544X0.0001*%
%ADD109R,0.0413X0.0001*%
%ADD110R,0.0570X0.0001*%
%ADD111R,0.0412X0.0001*%
%ADD112R,0.0412X0.0001*%
%ADD113R,0.0564X0.0001*%
%ADD114R,0.0555X0.0001*%
%ADD115R,0.0411X0.0001*%
%ADD116R,0.0411X0.0001*%
%ADD117R,0.0540X0.0001*%
%ADD118R,0.0383X0.0001*%
%ADD119R,0.0410X0.0001*%
%ADD120R,0.0410X0.0001*%
%ADD121R,0.0383X0.0001*%
%ADD122R,0.0382X0.0001*%
%ADD123R,0.0410X0.0001*%
%ADD124R,0.0409X0.0001*%
%ADD125R,0.0382X0.0001*%
%ADD126R,0.0409X0.0001*%
%ADD127R,0.0382X0.0001*%
%ADD128R,0.0408X0.0001*%
%ADD129R,0.0408X0.0001*%
%ADD130R,0.0381X0.0001*%
%ADD131R,0.0381X0.0001*%
%ADD132R,0.0407X0.0001*%
%ADD133R,0.0407X0.0001*%
%ADD134R,0.0380X0.0001*%
%ADD135R,0.0380X0.0001*%
%ADD136R,0.0406X0.0001*%
%ADD137R,0.0406X0.0001*%
%ADD138R,0.0379X0.0001*%
%ADD139R,0.0406X0.0001*%
%ADD140R,0.0406X0.0001*%
%ADD141R,0.0379X0.0001*%
%ADD142R,0.0405X0.0001*%
%ADD143R,0.0378X0.0001*%
%ADD144R,0.0404X0.0001*%
%ADD145R,0.0378X0.0001*%
%ADD146R,0.0404X0.0001*%
%ADD147R,0.0378X0.0001*%
%ADD148R,0.0403X0.0001*%
%ADD149R,0.0403X0.0001*%
%ADD150R,0.0377X0.0001*%
%ADD151R,0.0377X0.0001*%
%ADD152R,0.0402X0.0001*%
%ADD153R,0.0402X0.0001*%
%ADD154R,0.0376X0.0001*%
%ADD155R,0.0376X0.0001*%
%ADD156R,0.0402X0.0001*%
%ADD157R,0.0402X0.0001*%
%ADD158R,0.0375X0.0001*%
%ADD159R,0.0401X0.0001*%
%ADD160R,0.0375X0.0001*%
%ADD161R,0.0400X0.0001*%
%ADD162R,0.0400X0.0001*%
%ADD163R,0.0374X0.0001*%
%ADD164R,0.0399X0.0001*%
%ADD165R,0.0374X0.0001*%
%ADD166R,0.0399X0.0001*%
%ADD167R,0.0374X0.0001*%
%ADD168R,0.0398X0.0001*%
%ADD169R,0.0398X0.0001*%
%ADD170R,0.0374X0.0001*%
%ADD171R,0.0373X0.0001*%
%ADD172R,0.0398X0.0001*%
%ADD173R,0.0398X0.0001*%
%ADD174R,0.0372X0.0001*%
%ADD175R,0.0397X0.0001*%
%ADD176R,0.0372X0.0001*%
%ADD177R,0.0396X0.0001*%
%ADD178R,0.0371X0.0001*%
%ADD179R,0.0396X0.0001*%
%ADD180R,0.0371X0.0001*%
%ADD181R,0.0395X0.0001*%
%ADD182R,0.0370X0.0001*%
%ADD183R,0.0395X0.0001*%
%ADD184R,0.0370X0.0001*%
%ADD185R,0.0394X0.0001*%
%ADD186R,0.0394X0.0001*%
%ADD187R,0.0370X0.0001*%
%ADD188R,0.0394X0.0001*%
%ADD189R,0.0394X0.0001*%
%ADD190R,0.0370X0.0001*%
%ADD191R,0.0369X0.0001*%
%ADD192R,0.0393X0.0001*%
%ADD193R,0.0393X0.0001*%
%ADD194R,0.0369X0.0001*%
%ADD195R,0.0392X0.0001*%
%ADD196R,0.0368X0.0001*%
%ADD197R,0.0391X0.0001*%
%ADD198R,0.0367X0.0001*%
%ADD199R,0.0391X0.0001*%
%ADD200R,0.0367X0.0001*%
%ADD201R,0.0390X0.0001*%
%ADD202R,0.0390X0.0001*%
%ADD203R,0.0366X0.0001*%
%ADD204R,0.0366X0.0001*%
%ADD205R,0.0390X0.0001*%
%ADD206R,0.0390X0.0001*%
%ADD207R,0.0366X0.0001*%
%ADD208R,0.0366X0.0001*%
%ADD209R,0.0389X0.0001*%
%ADD210R,0.0389X0.0001*%
%ADD211R,0.0388X0.0001*%
%ADD212R,0.0365X0.0001*%
%ADD213R,0.0388X0.0001*%
%ADD214R,0.0365X0.0001*%
%ADD215R,0.0387X0.0001*%
%ADD216R,0.0364X0.0001*%
%ADD217R,0.0386X0.0001*%
%ADD218R,0.0364X0.0001*%
%ADD219R,0.0386X0.0001*%
%ADD220R,0.0363X0.0001*%
%ADD221R,0.0386X0.0001*%
%ADD222R,0.0386X0.0001*%
%ADD223R,0.0362X0.0001*%
%ADD224R,0.0362X0.0001*%
%ADD225R,0.0385X0.0001*%
%ADD226R,0.0385X0.0001*%
%ADD227R,0.0362X0.0001*%
%ADD228R,0.0384X0.0001*%
%ADD229R,0.0362X0.0001*%
%ADD230R,0.0384X0.0001*%
%ADD231R,0.0361X0.0001*%
%ADD232R,0.0361X0.0001*%
%ADD233R,0.0382X0.0001*%
%ADD234R,0.0360X0.0001*%
%ADD235R,0.0360X0.0001*%
%ADD236R,0.0359X0.0001*%
%ADD237R,0.0359X0.0001*%
%ADD238R,0.0358X0.0001*%
%ADD239R,0.0358X0.0001*%
%ADD240R,0.0379X0.0001*%
%ADD241R,0.0358X0.0001*%
%ADD242R,0.0357X0.0001*%
%ADD243R,0.0357X0.0001*%
%ADD244R,0.0378X0.0001*%
%ADD245R,0.0356X0.0001*%
%ADD246R,0.0356X0.0001*%
%ADD247R,0.0355X0.0001*%
%ADD248R,0.0376X0.0001*%
%ADD249R,0.0376X0.0001*%
%ADD250R,0.0355X0.0001*%
%ADD251R,0.0354X0.0001*%
%ADD252R,0.0354X0.0001*%
%ADD253R,0.0354X0.0001*%
%ADD254R,0.0353X0.0001*%
%ADD255R,0.0353X0.0001*%
%ADD256R,0.0373X0.0001*%
%ADD257R,0.0373X0.0001*%
%ADD258R,0.0352X0.0001*%
%ADD259R,0.0352X0.0001*%
%ADD260R,0.0351X0.0001*%
%ADD261R,0.0351X0.0001*%
%ADD262R,0.0350X0.0001*%
%ADD263R,0.0350X0.0001*%
%ADD264R,0.0370X0.0001*%
%ADD265R,0.0350X0.0001*%
%ADD266R,0.0350X0.0001*%
%ADD267R,0.0349X0.0001*%
%ADD268R,0.0368X0.0001*%
%ADD269R,0.0348X0.0001*%
%ADD270R,0.0348X0.0001*%
%ADD271R,0.0347X0.0001*%
%ADD272R,0.0347X0.0001*%
%ADD273R,0.0346X0.0001*%
%ADD274R,0.0346X0.0001*%
%ADD275R,0.0346X0.0001*%
%ADD276R,0.0346X0.0001*%
%ADD277R,0.0345X0.0001*%
%ADD278R,0.0363X0.0001*%
%ADD279R,0.0345X0.0001*%
%ADD280R,0.0344X0.0001*%
%ADD281R,0.0343X0.0001*%
%ADD282R,0.0343X0.0001*%
%ADD283R,0.0342X0.0001*%
%ADD284R,0.0342X0.0001*%
%ADD285R,0.0342X0.0001*%
%ADD286R,0.0342X0.0001*%
%ADD287R,0.0359X0.0001*%
%ADD288R,0.0359X0.0001*%
%ADD289R,0.0341X0.0001*%
%ADD290R,0.0358X0.0001*%
%ADD291R,0.0341X0.0001*%
%ADD292R,0.0340X0.0001*%
%ADD293R,0.0340X0.0001*%
%ADD294R,0.0339X0.0001*%
%ADD295R,0.0356X0.0001*%
%ADD296R,0.0338X0.0001*%
%ADD297R,0.0356X0.0001*%
%ADD298R,0.0338X0.0001*%
%ADD299R,0.0338X0.0001*%
%ADD300R,0.0338X0.0001*%
%ADD301R,0.0337X0.0001*%
%ADD302R,0.0337X0.0001*%
%ADD303R,0.0354X0.0001*%
%ADD304R,0.0353X0.0001*%
%ADD305R,0.0336X0.0001*%
%ADD306R,0.0353X0.0001*%
%ADD307R,0.0336X0.0001*%
%ADD308R,0.0335X0.0001*%
%ADD309R,0.0335X0.0001*%
%ADD310R,0.0334X0.0001*%
%ADD311R,0.0334X0.0001*%
%ADD312R,0.0334X0.0001*%
%ADD313R,0.0350X0.0001*%
%ADD314R,0.0350X0.0001*%
%ADD315R,0.0333X0.0001*%
%ADD316R,0.0333X0.0001*%
%ADD317R,0.0349X0.0001*%
%ADD318R,0.0332X0.0001*%
%ADD319R,0.0332X0.0001*%
%ADD320R,0.0331X0.0001*%
%ADD321R,0.0331X0.0001*%
%ADD322R,0.0330X0.0001*%
%ADD323R,0.0330X0.0001*%
%ADD324R,0.0330X0.0001*%
%ADD325R,0.0329X0.0001*%
%ADD326R,0.0329X0.0001*%
%ADD327R,0.0328X0.0001*%
%ADD328R,0.0328X0.0001*%
%ADD329R,0.0327X0.0001*%
%ADD330R,0.0327X0.0001*%
%ADD331R,0.0326X0.0001*%
%ADD332R,0.0326X0.0001*%
%ADD333R,0.0326X0.0001*%
%ADD334R,0.0326X0.0001*%
%ADD335R,0.0339X0.0001*%
%ADD336R,0.0325X0.0001*%
%ADD337R,0.0324X0.0001*%
%ADD338R,0.0324X0.0001*%
%ADD339R,0.0323X0.0001*%
%ADD340R,0.0323X0.0001*%
%ADD341R,0.0322X0.0001*%
%ADD342R,0.0322X0.0001*%
%ADD343R,0.0336X0.0001*%
%ADD344R,0.0336X0.0001*%
%ADD345R,0.0322X0.0001*%
%ADD346R,0.0334X0.0001*%
%ADD347R,0.0322X0.0001*%
%ADD348R,0.0321X0.0001*%
%ADD349R,0.0321X0.0001*%
%ADD350R,0.0320X0.0001*%
%ADD351R,0.0333X0.0001*%
%ADD352R,0.0333X0.0001*%
%ADD353R,0.0319X0.0001*%
%ADD354R,0.0319X0.0001*%
%ADD355R,0.0318X0.0001*%
%ADD356R,0.0318X0.0001*%
%ADD357R,0.0318X0.0001*%
%ADD358R,0.0318X0.0001*%
%ADD359R,0.0330X0.0001*%
%ADD360R,0.0330X0.0001*%
%ADD361R,0.0317X0.0001*%
%ADD362R,0.0317X0.0001*%
%ADD363R,0.0316X0.0001*%
%ADD364R,0.0316X0.0001*%
%ADD365R,0.0315X0.0001*%
%ADD366R,0.0314X0.0001*%
%ADD367R,0.0314X0.0001*%
%ADD368R,0.0314X0.0001*%
%ADD369R,0.0314X0.0001*%
%ADD370R,0.0325X0.0001*%
%ADD371R,0.0313X0.0001*%
%ADD372R,0.0313X0.0001*%
%ADD373R,0.0312X0.0001*%
%ADD374R,0.0312X0.0001*%
%ADD375R,0.0311X0.0001*%
%ADD376R,0.0311X0.0001*%
%ADD377R,0.0310X0.0001*%
%ADD378R,0.0310X0.0001*%
%ADD379R,0.0310X0.0001*%
%ADD380R,0.0320X0.0001*%
%ADD381R,0.0309X0.0001*%
%ADD382R,0.0309X0.0001*%
%ADD383R,0.0319X0.0001*%
%ADD384R,0.0319X0.0001*%
%ADD385R,0.0308X0.0001*%
%ADD386R,0.0308X0.0001*%
%ADD387R,0.0307X0.0001*%
%ADD388R,0.0307X0.0001*%
%ADD389R,0.0306X0.0001*%
%ADD390R,0.0316X0.0001*%
%ADD391R,0.0306X0.0001*%
%ADD392R,0.0316X0.0001*%
%ADD393R,0.0306X0.0001*%
%ADD394R,0.0315X0.0001*%
%ADD395R,0.0305X0.0001*%
%ADD396R,0.0305X0.0001*%
%ADD397R,0.0304X0.0001*%
%ADD398R,0.0304X0.0001*%
%ADD399R,0.0313X0.0001*%
%ADD400R,0.0303X0.0001*%
%ADD401R,0.0313X0.0001*%
%ADD402R,0.0303X0.0001*%
%ADD403R,0.0302X0.0001*%
%ADD404R,0.0302X0.0001*%
%ADD405R,0.0302X0.0001*%
%ADD406R,0.0310X0.0001*%
%ADD407R,0.0302X0.0001*%
%ADD408R,0.0301X0.0001*%
%ADD409R,0.0310X0.0001*%
%ADD410R,0.0300X0.0001*%
%ADD411R,0.0300X0.0001*%
%ADD412R,0.0299X0.0001*%
%ADD413R,0.0299X0.0001*%
%ADD414R,0.0298X0.0001*%
%ADD415R,0.0298X0.0001*%
%ADD416R,0.0298X0.0001*%
%ADD417R,0.0306X0.0001*%
%ADD418R,0.0298X0.0001*%
%ADD419R,0.0297X0.0001*%
%ADD420R,0.0297X0.0001*%
%ADD421R,0.0296X0.0001*%
%ADD422R,0.0295X0.0001*%
%ADD423R,0.0295X0.0001*%
%ADD424R,0.0294X0.0001*%
%ADD425R,0.0294X0.0001*%
%ADD426R,0.0294X0.0001*%
%ADD427R,0.0294X0.0001*%
%ADD428R,0.0301X0.0001*%
%ADD429R,0.0293X0.0001*%
%ADD430R,0.0299X0.0001*%
%ADD431R,0.0293X0.0001*%
%ADD432R,0.0299X0.0001*%
%ADD433R,0.0292X0.0001*%
%ADD434R,0.0292X0.0001*%
%ADD435R,0.0291X0.0001*%
%ADD436R,0.0290X0.0001*%
%ADD437R,0.0290X0.0001*%
%ADD438R,0.0290X0.0001*%
%ADD439R,0.0296X0.0001*%
%ADD440R,0.0290X0.0001*%
%ADD441R,0.0289X0.0001*%
%ADD442R,0.0289X0.0001*%
%ADD443R,0.0288X0.0001*%
%ADD444R,0.0288X0.0001*%
%ADD445R,0.0287X0.0001*%
%ADD446R,0.0293X0.0001*%
%ADD447R,0.0293X0.0001*%
%ADD448R,0.0287X0.0001*%
%ADD449R,0.0286X0.0001*%
%ADD450R,0.0291X0.0001*%
%ADD451R,0.0286X0.0001*%
%ADD452R,0.0286X0.0001*%
%ADD453R,0.0285X0.0001*%
%ADD454R,0.0285X0.0001*%
%ADD455R,0.0290X0.0001*%
%ADD456R,0.0290X0.0001*%
%ADD457R,0.0284X0.0001*%
%ADD458R,0.0284X0.0001*%
%ADD459R,0.0283X0.0001*%
%ADD460R,0.0283X0.0001*%
%ADD461R,0.0282X0.0001*%
%ADD462R,0.0286X0.0001*%
%ADD463R,0.0282X0.0001*%
%ADD464R,0.0282X0.0001*%
%ADD465R,0.0281X0.0001*%
%ADD466R,0.0281X0.0001*%
%ADD467R,0.0280X0.0001*%
%ADD468R,0.0280X0.0001*%
%ADD469R,0.0279X0.0001*%
%ADD470R,0.0279X0.0001*%
%ADD471R,0.0278X0.0001*%
%ADD472R,0.0282X0.0001*%
%ADD473R,0.0278X0.0001*%
%ADD474R,0.0278X0.0001*%
%ADD475R,0.0278X0.0001*%
%ADD476R,0.0277X0.0001*%
%ADD477R,0.0276X0.0001*%
%ADD478R,0.0279X0.0001*%
%ADD479R,0.0276X0.0001*%
%ADD480R,0.0275X0.0001*%
%ADD481R,0.0275X0.0001*%
%ADD482R,0.0274X0.0001*%
%ADD483R,0.0274X0.0001*%
%ADD484R,0.0277X0.0001*%
%ADD485R,0.0274X0.0001*%
%ADD486R,0.0276X0.0001*%
%ADD487R,0.0276X0.0001*%
%ADD488R,0.0274X0.0001*%
%ADD489R,0.0273X0.0001*%
%ADD490R,0.0273X0.0001*%
%ADD491R,0.0272X0.0001*%
%ADD492R,0.0271X0.0001*%
%ADD493R,0.0271X0.0001*%
%ADD494R,0.0273X0.0001*%
%ADD495R,0.0273X0.0001*%
%ADD496R,0.0270X0.0001*%
%ADD497R,0.0270X0.0001*%
%ADD498R,0.0272X0.0001*%
%ADD499R,0.0270X0.0001*%
%ADD500R,0.0270X0.0001*%
%ADD501R,0.0269X0.0001*%
%ADD502R,0.0269X0.0001*%
%ADD503R,0.0270X0.0001*%
%ADD504R,0.0268X0.0001*%
%ADD505R,0.0268X0.0001*%
%ADD506R,0.0267X0.0001*%
%ADD507R,0.0266X0.0001*%
%ADD508R,0.0266X0.0001*%
%ADD509R,0.0267X0.0001*%
%ADD510R,0.0266X0.0001*%
%ADD511R,0.0266X0.0001*%
%ADD512R,0.0265X0.0001*%
%ADD513R,0.0265X0.0001*%
%ADD514R,0.0264X0.0001*%
%ADD515R,0.0264X0.0001*%
%ADD516R,0.0263X0.0001*%
%ADD517R,0.0263X0.0001*%
%ADD518R,0.0262X0.0001*%
%ADD519R,0.0262X0.0001*%
%ADD520R,0.0262X0.0001*%
%ADD521R,0.0262X0.0001*%
%ADD522R,0.0261X0.0001*%
%ADD523R,0.0261X0.0001*%
%ADD524R,0.0260X0.0001*%
%ADD525R,0.0260X0.0001*%
%ADD526R,0.0259X0.0001*%
%ADD527R,0.0259X0.0001*%
%ADD528R,0.0259X0.0001*%
%ADD529R,0.0258X0.0001*%
%ADD530R,0.0258X0.0001*%
%ADD531R,0.0259X0.0001*%
%ADD532R,0.0258X0.0001*%
%ADD533R,0.0258X0.0001*%
%ADD534R,0.0257X0.0001*%
%ADD535R,0.0256X0.0001*%
%ADD536R,0.0257X0.0001*%
%ADD537R,0.0256X0.0001*%
%ADD538R,0.0255X0.0001*%
%ADD539R,0.0255X0.0001*%
%ADD540R,0.0256X0.0001*%
%ADD541R,0.0256X0.0001*%
%ADD542R,0.0254X0.0001*%
%ADD543R,0.0254X0.0001*%
%ADD544R,0.0254X0.0001*%
%ADD545R,0.0254X0.0001*%
%ADD546R,0.0253X0.0001*%
%ADD547R,0.0253X0.0001*%
%ADD548R,0.0252X0.0001*%
%ADD549R,0.0251X0.0001*%
%ADD550R,0.0251X0.0001*%
%ADD551R,0.0253X0.0001*%
%ADD552R,0.0250X0.0001*%
%ADD553R,0.0250X0.0001*%
%ADD554R,0.0252X0.0001*%
%ADD555R,0.0250X0.0001*%
%ADD556R,0.0250X0.0001*%
%ADD557R,0.0249X0.0001*%
%ADD558R,0.0249X0.0001*%
%ADD559R,0.0248X0.0001*%
%ADD560R,0.0247X0.0001*%
%ADD561R,0.0247X0.0001*%
%ADD562R,0.0250X0.0001*%
%ADD563R,0.0246X0.0001*%
%ADD564R,0.0246X0.0001*%
%ADD565R,0.0250X0.0001*%
%ADD566R,0.0246X0.0001*%
%ADD567R,0.0246X0.0001*%
%ADD568R,0.0245X0.0001*%
%ADD569R,0.0245X0.0001*%
%ADD570R,0.0244X0.0001*%
%ADD571R,0.0243X0.0001*%
%ADD572R,0.0243X0.0001*%
%ADD573R,0.0242X0.0001*%
%ADD574R,0.0242X0.0001*%
%ADD575R,0.0242X0.0001*%
%ADD576R,0.0242X0.0001*%
%ADD577R,0.0241X0.0001*%
%ADD578R,0.0241X0.0001*%
%ADD579R,0.0240X0.0001*%
%ADD580R,0.0240X0.0001*%
%ADD581R,0.0244X0.0001*%
%ADD582R,0.0239X0.0001*%
%ADD583R,0.0238X0.0001*%
%ADD584R,0.0238X0.0001*%
%ADD585R,0.0238X0.0001*%
%ADD586R,0.0238X0.0001*%
%ADD587R,0.0237X0.0001*%
%ADD588R,0.0237X0.0001*%
%ADD589R,0.0415X0.0001*%
%ADD590R,0.0415X0.0001*%
%ADD591R,0.1389X0.0001*%
%ADD592R,0.1389X0.0001*%
%ADD593R,0.0514X0.0001*%
%ADD594R,0.0489X0.0001*%
%ADD595R,0.0514X0.0001*%
%ADD596R,0.0489X0.0001*%
%ADD597R,0.1388X0.0001*%
%ADD598R,0.1388X0.0001*%
%ADD599R,0.1387X0.0001*%
%ADD600R,0.1387X0.0001*%
%ADD601R,0.1386X0.0001*%
%ADD602R,0.1386X0.0001*%
%ADD603R,0.1386X0.0001*%
%ADD604R,0.1385X0.0001*%
%ADD605R,0.1384X0.0001*%
%ADD606R,0.1384X0.0001*%
%ADD607R,0.1383X0.0001*%
%ADD608R,0.1383X0.0001*%
%ADD609R,0.1382X0.0001*%
%ADD610R,0.1382X0.0001*%
%ADD611R,0.1382X0.0001*%
%ADD612R,0.1381X0.0001*%
%ADD613R,0.1381X0.0001*%
%ADD614R,0.1380X0.0001*%
%ADD615R,0.1379X0.0001*%
%ADD616R,0.1379X0.0001*%
%ADD617R,0.1378X0.0001*%
%ADD618R,0.1378X0.0001*%
%ADD619R,0.1378X0.0001*%
%ADD620R,0.1376X0.0001*%
%ADD621R,0.1376X0.0001*%
%ADD622R,0.1374X0.0001*%
%ADD623R,0.1374X0.0001*%
%ADD624R,0.1373X0.0001*%
%ADD625R,0.1373X0.0001*%
%ADD626R,0.1371X0.0001*%
%ADD627R,0.1371X0.0001*%
%ADD628R,0.1370X0.0001*%
%ADD629R,0.1370X0.0001*%
%ADD630R,0.1369X0.0001*%
%ADD631R,0.1368X0.0001*%
%ADD632R,0.1368X0.0001*%
%ADD633R,0.1367X0.0001*%
%ADD634R,0.1366X0.0001*%
%ADD635R,0.1366X0.0001*%
%ADD636R,0.1365X0.0001*%
%ADD637R,0.1364X0.0001*%
%ADD638R,0.1363X0.0001*%
%ADD639R,0.1363X0.0001*%
%ADD640R,0.1362X0.0001*%
%ADD641R,0.1362X0.0001*%
%ADD642R,0.1362X0.0001*%
%ADD643R,0.1361X0.0001*%
%ADD644R,0.1360X0.0001*%
%ADD645R,0.1359X0.0001*%
%ADD646R,0.1358X0.0001*%
%ADD647R,0.1358X0.0001*%
%ADD648R,0.1358X0.0001*%
%ADD649R,0.1357X0.0001*%
%ADD650R,0.1357X0.0001*%
%ADD651R,0.1356X0.0001*%
%ADD652R,0.1355X0.0001*%
%ADD653R,0.1354X0.0001*%
%ADD654R,0.1354X0.0001*%
%ADD655R,0.1354X0.0001*%
%ADD656R,0.1353X0.0001*%
%ADD657R,0.1352X0.0001*%
%ADD658R,0.1351X0.0001*%
%ADD659R,0.1350X0.0001*%
%ADD660R,0.1348X0.0001*%
%ADD661R,0.1346X0.0001*%
%ADD662R,0.1344X0.0001*%
%ADD663R,0.1342X0.0001*%
%ADD664R,0.1341X0.0001*%
%ADD665R,0.1339X0.0001*%
%ADD666R,0.1338X0.0001*%
%ADD667R,0.1336X0.0001*%
%ADD668R,0.1334X0.0001*%
%ADD669R,0.1333X0.0001*%
%ADD670R,0.1331X0.0001*%
%ADD671R,0.1330X0.0001*%
%ADD672R,0.1328X0.0001*%
%ADD673R,0.1326X0.0001*%
%ADD674R,0.1325X0.0001*%
%ADD675R,0.1323X0.0001*%
%ADD676R,0.1322X0.0001*%
%ADD677R,0.1320X0.0001*%
%ADD678R,0.1318X0.0001*%
%ADD679R,0.1317X0.0001*%
%ADD680R,0.1315X0.0001*%
%ADD681R,0.1314X0.0001*%
%ADD682R,0.1312X0.0001*%
%ADD683R,0.1310X0.0001*%
%ADD684R,0.1309X0.0001*%
%ADD685R,0.1307X0.0001*%
%ADD686R,0.1306X0.0001*%
%ADD687R,0.1304X0.0001*%
%ADD688R,0.1302X0.0001*%
%ADD689R,0.1301X0.0001*%
%ADD690R,0.1299X0.0001*%
%ADD691R,0.1298X0.0001*%
%ADD692R,0.1296X0.0001*%
%ADD693R,0.1294X0.0001*%
%ADD694R,0.1292X0.0001*%
%ADD695R,0.1290X0.0001*%
%ADD696R,0.1289X0.0001*%
%ADD697R,0.1287X0.0001*%
%ADD698R,0.1286X0.0001*%
%ADD699R,0.1284X0.0001*%
%ADD700R,0.1282X0.0001*%
%ADD701R,0.1281X0.0001*%
%ADD702R,0.1279X0.0001*%
%ADD703R,0.1278X0.0001*%
%ADD704R,0.1276X0.0001*%
%ADD705R,0.1274X0.0001*%
%ADD706R,0.1273X0.0001*%
%ADD707R,0.1271X0.0001*%
%ADD708R,0.1270X0.0001*%
%ADD709R,0.1268X0.0001*%
%ADD710R,0.1266X0.0001*%
%ADD711R,0.1264X0.0001*%
%ADD712R,0.1262X0.0001*%
%ADD713R,0.1261X0.0001*%
%ADD714R,0.1259X0.0001*%
%ADD715R,0.1258X0.0001*%
%ADD716R,0.1256X0.0001*%
%ADD717R,0.1254X0.0001*%
%ADD718R,0.1253X0.0001*%
%ADD719R,0.1251X0.0001*%
%ADD720R,0.1250X0.0001*%
%ADD721R,0.1248X0.0001*%
%ADD722R,0.1246X0.0001*%
%ADD723R,0.1245X0.0001*%
%ADD724R,0.1243X0.0001*%
%ADD725R,0.1242X0.0001*%
%ADD726R,0.1240X0.0001*%
%ADD727R,0.1238X0.0001*%
%ADD728R,0.1237X0.0001*%
%ADD729R,0.1235X0.0001*%
%ADD730R,0.1234X0.0001*%
%ADD731R,0.1232X0.0001*%
%ADD732R,0.1230X0.0001*%
%ADD733R,0.1229X0.0001*%
%ADD734R,0.1227X0.0001*%
%ADD735R,0.1226X0.0001*%
%ADD736R,0.1224X0.0001*%
%ADD737R,0.1222X0.0001*%
%ADD738R,0.1221X0.0001*%
%ADD739R,0.1219X0.0001*%
%ADD740R,0.1218X0.0001*%
%ADD741R,0.1216X0.0001*%
%ADD742R,0.1214X0.0001*%
%ADD743R,0.1212X0.0001*%
%ADD744R,0.1210X0.0001*%
%ADD745R,0.1209X0.0001*%
%ADD746R,0.1207X0.0001*%
%ADD747R,0.1206X0.0001*%
%ADD748R,0.1204X0.0001*%
%ADD749R,0.1202X0.0001*%
%ADD750R,0.1201X0.0001*%
%ADD751R,0.1199X0.0001*%
%ADD752R,0.1198X0.0001*%
%ADD753R,0.1196X0.0001*%
%ADD754R,0.1194X0.0001*%
%ADD755R,0.1193X0.0001*%
%ADD756R,0.1191X0.0001*%
%ADD757R,0.1190X0.0001*%
%ADD758R,0.1188X0.0001*%
%ADD759R,0.1186X0.0001*%
%ADD760R,0.1184X0.0001*%
%ADD761R,0.1182X0.0001*%
%ADD762R,0.1181X0.0001*%
%ADD763R,0.1179X0.0001*%
%ADD764R,0.1178X0.0001*%
%ADD765R,0.1176X0.0001*%
%ADD766R,0.1174X0.0001*%
%ADD767R,0.1173X0.0001*%
%ADD768R,0.1171X0.0001*%
%ADD769R,0.1170X0.0001*%
%ADD770R,0.1168X0.0001*%
%ADD771R,0.1166X0.0001*%
%ADD772R,0.1165X0.0001*%
%ADD773R,0.1163X0.0001*%
%ADD774R,0.1162X0.0001*%
%ADD775R,0.1160X0.0001*%
%ADD776R,0.1158X0.0001*%
%ADD777R,0.1157X0.0001*%
%ADD778R,0.1155X0.0001*%
%ADD779R,0.1154X0.0001*%
%ADD780R,0.1152X0.0001*%
%ADD781R,0.1150X0.0001*%
%ADD782R,0.1149X0.0001*%
%ADD783R,0.1147X0.0001*%
%ADD784R,0.1146X0.0001*%
%ADD785R,0.1144X0.0001*%
%ADD786R,0.1142X0.0001*%
%ADD787R,0.1141X0.0001*%
%ADD788R,0.1139X0.0001*%
%ADD789R,0.1138X0.0001*%
%ADD790R,0.1136X0.0001*%
%ADD791R,0.1134X0.0001*%
%ADD792R,0.1132X0.0001*%
%ADD793R,0.1130X0.0001*%
%ADD794R,0.1129X0.0001*%
%ADD795R,0.1127X0.0001*%
%ADD796R,0.1126X0.0001*%
%ADD797R,0.1124X0.0001*%
%ADD798R,0.1122X0.0001*%
%ADD799R,0.1121X0.0001*%
%ADD800R,0.1119X0.0001*%
%ADD801R,0.1118X0.0001*%
%ADD802R,0.1116X0.0001*%
%ADD803R,0.1114X0.0001*%
%ADD804R,0.1113X0.0001*%
%ADD805R,0.1111X0.0001*%
%ADD806R,0.1110X0.0001*%
%ADD807R,0.1107X0.0001*%
%ADD808R,0.1106X0.0001*%
%ADD809R,0.1104X0.0001*%
%ADD810R,0.1102X0.0001*%
%ADD811R,0.1101X0.0001*%
%ADD812R,0.1099X0.0001*%
%ADD813R,0.1098X0.0001*%
%ADD814R,0.1096X0.0001*%
%ADD815R,0.1094X0.0001*%
%ADD816R,0.1093X0.0001*%
%ADD817R,0.1091X0.0001*%
%ADD818R,0.1090X0.0001*%
%ADD819R,0.1088X0.0001*%
%ADD820R,0.1086X0.0001*%
%ADD821R,0.1085X0.0001*%
%ADD822R,0.1083X0.0001*%
%ADD823R,0.1082X0.0001*%
%ADD824R,0.1080X0.0001*%
%ADD825R,0.1078X0.0001*%
%ADD826R,0.1077X0.0001*%
%ADD827R,0.1075X0.0001*%
%ADD828R,0.1074X0.0001*%
%ADD829R,0.1072X0.0001*%
%ADD830R,0.1070X0.0001*%
%ADD831R,0.1069X0.0001*%
%ADD832R,0.1067X0.0001*%
%ADD833R,0.1066X0.0001*%
%ADD834R,0.1064X0.0001*%
%ADD835R,0.1062X0.0001*%
%ADD836R,0.1061X0.0001*%
%ADD837R,0.1059X0.0001*%
%ADD838R,0.1058X0.0001*%
%ADD839R,0.1056X0.0001*%
%ADD840R,0.1054X0.0001*%
%ADD841R,0.1052X0.0001*%
%ADD842R,0.1050X0.0001*%
%ADD843R,0.1049X0.0001*%
%ADD844R,0.1047X0.0001*%
%ADD845R,0.1046X0.0001*%
%ADD846R,0.1044X0.0001*%
%ADD847R,0.1042X0.0001*%
%ADD848R,0.1041X0.0001*%
%ADD849R,0.1039X0.0001*%
%ADD850R,0.1038X0.0001*%
%ADD851R,0.1036X0.0001*%
%ADD852R,0.1034X0.0001*%
%ADD853R,0.1033X0.0001*%
%ADD854R,0.1031X0.0001*%
%ADD855R,0.1030X0.0001*%
%ADD856R,0.1027X0.0001*%
%ADD857R,0.1026X0.0001*%
%ADD858R,0.1024X0.0001*%
%ADD859R,0.1022X0.0001*%
%ADD860R,0.1021X0.0001*%
%ADD861R,0.1019X0.0001*%
%ADD862R,0.1018X0.0001*%
%ADD863R,0.1016X0.0001*%
%ADD864R,0.1014X0.0001*%
%ADD865R,0.1013X0.0001*%
%ADD866R,0.1011X0.0001*%
%ADD867R,0.1010X0.0001*%
%ADD868R,0.1008X0.0001*%
%ADD869R,0.1006X0.0001*%
%ADD870R,0.1005X0.0001*%
%ADD871R,0.1003X0.0001*%
%ADD872R,0.1002X0.0001*%
%ADD873R,0.1000X0.0001*%
%ADD874R,0.0998X0.0001*%
%ADD875R,0.0997X0.0001*%
%ADD876R,0.0995X0.0001*%
%ADD877R,0.0994X0.0001*%
%ADD878R,0.0992X0.0001*%
%ADD879R,0.0990X0.0001*%
%ADD880R,0.0989X0.0001*%
%ADD881R,0.0987X0.0001*%
%ADD882R,0.0986X0.0001*%
%ADD883R,0.0984X0.0001*%
%ADD884R,0.0982X0.0001*%
%ADD885R,0.0981X0.0001*%
%ADD886R,0.0979X0.0001*%
%ADD887R,0.0978X0.0001*%
%ADD888R,0.0976X0.0001*%
%ADD889R,0.0974X0.0001*%
%ADD890R,0.0972X0.0001*%
%ADD891R,0.0970X0.0001*%
%ADD892R,0.0969X0.0001*%
%ADD893R,0.0967X0.0001*%
%ADD894R,0.0966X0.0001*%
%ADD895R,0.0964X0.0001*%
%ADD896R,0.0962X0.0001*%
%ADD897R,0.0961X0.0001*%
%ADD898R,0.0959X0.0001*%
%ADD899R,0.0958X0.0001*%
%ADD900R,0.0956X0.0001*%
%ADD901R,0.0954X0.0001*%
%ADD902R,0.0953X0.0001*%
%ADD903R,0.0951X0.0001*%
%ADD904R,0.0950X0.0001*%
%ADD905R,0.0947X0.0001*%
%ADD906R,0.0946X0.0001*%
%ADD907R,0.0944X0.0001*%
%ADD908R,0.0942X0.0001*%
%ADD909R,0.0941X0.0001*%
%ADD910R,0.0939X0.0001*%
%ADD911R,0.0938X0.0001*%
%ADD912R,0.0936X0.0001*%
%ADD913R,0.0934X0.0001*%
%ADD914R,0.0933X0.0001*%
%ADD915R,0.0931X0.0001*%
%ADD916R,0.0930X0.0001*%
%ADD917R,0.0928X0.0001*%
%ADD918R,0.0926X0.0001*%
%ADD919R,0.0925X0.0001*%
%ADD920R,0.0923X0.0001*%
%ADD921R,0.0922X0.0001*%
%ADD922R,0.0920X0.0001*%
%ADD923R,0.0918X0.0001*%
%ADD924R,0.0917X0.0001*%
%ADD925R,0.0914X0.0001*%
%ADD926R,0.0909X0.0001*%
%ADD927R,0.0905X0.0001*%
%ADD928R,0.0901X0.0001*%
%ADD929R,0.0896X0.0001*%
%ADD930R,0.0891X0.0001*%
%ADD931R,0.0886X0.0001*%
%ADD932R,0.0882X0.0001*%
%ADD933R,0.0876X0.0001*%
%ADD934R,0.0871X0.0001*%
%ADD935R,0.0866X0.0001*%
%ADD936R,0.0860X0.0001*%
%ADD937R,0.0854X0.0001*%
%ADD938R,0.0848X0.0001*%
%ADD939R,0.0842X0.0001*%
%ADD940R,0.0835X0.0001*%
%ADD941R,0.0829X0.0001*%
%ADD942R,0.0821X0.0001*%
%ADD943R,0.0813X0.0001*%
%ADD944R,0.0804X0.0001*%
%ADD945R,0.0794X0.0001*%
%ADD946R,0.0782X0.0001*%
%ADD947R,0.0763X0.0001*%
%ADD948C,0.0000*%
D10*
X003052Y004575D02*
X003052Y004875D01*
X003202Y005025D01*
X003353Y004875D01*
X003353Y004575D01*
X003513Y004650D02*
X003588Y004575D01*
X003738Y004575D01*
X003813Y004650D01*
X003813Y004950D01*
X003738Y005025D01*
X003588Y005025D01*
X003513Y004950D01*
X003353Y004800D02*
X003052Y004800D01*
X004430Y004650D02*
X004430Y004575D01*
X004505Y004575D01*
X004505Y004650D01*
X004430Y004650D01*
X004430Y004575D02*
X004580Y004425D01*
X004740Y004575D02*
X004966Y004575D01*
X005041Y004650D01*
X004966Y004725D01*
X004740Y004725D01*
X004740Y004800D02*
X004740Y004575D01*
X004740Y004800D02*
X004816Y004875D01*
X004966Y004875D01*
X005201Y004800D02*
X005201Y004575D01*
X005201Y004800D02*
X005276Y004875D01*
X005501Y004875D01*
X005501Y004575D01*
X005661Y004725D02*
X005962Y004725D01*
X005962Y004650D02*
X005962Y004800D01*
X005886Y004875D01*
X005736Y004875D01*
X005661Y004800D01*
X005661Y004725D01*
X005736Y004575D02*
X005886Y004575D01*
X005962Y004650D01*
X006122Y004575D02*
X006347Y004575D01*
X006422Y004650D01*
X006422Y004800D01*
X006347Y004875D01*
X006122Y004875D01*
X006122Y005025D02*
X006122Y004575D01*
X006582Y004575D02*
X006807Y004575D01*
X006882Y004650D01*
X006807Y004725D01*
X006582Y004725D01*
X006582Y004800D02*
X006582Y004575D01*
X006582Y004800D02*
X006657Y004875D01*
X006807Y004875D01*
X007042Y004875D02*
X007268Y004875D01*
X007343Y004800D01*
X007268Y004725D01*
X007118Y004725D01*
X007042Y004650D01*
X007118Y004575D01*
X007343Y004575D01*
X007503Y004575D02*
X007728Y004575D01*
X007803Y004650D01*
X007728Y004725D01*
X007503Y004725D01*
X007503Y004800D02*
X007503Y004575D01*
X007503Y004800D02*
X007578Y004875D01*
X007728Y004875D01*
X007963Y004800D02*
X008038Y004725D01*
X008263Y004725D01*
X008263Y004575D02*
X008263Y005025D01*
X008038Y005025D01*
X007963Y004950D01*
X007963Y004800D01*
X007563Y008275D02*
X007563Y008575D01*
X007413Y008725D01*
X007263Y008575D01*
X007263Y008275D01*
X007103Y008350D02*
X007028Y008275D01*
X006878Y008275D01*
X006803Y008350D01*
X006643Y008275D02*
X006643Y008725D01*
X006418Y008725D01*
X006342Y008650D01*
X006342Y008500D01*
X006418Y008425D01*
X006643Y008425D01*
X006493Y008425D02*
X006342Y008275D01*
X006182Y008350D02*
X006107Y008275D01*
X005957Y008275D01*
X005882Y008350D01*
X005882Y008650D01*
X005957Y008725D01*
X006107Y008725D01*
X006182Y008650D01*
X006182Y008350D01*
X005722Y008275D02*
X005722Y008725D01*
X005497Y008725D01*
X005422Y008650D01*
X005422Y008575D01*
X005497Y008500D01*
X005722Y008500D01*
X005722Y008275D02*
X005497Y008275D01*
X005422Y008350D01*
X005422Y008425D01*
X005497Y008500D01*
X005262Y008350D02*
X005186Y008275D01*
X005036Y008275D01*
X004961Y008350D01*
X004961Y008650D01*
X005036Y008725D01*
X005186Y008725D01*
X005262Y008650D01*
X005262Y008350D01*
X004801Y008725D02*
X004501Y008725D01*
X004651Y008725D02*
X004651Y008275D01*
X004341Y008275D02*
X004191Y008275D01*
X004266Y008275D02*
X004266Y008725D01*
X004341Y008725D02*
X004191Y008725D01*
X004034Y008650D02*
X004034Y008350D01*
X003959Y008275D01*
X003809Y008275D01*
X003734Y008350D01*
X003734Y008650D02*
X003809Y008725D01*
X003959Y008725D01*
X004034Y008650D01*
X006803Y008650D02*
X006878Y008725D01*
X007028Y008725D01*
X007103Y008650D01*
X007103Y008350D01*
X007263Y008500D02*
X007563Y008500D01*
D11*
X004114Y003522D02*
X004114Y002144D01*
X004429Y002537D02*
X004901Y002537D01*
X004768Y003000D02*
X005048Y003000D01*
X004429Y002537D02*
X004429Y003522D01*
X004114Y003522D01*
X006476Y002537D02*
X006948Y002537D01*
X006948Y003522D01*
X007263Y003522D01*
X007263Y002144D01*
X006639Y002790D02*
X006639Y003070D01*
X006779Y002930D02*
X006499Y002930D01*
X006476Y000569D02*
X004901Y000569D01*
D12*
X005255Y005990D03*
X006242Y005990D03*
D13*
X006242Y005991D03*
X005256Y005991D03*
X005256Y006394D03*
D14*
X006242Y005992D03*
D15*
X005255Y005992D03*
D16*
X006242Y005992D03*
D17*
X005255Y005992D03*
X005255Y006392D03*
D18*
X006242Y005993D03*
D19*
X005256Y005993D03*
D20*
X006242Y005994D03*
D21*
X005256Y005994D03*
X005256Y006391D03*
D22*
X005256Y005995D03*
X006242Y005995D03*
D23*
X006242Y005996D03*
X005256Y005996D03*
X005256Y006389D03*
D24*
X006242Y005996D03*
D25*
X005255Y005996D03*
D26*
X005256Y005997D03*
X005256Y006388D03*
X006242Y005997D03*
D27*
X006242Y005998D03*
D28*
X005256Y005998D03*
D29*
X006242Y005999D03*
X006242Y006380D03*
D30*
X005255Y006386D03*
X005255Y005999D03*
D31*
X005256Y006000D03*
X006242Y006000D03*
D32*
X006242Y006000D03*
X005256Y006000D03*
X005256Y006384D03*
D33*
X005256Y006384D03*
X005256Y006001D03*
X006242Y006001D03*
D34*
X006242Y006002D03*
X005256Y006002D03*
D35*
X005256Y006003D03*
X006242Y006003D03*
D36*
X006242Y006004D03*
X005256Y006004D03*
X005256Y006381D03*
D37*
X005256Y006004D03*
X006242Y006004D03*
D38*
X006242Y006005D03*
D39*
X005255Y006005D03*
D40*
X005255Y006006D03*
X005255Y006379D03*
X006242Y006006D03*
D41*
X006242Y006007D03*
X006242Y006372D03*
D42*
X005256Y006007D03*
D43*
X005256Y006008D03*
X005256Y006377D03*
X006242Y006008D03*
D44*
X006242Y006008D03*
D45*
X005255Y006008D03*
D46*
X005256Y006009D03*
X005256Y006376D03*
X006242Y006371D03*
X006242Y006009D03*
D47*
X006242Y006010D03*
X006242Y006369D03*
D48*
X005256Y006374D03*
X005256Y006011D03*
X005256Y006010D03*
D49*
X006242Y006011D03*
D50*
X006242Y006012D03*
D51*
X005256Y006012D03*
D52*
X005255Y006012D03*
X005255Y006372D03*
X006242Y006367D03*
X006242Y006012D03*
D53*
X006242Y006013D03*
X006242Y006366D03*
X005256Y006371D03*
X005256Y006014D03*
X005256Y006013D03*
D54*
X006242Y006014D03*
D55*
X006242Y006015D03*
X005256Y006015D03*
D56*
X005256Y006016D03*
X005256Y006369D03*
X005256Y006370D03*
X006242Y006364D03*
X006242Y006016D03*
D57*
X006242Y006016D03*
X006242Y006017D03*
X006242Y006363D03*
X005256Y006367D03*
X005256Y006368D03*
X005256Y006017D03*
D58*
X005255Y006016D03*
X006242Y006364D03*
D59*
X006242Y006362D03*
X006242Y006018D03*
X005256Y006018D03*
D60*
X006242Y006019D03*
X006242Y006361D03*
D61*
X005255Y006366D03*
X005255Y006019D03*
D62*
X005256Y006020D03*
X005256Y006020D03*
X005256Y006021D03*
X005256Y006364D03*
X005256Y006364D03*
X006242Y006360D03*
X006242Y006360D03*
X006242Y006359D03*
X006242Y006020D03*
X006242Y006020D03*
D63*
X006242Y006021D03*
D64*
X006242Y006022D03*
X006242Y006358D03*
D65*
X005255Y006022D03*
D66*
X005256Y006023D03*
X005256Y006024D03*
X005256Y006024D03*
X005256Y006026D03*
X005256Y006359D03*
X005256Y006360D03*
X005256Y006360D03*
X005256Y006361D03*
X006242Y006357D03*
X006242Y006356D03*
X006242Y006356D03*
X006242Y006354D03*
X006242Y006024D03*
X006242Y006024D03*
X006242Y006023D03*
D67*
X006242Y006025D03*
X006242Y006355D03*
X005256Y006362D03*
X005256Y006025D03*
D68*
X005255Y006027D03*
X005255Y006028D03*
X005255Y006029D03*
X005255Y006030D03*
X005255Y006031D03*
X005255Y006032D03*
X005255Y006033D03*
X005255Y006034D03*
X005255Y006036D03*
X005255Y006036D03*
X005255Y006037D03*
X005255Y006039D03*
X005255Y006040D03*
X005255Y006040D03*
X005255Y006041D03*
X005255Y006043D03*
X005255Y006044D03*
X005255Y006044D03*
X005255Y006046D03*
X005255Y006047D03*
X005255Y006048D03*
X005255Y006049D03*
X005255Y006050D03*
X005255Y006051D03*
X005255Y006052D03*
X005255Y006053D03*
X005255Y006054D03*
X005255Y006056D03*
X005255Y006056D03*
X005255Y006057D03*
X005255Y006059D03*
X005255Y006060D03*
X005255Y006060D03*
X005255Y006061D03*
X005255Y006063D03*
X005255Y006064D03*
X005255Y006064D03*
X005255Y006066D03*
X005255Y006067D03*
X005255Y006068D03*
X005255Y006069D03*
X005255Y006070D03*
X005255Y006071D03*
X005255Y006072D03*
X005255Y006073D03*
X005255Y006074D03*
X005255Y006076D03*
X005255Y006076D03*
X005255Y006077D03*
X005255Y006079D03*
X005255Y006080D03*
X005255Y006080D03*
X005255Y006081D03*
X005255Y006083D03*
X005255Y006084D03*
X005255Y006084D03*
X005255Y006086D03*
X005255Y006087D03*
X005255Y006088D03*
X005255Y006089D03*
X005255Y006090D03*
X005255Y006091D03*
X005255Y006092D03*
X005255Y006093D03*
X005255Y006094D03*
X005255Y006096D03*
X005255Y006096D03*
X005255Y006097D03*
X005255Y006099D03*
X005255Y006100D03*
X005255Y006100D03*
X005255Y006101D03*
X005255Y006103D03*
X005255Y006104D03*
X005255Y006104D03*
X005255Y006106D03*
X005255Y006107D03*
X005255Y006108D03*
X005255Y006109D03*
X005255Y006110D03*
X005255Y006111D03*
X005255Y006112D03*
X005255Y006113D03*
X005255Y006114D03*
X005255Y006116D03*
X005255Y006116D03*
X005255Y006117D03*
X005255Y006119D03*
X005255Y006120D03*
X005255Y006120D03*
X005255Y006121D03*
X005255Y006123D03*
X005255Y006124D03*
X005255Y006124D03*
X005255Y006126D03*
X005255Y006127D03*
X005255Y006128D03*
X005255Y006129D03*
X005255Y006130D03*
X005255Y006131D03*
X005255Y006132D03*
X005255Y006133D03*
X005255Y006134D03*
X005255Y006136D03*
X005255Y006136D03*
X005255Y006137D03*
X005255Y006139D03*
X005255Y006140D03*
X005255Y006140D03*
X005255Y006141D03*
X005255Y006143D03*
X005255Y006144D03*
X005255Y006144D03*
X005255Y006146D03*
X005255Y006147D03*
X005255Y006148D03*
X005255Y006149D03*
X005255Y006150D03*
X005255Y006151D03*
X005255Y006152D03*
X005255Y006153D03*
X005255Y006154D03*
X005255Y006156D03*
X005255Y006156D03*
X005255Y006157D03*
X005255Y006159D03*
X005255Y006160D03*
X005255Y006160D03*
X005255Y006161D03*
X005255Y006163D03*
X005255Y006164D03*
X005255Y006164D03*
X005255Y006166D03*
X005255Y006167D03*
X005255Y006168D03*
X005255Y006169D03*
X005255Y006170D03*
X005255Y006171D03*
X005255Y006172D03*
X005255Y006173D03*
X005255Y006174D03*
X005255Y006176D03*
X005255Y006176D03*
X005255Y006177D03*
X005255Y006179D03*
X005255Y006180D03*
X005255Y006180D03*
X005255Y006181D03*
X005255Y006183D03*
X005255Y006184D03*
X005255Y006184D03*
X005255Y006186D03*
X005255Y006187D03*
X005255Y006188D03*
X005255Y006189D03*
X005255Y006190D03*
X005255Y006191D03*
X005255Y006192D03*
X005255Y006193D03*
X005255Y006194D03*
X005255Y006196D03*
X005255Y006196D03*
X005255Y006197D03*
X005255Y006199D03*
X005255Y006200D03*
X005255Y006200D03*
X005255Y006201D03*
X005255Y006203D03*
X005255Y006204D03*
X005255Y006204D03*
X005255Y006206D03*
X005255Y006207D03*
X005255Y006208D03*
X005255Y006209D03*
X005255Y006210D03*
X005255Y006211D03*
X005255Y006212D03*
X005255Y006213D03*
X005255Y006214D03*
X005255Y006216D03*
X005255Y006216D03*
X005255Y006217D03*
X005255Y006219D03*
X005255Y006220D03*
X005255Y006220D03*
X005255Y006221D03*
X005255Y006223D03*
X005255Y006224D03*
X005255Y006224D03*
X005255Y006226D03*
X005255Y006227D03*
X005255Y006228D03*
X005255Y006229D03*
X005255Y006230D03*
X005255Y006231D03*
X005255Y006232D03*
X005255Y006233D03*
X005255Y006234D03*
X005255Y006236D03*
X005255Y006236D03*
X005255Y006237D03*
X005255Y006239D03*
X005255Y006240D03*
X005255Y006240D03*
X005255Y006241D03*
X005255Y006243D03*
X005255Y006244D03*
X005255Y006244D03*
X005255Y006246D03*
X005255Y006247D03*
X005255Y006248D03*
X005255Y006249D03*
X005255Y006250D03*
X005255Y006251D03*
X005255Y006252D03*
X005255Y006253D03*
X005255Y006254D03*
X005255Y006256D03*
X005255Y006256D03*
X005255Y006257D03*
X005255Y006259D03*
X005255Y006260D03*
X005255Y006260D03*
X005255Y006261D03*
X005255Y006263D03*
X005255Y006264D03*
X005255Y006264D03*
X005255Y006266D03*
X005255Y006267D03*
X005255Y006268D03*
X005255Y006269D03*
X005255Y006270D03*
X005255Y006271D03*
X005255Y006272D03*
X005255Y006273D03*
X005255Y006274D03*
X005255Y006276D03*
X005255Y006276D03*
X005255Y006277D03*
X005255Y006279D03*
X005255Y006280D03*
X005255Y006280D03*
X005255Y006281D03*
X005255Y006283D03*
X005255Y006284D03*
X005255Y006284D03*
X005255Y006286D03*
X005255Y006287D03*
X005255Y006288D03*
X005255Y006289D03*
X005255Y006290D03*
X005255Y006291D03*
X005255Y006292D03*
X005255Y006293D03*
X005255Y006294D03*
X005255Y006296D03*
X005255Y006296D03*
X005255Y006297D03*
X005255Y006299D03*
X005255Y006300D03*
X005255Y006300D03*
X005255Y006301D03*
X005255Y006303D03*
X005255Y006304D03*
X005255Y006304D03*
X005255Y006306D03*
X005255Y006307D03*
X005255Y006308D03*
X005255Y006309D03*
X005255Y006310D03*
X005255Y006311D03*
X005255Y006312D03*
X005255Y006313D03*
X005255Y006314D03*
X005255Y006316D03*
X005255Y006316D03*
X005255Y006317D03*
X005255Y006319D03*
X005255Y006320D03*
X005255Y006320D03*
X005255Y006321D03*
X005255Y006323D03*
X005255Y006324D03*
X005255Y006324D03*
X005255Y006326D03*
X005255Y006327D03*
X005255Y006328D03*
X005255Y006329D03*
X005255Y006330D03*
X005255Y006331D03*
X005255Y006332D03*
X005255Y006333D03*
X005255Y006334D03*
X005255Y006336D03*
X005255Y006336D03*
X005255Y006337D03*
X005255Y006339D03*
X005255Y006340D03*
X005255Y006340D03*
X005255Y006341D03*
X005255Y006343D03*
X005255Y006344D03*
X005255Y006344D03*
X005255Y006346D03*
X005255Y006347D03*
X005255Y006348D03*
X005255Y006349D03*
X005255Y006350D03*
X005255Y006351D03*
X005255Y006352D03*
X005255Y006353D03*
X005255Y006354D03*
X005255Y006356D03*
X005255Y006356D03*
X005255Y006357D03*
X006242Y006353D03*
X006242Y006352D03*
X006242Y006351D03*
X006242Y006350D03*
X006242Y006349D03*
X006242Y006348D03*
X006242Y006347D03*
X006242Y006346D03*
X006242Y006344D03*
X006242Y006344D03*
X006242Y006343D03*
X006242Y006341D03*
X006242Y006340D03*
X006242Y006340D03*
X006242Y006339D03*
X006242Y006337D03*
X006242Y006336D03*
X006242Y006336D03*
X006242Y006334D03*
X006242Y006333D03*
X006242Y006332D03*
X006242Y006331D03*
X006242Y006330D03*
X006242Y006329D03*
X006242Y006328D03*
X006242Y006327D03*
X006242Y006326D03*
X006242Y006324D03*
X006242Y006324D03*
X006242Y006323D03*
X006242Y006321D03*
X006242Y006320D03*
X006242Y006320D03*
X006242Y006319D03*
X006242Y006317D03*
X006242Y006316D03*
X006242Y006316D03*
X006242Y006314D03*
X006242Y006313D03*
X006242Y006312D03*
X006242Y006311D03*
X006242Y006310D03*
X006242Y006309D03*
X006242Y006308D03*
X006242Y006307D03*
X006242Y006306D03*
X006242Y006304D03*
X006242Y006304D03*
X006242Y006303D03*
X006242Y006301D03*
X006242Y006300D03*
X006242Y006300D03*
X006242Y006299D03*
X006242Y006297D03*
X006242Y006296D03*
X006242Y006296D03*
X006242Y006294D03*
X006242Y006293D03*
X006242Y006292D03*
X006242Y006291D03*
X006242Y006290D03*
X006242Y006289D03*
X006242Y006288D03*
X006242Y006287D03*
X006242Y006286D03*
X006242Y006284D03*
X006242Y006284D03*
X006242Y006283D03*
X006242Y006281D03*
X006242Y006280D03*
X006242Y006280D03*
X006242Y006279D03*
X006242Y006277D03*
X006242Y006276D03*
X006242Y006276D03*
X006242Y006274D03*
X006242Y006273D03*
X006242Y006272D03*
X006242Y006271D03*
X006242Y006270D03*
X006242Y006269D03*
X006242Y006268D03*
X006242Y006267D03*
X006242Y006266D03*
X006242Y006264D03*
X006242Y006264D03*
X006242Y006263D03*
X006242Y006261D03*
X006242Y006260D03*
X006242Y006260D03*
X006242Y006259D03*
X006242Y006257D03*
X006242Y006256D03*
X006242Y006256D03*
X006242Y006254D03*
X006242Y006253D03*
X006242Y006252D03*
X006242Y006251D03*
X006242Y006250D03*
X006242Y006249D03*
X006242Y006248D03*
X006242Y006247D03*
X006242Y006246D03*
X006242Y006244D03*
X006242Y006244D03*
X006242Y006243D03*
X006242Y006241D03*
X006242Y006240D03*
X006242Y006240D03*
X006242Y006239D03*
X006242Y006237D03*
X006242Y006236D03*
X006242Y006236D03*
X006242Y006234D03*
X006242Y006233D03*
X006242Y006232D03*
X006242Y006231D03*
X006242Y006230D03*
X006242Y006229D03*
X006242Y006228D03*
X006242Y006227D03*
X006242Y006226D03*
X006242Y006224D03*
X006242Y006224D03*
X006242Y006223D03*
X006242Y006221D03*
X006242Y006220D03*
X006242Y006220D03*
X006242Y006219D03*
X006242Y006217D03*
X006242Y006216D03*
X006242Y006216D03*
X006242Y006214D03*
X006242Y006213D03*
X006242Y006212D03*
X006242Y006211D03*
X006242Y006210D03*
X006242Y006209D03*
X006242Y006208D03*
X006242Y006207D03*
X006242Y006206D03*
X006242Y006204D03*
X006242Y006204D03*
X006242Y006203D03*
X006242Y006201D03*
X006242Y006200D03*
X006242Y006200D03*
X006242Y006199D03*
X006242Y006197D03*
X006242Y006196D03*
X006242Y006196D03*
X006242Y006194D03*
X006242Y006193D03*
X006242Y006192D03*
X006242Y006191D03*
X006242Y006190D03*
X006242Y006189D03*
X006242Y006188D03*
X006242Y006187D03*
X006242Y006186D03*
X006242Y006184D03*
X006242Y006184D03*
X006242Y006183D03*
X006242Y006181D03*
X006242Y006180D03*
X006242Y006180D03*
X006242Y006179D03*
X006242Y006177D03*
X006242Y006176D03*
X006242Y006176D03*
X006242Y006174D03*
X006242Y006173D03*
X006242Y006172D03*
X006242Y006171D03*
X006242Y006170D03*
X006242Y006169D03*
X006242Y006168D03*
X006242Y006167D03*
X006242Y006166D03*
X006242Y006164D03*
X006242Y006164D03*
X006242Y006163D03*
X006242Y006161D03*
X006242Y006160D03*
X006242Y006160D03*
X006242Y006159D03*
X006242Y006157D03*
X006242Y006156D03*
X006242Y006156D03*
X006242Y006154D03*
X006242Y006153D03*
X006242Y006152D03*
X006242Y006151D03*
X006242Y006150D03*
X006242Y006149D03*
X006242Y006148D03*
X006242Y006147D03*
X006242Y006146D03*
X006242Y006144D03*
X006242Y006144D03*
X006242Y006143D03*
X006242Y006141D03*
X006242Y006140D03*
X006242Y006140D03*
X006242Y006139D03*
X006242Y006137D03*
X006242Y006136D03*
X006242Y006136D03*
X006242Y006134D03*
X006242Y006133D03*
X006242Y006132D03*
X006242Y006131D03*
X006242Y006130D03*
X006242Y006129D03*
X006242Y006128D03*
X006242Y006127D03*
X006242Y006126D03*
X006242Y006124D03*
X006242Y006124D03*
X006242Y006123D03*
X006242Y006121D03*
X006242Y006120D03*
X006242Y006120D03*
X006242Y006119D03*
X006242Y006117D03*
X006242Y006116D03*
X006242Y006116D03*
X006242Y006114D03*
X006242Y006113D03*
X006242Y006112D03*
X006242Y006111D03*
X006242Y006110D03*
X006242Y006109D03*
X006242Y006108D03*
X006242Y006107D03*
X006242Y006106D03*
X006242Y006104D03*
X006242Y006104D03*
X006242Y006103D03*
X006242Y006101D03*
X006242Y006100D03*
X006242Y006100D03*
X006242Y006099D03*
X006242Y006097D03*
X006242Y006096D03*
X006242Y006096D03*
X006242Y006094D03*
X006242Y006093D03*
X006242Y006092D03*
X006242Y006091D03*
X006242Y006090D03*
X006242Y006089D03*
X006242Y006088D03*
X006242Y006087D03*
X006242Y006086D03*
X006242Y006084D03*
X006242Y006084D03*
X006242Y006083D03*
X006242Y006081D03*
X006242Y006080D03*
X006242Y006080D03*
X006242Y006079D03*
X006242Y006077D03*
X006242Y006076D03*
X006242Y006076D03*
X006242Y006074D03*
X006242Y006073D03*
X006242Y006072D03*
X006242Y006071D03*
X006242Y006070D03*
X006242Y006069D03*
X006242Y006068D03*
X006242Y006067D03*
X006242Y006066D03*
X006242Y006064D03*
X006242Y006064D03*
X006242Y006063D03*
X006242Y006061D03*
X006242Y006060D03*
X006242Y006060D03*
X006242Y006059D03*
X006242Y006057D03*
X006242Y006056D03*
X006242Y006056D03*
X006242Y006054D03*
X006242Y006053D03*
X006242Y006052D03*
X006242Y006051D03*
X006242Y006050D03*
X006242Y006049D03*
X006242Y006048D03*
X006242Y006047D03*
X006242Y006046D03*
X006242Y006044D03*
X006242Y006044D03*
X006242Y006043D03*
X006242Y006041D03*
X006242Y006040D03*
X006242Y006040D03*
X006242Y006039D03*
X006242Y006037D03*
X006242Y006036D03*
X006242Y006036D03*
X006242Y006034D03*
X006242Y006033D03*
X006242Y006032D03*
X006242Y006031D03*
X006242Y006030D03*
X006242Y006029D03*
X006242Y006028D03*
X006242Y006027D03*
X006242Y006026D03*
D69*
X006242Y006028D03*
X006242Y006032D03*
X006242Y006035D03*
X006242Y006038D03*
X006242Y006042D03*
X006242Y006045D03*
X006242Y006048D03*
X006242Y006052D03*
X006242Y006055D03*
X006242Y006058D03*
X006242Y006062D03*
X006242Y006065D03*
X006242Y006068D03*
X006242Y006072D03*
X006242Y006075D03*
X006242Y006078D03*
X006242Y006082D03*
X006242Y006085D03*
X006242Y006088D03*
X006242Y006092D03*
X006242Y006095D03*
X006242Y006098D03*
X006242Y006102D03*
X006242Y006105D03*
X006242Y006108D03*
X006242Y006112D03*
X006242Y006115D03*
X006242Y006118D03*
X006242Y006122D03*
X006242Y006125D03*
X006242Y006128D03*
X006242Y006132D03*
X006242Y006135D03*
X006242Y006138D03*
X006242Y006142D03*
X006242Y006145D03*
X006242Y006148D03*
X006242Y006152D03*
X006242Y006155D03*
X006242Y006158D03*
X006242Y006162D03*
X006242Y006165D03*
X006242Y006168D03*
X006242Y006172D03*
X006242Y006175D03*
X006242Y006178D03*
X006242Y006182D03*
X006242Y006185D03*
X006242Y006188D03*
X006242Y006192D03*
X006242Y006195D03*
X006242Y006198D03*
X006242Y006202D03*
X006242Y006205D03*
X006242Y006208D03*
X006242Y006212D03*
X006242Y006215D03*
X006242Y006218D03*
X006242Y006222D03*
X006242Y006225D03*
X006242Y006228D03*
X006242Y006232D03*
X006242Y006235D03*
X006242Y006238D03*
X006242Y006242D03*
X006242Y006245D03*
X006242Y006248D03*
X006242Y006252D03*
X006242Y006255D03*
X006242Y006258D03*
X006242Y006262D03*
X006242Y006265D03*
X006242Y006268D03*
X006242Y006272D03*
X006242Y006275D03*
X006242Y006278D03*
X006242Y006282D03*
X006242Y006285D03*
X006242Y006288D03*
X006242Y006292D03*
X006242Y006295D03*
X006242Y006298D03*
X006242Y006302D03*
X006242Y006305D03*
X006242Y006308D03*
X006242Y006312D03*
X006242Y006315D03*
X006242Y006318D03*
X006242Y006322D03*
X006242Y006325D03*
X006242Y006328D03*
X006242Y006332D03*
X006242Y006335D03*
X006242Y006338D03*
X006242Y006342D03*
X006242Y006345D03*
X006242Y006348D03*
X006242Y006352D03*
X005255Y006352D03*
X005255Y006355D03*
X005255Y006358D03*
X005255Y006348D03*
X005255Y006345D03*
X005255Y006342D03*
X005255Y006338D03*
X005255Y006335D03*
X005255Y006332D03*
X005255Y006328D03*
X005255Y006325D03*
X005255Y006322D03*
X005255Y006318D03*
X005255Y006315D03*
X005255Y006312D03*
X005255Y006308D03*
X005255Y006305D03*
X005255Y006302D03*
X005255Y006298D03*
X005255Y006295D03*
X005255Y006292D03*
X005255Y006288D03*
X005255Y006285D03*
X005255Y006282D03*
X005255Y006278D03*
X005255Y006275D03*
X005255Y006272D03*
X005255Y006268D03*
X005255Y006265D03*
X005255Y006262D03*
X005255Y006258D03*
X005255Y006255D03*
X005255Y006252D03*
X005255Y006248D03*
X005255Y006245D03*
X005255Y006242D03*
X005255Y006238D03*
X005255Y006235D03*
X005255Y006232D03*
X005255Y006228D03*
X005255Y006225D03*
X005255Y006222D03*
X005255Y006218D03*
X005255Y006215D03*
X005255Y006212D03*
X005255Y006208D03*
X005255Y006205D03*
X005255Y006202D03*
X005255Y006198D03*
X005255Y006195D03*
X005255Y006192D03*
X005255Y006188D03*
X005255Y006185D03*
X005255Y006182D03*
X005255Y006178D03*
X005255Y006175D03*
X005255Y006172D03*
X005255Y006168D03*
X005255Y006165D03*
X005255Y006162D03*
X005255Y006158D03*
X005255Y006155D03*
X005255Y006152D03*
X005255Y006148D03*
X005255Y006145D03*
X005255Y006142D03*
X005255Y006138D03*
X005255Y006135D03*
X005255Y006132D03*
X005255Y006128D03*
X005255Y006125D03*
X005255Y006122D03*
X005255Y006118D03*
X005255Y006115D03*
X005255Y006112D03*
X005255Y006108D03*
X005255Y006105D03*
X005255Y006102D03*
X005255Y006098D03*
X005255Y006095D03*
X005255Y006092D03*
X005255Y006088D03*
X005255Y006085D03*
X005255Y006082D03*
X005255Y006078D03*
X005255Y006075D03*
X005255Y006072D03*
X005255Y006068D03*
X005255Y006065D03*
X005255Y006062D03*
X005255Y006058D03*
X005255Y006055D03*
X005255Y006052D03*
X005255Y006048D03*
X005255Y006045D03*
X005255Y006042D03*
X005255Y006038D03*
X005255Y006035D03*
X005255Y006032D03*
X005255Y006028D03*
D70*
X005255Y006363D03*
D71*
X006242Y006365D03*
D72*
X005256Y006365D03*
D73*
X006242Y006368D03*
D74*
X006242Y006368D03*
D75*
X005255Y006368D03*
D76*
X006242Y006370D03*
D77*
X006242Y006372D03*
D78*
X005256Y006372D03*
D79*
X006242Y006373D03*
D80*
X005256Y006373D03*
D81*
X006242Y006374D03*
D82*
X006242Y006375D03*
D83*
X005255Y006375D03*
D84*
X005255Y006380D03*
X006242Y006376D03*
D85*
X006242Y006376D03*
D86*
X005255Y006376D03*
D87*
X006242Y006377D03*
D88*
X006242Y006378D03*
D89*
X005256Y006378D03*
D90*
X006242Y006379D03*
D91*
X006242Y006380D03*
D92*
X005255Y006380D03*
D93*
X006242Y006381D03*
D94*
X006242Y006382D03*
D95*
X005256Y006382D03*
D96*
X006242Y006383D03*
D97*
X005256Y006383D03*
D98*
X006242Y006384D03*
D99*
X006242Y006384D03*
D100*
X006242Y006385D03*
D101*
X005255Y006385D03*
D102*
X006242Y006386D03*
D103*
X006242Y006387D03*
D104*
X005255Y006387D03*
D105*
X006242Y006388D03*
D106*
X006242Y006388D03*
D107*
X005255Y006388D03*
D108*
X006242Y006389D03*
D109*
X006240Y006390D03*
D110*
X005256Y006390D03*
D111*
X006240Y006391D03*
X006240Y006392D03*
X006240Y006393D03*
D112*
X006240Y006392D03*
D113*
X005256Y006392D03*
D114*
X005255Y006393D03*
D115*
X006241Y006394D03*
X006241Y006396D03*
D116*
X006241Y006395D03*
D117*
X005256Y006395D03*
D118*
X005249Y006396D03*
X005249Y006396D03*
X005249Y006397D03*
X006255Y006489D03*
X006255Y006490D03*
X006255Y006491D03*
D119*
X006241Y006399D03*
X006241Y006397D03*
X006241Y006396D03*
D120*
X006241Y006398D03*
D121*
X005249Y006398D03*
D122*
X005249Y006399D03*
X005249Y006400D03*
X005249Y006400D03*
X005249Y006401D03*
X006255Y006492D03*
X006255Y006493D03*
X006255Y006494D03*
D123*
X006242Y006401D03*
X006242Y006400D03*
X006242Y006400D03*
D124*
X006242Y006402D03*
D125*
X006256Y006495D03*
X005248Y006402D03*
D126*
X006242Y006403D03*
X006242Y006404D03*
D127*
X006256Y006496D03*
X006256Y006496D03*
X005248Y006404D03*
X005248Y006404D03*
X005248Y006403D03*
D128*
X006242Y006404D03*
X006242Y006406D03*
X006242Y006407D03*
D129*
X006242Y006405D03*
D130*
X006256Y006498D03*
X005248Y006405D03*
D131*
X005248Y006406D03*
X005248Y006407D03*
X005248Y006408D03*
X006256Y006497D03*
X006256Y006499D03*
D132*
X006243Y006409D03*
X006243Y006408D03*
D133*
X006243Y006408D03*
D134*
X006256Y006502D03*
X005248Y006412D03*
X005248Y006408D03*
D135*
X005248Y006409D03*
X005248Y006410D03*
X005248Y006411D03*
X006256Y006500D03*
X006256Y006500D03*
X006256Y006501D03*
D136*
X006243Y006412D03*
X006243Y006411D03*
X006243Y006410D03*
D137*
X006243Y006412D03*
D138*
X005247Y006413D03*
X005247Y006412D03*
X005247Y006414D03*
D139*
X006244Y006414D03*
X006244Y006413D03*
D140*
X006244Y006415D03*
D141*
X005247Y006415D03*
D142*
X006244Y006416D03*
X006244Y006416D03*
X006244Y006417D03*
D143*
X006257Y006506D03*
X006257Y006507D03*
X006257Y006508D03*
X005247Y006417D03*
X005247Y006416D03*
X005247Y006416D03*
D144*
X006244Y006418D03*
D145*
X006257Y006505D03*
X005247Y006418D03*
D146*
X006244Y006419D03*
X006244Y006420D03*
X006244Y006420D03*
D147*
X006258Y006509D03*
X006258Y006510D03*
X005246Y006421D03*
X005246Y006420D03*
X005246Y006420D03*
X005246Y006419D03*
D148*
X006245Y006421D03*
X006245Y006423D03*
D149*
X006245Y006422D03*
D150*
X006258Y006512D03*
X005246Y006422D03*
D151*
X005246Y006423D03*
X005246Y006424D03*
X005246Y006424D03*
X006258Y006511D03*
X006258Y006512D03*
D152*
X006245Y006426D03*
X006245Y006424D03*
X006245Y006424D03*
D153*
X006245Y006425D03*
D154*
X005246Y006425D03*
D155*
X005246Y006426D03*
X005246Y006427D03*
X005246Y006428D03*
D156*
X006246Y006428D03*
X006246Y006427D03*
D157*
X006246Y006428D03*
D158*
X006259Y006518D03*
X005245Y006432D03*
X005245Y006428D03*
D159*
X006246Y006429D03*
X006246Y006430D03*
X006246Y006431D03*
D160*
X006259Y006516D03*
X006259Y006517D03*
X005245Y006431D03*
X005245Y006430D03*
X005245Y006429D03*
D161*
X006246Y006432D03*
D162*
X006246Y006432D03*
X006246Y006433D03*
X006246Y006434D03*
D163*
X006259Y006519D03*
X006259Y006520D03*
X006259Y006520D03*
X006259Y006521D03*
X005245Y006434D03*
X005245Y006433D03*
X005245Y006432D03*
D164*
X006247Y006435D03*
D165*
X005245Y006435D03*
D166*
X006247Y006436D03*
X006247Y006436D03*
D167*
X006260Y006523D03*
X006260Y006524D03*
X005244Y006437D03*
X005244Y006436D03*
X005244Y006436D03*
D168*
X006247Y006437D03*
X006247Y006439D03*
X006247Y006440D03*
D169*
X006247Y006438D03*
D170*
X006260Y006522D03*
X005244Y006438D03*
D171*
X005244Y006439D03*
X005244Y006440D03*
X005244Y006440D03*
X005244Y006441D03*
D172*
X006248Y006440D03*
X006248Y006441D03*
D173*
X006248Y006442D03*
D174*
X006260Y006528D03*
X005244Y006442D03*
D175*
X006248Y006443D03*
X006248Y006444D03*
X006248Y006444D03*
D176*
X006260Y006527D03*
X006260Y006528D03*
X006260Y006529D03*
X005244Y006444D03*
X005244Y006444D03*
X005244Y006443D03*
D177*
X006248Y006445D03*
D178*
X006261Y006532D03*
X005243Y006445D03*
D179*
X006248Y006446D03*
X006248Y006447D03*
X006248Y006448D03*
D180*
X006261Y006530D03*
X006261Y006531D03*
X005243Y006448D03*
X005243Y006447D03*
X005243Y006446D03*
D181*
X006249Y006448D03*
D182*
X006261Y006535D03*
X005243Y006452D03*
X005243Y006448D03*
D183*
X006249Y006449D03*
X006249Y006450D03*
D184*
X006261Y006532D03*
X006261Y006533D03*
X006261Y006534D03*
X005243Y006451D03*
X005243Y006450D03*
X005243Y006449D03*
D185*
X006249Y006451D03*
X006249Y006452D03*
X006249Y006453D03*
D186*
X006249Y006452D03*
D187*
X005242Y006453D03*
X005242Y006452D03*
X005242Y006454D03*
D188*
X006250Y006454D03*
X006250Y006456D03*
D189*
X006250Y006455D03*
D190*
X005242Y006455D03*
D191*
X005242Y006456D03*
X005242Y006456D03*
X005242Y006457D03*
X006262Y006539D03*
X006262Y006540D03*
D192*
X006250Y006457D03*
X006250Y006456D03*
D193*
X006250Y006458D03*
D194*
X006262Y006538D03*
X005242Y006458D03*
D195*
X006250Y006459D03*
X006250Y006460D03*
X006250Y006460D03*
X006250Y006461D03*
D196*
X006262Y006540D03*
X006262Y006541D03*
X006262Y006543D03*
X005242Y006461D03*
X005242Y006460D03*
X005242Y006460D03*
X005242Y006459D03*
D197*
X006251Y006462D03*
D198*
X006263Y006545D03*
X005241Y006462D03*
D199*
X006251Y006463D03*
X006251Y006464D03*
D200*
X006263Y006544D03*
X006263Y006544D03*
X005241Y006464D03*
X005241Y006464D03*
X005241Y006463D03*
D201*
X006251Y006464D03*
X006251Y006466D03*
X006251Y006467D03*
D202*
X006251Y006465D03*
D203*
X006263Y006548D03*
X005241Y006465D03*
D204*
X005241Y006466D03*
X005241Y006467D03*
X005241Y006468D03*
X006263Y006546D03*
X006263Y006547D03*
X006263Y006548D03*
D205*
X006252Y006469D03*
X006252Y006468D03*
D206*
X006252Y006468D03*
D207*
X005240Y006468D03*
X005240Y006472D03*
D208*
X005240Y006471D03*
X005240Y006470D03*
X005240Y006469D03*
X006264Y006549D03*
X006264Y006550D03*
X006264Y006551D03*
D209*
X006252Y006471D03*
X006252Y006470D03*
D210*
X006252Y006472D03*
D211*
X006252Y006472D03*
X006252Y006473D03*
X006252Y006474D03*
D212*
X006264Y006552D03*
X006264Y006553D03*
X005240Y006474D03*
X005240Y006473D03*
X005240Y006472D03*
D213*
X006252Y006475D03*
D214*
X006264Y006552D03*
X005240Y006475D03*
D215*
X006253Y006476D03*
X006253Y006476D03*
X006253Y006477D03*
D216*
X006264Y006554D03*
X006264Y006556D03*
X006264Y006556D03*
X005240Y006477D03*
X005240Y006476D03*
X005240Y006476D03*
D217*
X006253Y006478D03*
D218*
X006264Y006555D03*
X005240Y006478D03*
D219*
X006253Y006479D03*
X006253Y006480D03*
X006253Y006480D03*
D220*
X006265Y006557D03*
X006265Y006559D03*
X005239Y006481D03*
X005239Y006480D03*
X005239Y006480D03*
X005239Y006479D03*
D221*
X006254Y006481D03*
X006254Y006483D03*
D222*
X006254Y006482D03*
D223*
X006265Y006562D03*
X005239Y006482D03*
D224*
X005239Y006483D03*
X005239Y006484D03*
X005239Y006484D03*
X006265Y006560D03*
X006265Y006560D03*
X006265Y006561D03*
D225*
X006254Y006484D03*
X006254Y006484D03*
D226*
X006254Y006485D03*
D227*
X005238Y006485D03*
D228*
X006254Y006486D03*
X006254Y006487D03*
X006254Y006488D03*
D229*
X006266Y006563D03*
X006266Y006564D03*
X006266Y006564D03*
X005238Y006488D03*
X005238Y006487D03*
X005238Y006486D03*
D230*
X006254Y006488D03*
D231*
X006266Y006565D03*
X005238Y006492D03*
X005238Y006488D03*
D232*
X005238Y006489D03*
X005238Y006490D03*
X005238Y006491D03*
X006266Y006566D03*
X006266Y006567D03*
X006266Y006568D03*
D233*
X006255Y006492D03*
D234*
X006266Y006569D03*
X006266Y006570D03*
X005238Y006494D03*
X005238Y006493D03*
X005238Y006492D03*
D235*
X005238Y006495D03*
X006266Y006568D03*
D236*
X005237Y006497D03*
X005237Y006496D03*
X005237Y006496D03*
D237*
X005237Y006498D03*
D238*
X005237Y006499D03*
X005237Y006500D03*
X005237Y006500D03*
X005237Y006501D03*
X006267Y006573D03*
X006267Y006574D03*
X006267Y006576D03*
D239*
X006268Y006578D03*
X005236Y006502D03*
D240*
X006257Y006503D03*
X006257Y006504D03*
X006257Y006504D03*
D241*
X006268Y006576D03*
X006268Y006577D03*
X005236Y006504D03*
X005236Y006504D03*
X005236Y006503D03*
D242*
X005236Y006505D03*
D243*
X005236Y006506D03*
X005236Y006507D03*
X005236Y006508D03*
X006268Y006579D03*
X006268Y006580D03*
X006268Y006580D03*
X006268Y006581D03*
D244*
X006258Y006508D03*
D245*
X005236Y006508D03*
X005236Y006512D03*
D246*
X005236Y006511D03*
X005236Y006510D03*
X005236Y006509D03*
D247*
X005235Y006512D03*
X005235Y006513D03*
X005235Y006514D03*
X006269Y006584D03*
X006269Y006586D03*
D248*
X006258Y006516D03*
X006258Y006514D03*
X006258Y006513D03*
D249*
X006258Y006515D03*
D250*
X006269Y006585D03*
X005235Y006515D03*
D251*
X005235Y006516D03*
X005235Y006516D03*
X005235Y006517D03*
X006269Y006587D03*
X006269Y006588D03*
X006269Y006589D03*
D252*
X006269Y006588D03*
X005235Y006518D03*
D253*
X005234Y006519D03*
X005234Y006520D03*
X005234Y006520D03*
X005234Y006521D03*
X006270Y006590D03*
X006270Y006591D03*
D254*
X005234Y006522D03*
D255*
X005234Y006523D03*
X005234Y006524D03*
X005234Y006524D03*
D256*
X006260Y006524D03*
X006260Y006526D03*
D257*
X006260Y006525D03*
D258*
X005234Y006525D03*
D259*
X005234Y006526D03*
X005234Y006527D03*
X005234Y006528D03*
X006270Y006596D03*
X006270Y006596D03*
X006270Y006597D03*
D260*
X006271Y006598D03*
X005233Y006532D03*
X005233Y006528D03*
D261*
X005233Y006529D03*
X005233Y006530D03*
X005233Y006531D03*
X006271Y006599D03*
X006271Y006600D03*
D262*
X006271Y006600D03*
X006271Y006601D03*
X006271Y006603D03*
X005233Y006534D03*
X005233Y006533D03*
X005233Y006532D03*
D263*
X005233Y006535D03*
X006271Y006602D03*
D264*
X006262Y006537D03*
X006262Y006536D03*
X006262Y006536D03*
D265*
X005232Y006537D03*
X005232Y006536D03*
X005232Y006536D03*
D266*
X005232Y006538D03*
D267*
X005232Y006539D03*
X005232Y006540D03*
X005232Y006540D03*
X005232Y006541D03*
X006272Y006606D03*
X006272Y006607D03*
X006272Y006608D03*
D268*
X006262Y006542D03*
D269*
X005232Y006542D03*
D270*
X005232Y006543D03*
X005232Y006544D03*
X005232Y006544D03*
X006272Y006609D03*
X006272Y006610D03*
X006272Y006611D03*
D271*
X006273Y006612D03*
X005231Y006545D03*
D272*
X005231Y006546D03*
X005231Y006547D03*
X005231Y006548D03*
X006273Y006612D03*
X006273Y006613D03*
D273*
X006273Y006615D03*
X005231Y006552D03*
X005231Y006548D03*
D274*
X005231Y006549D03*
X005231Y006550D03*
X005231Y006551D03*
X006273Y006614D03*
X006273Y006616D03*
X006273Y006616D03*
D275*
X006274Y006617D03*
X006274Y006619D03*
X005230Y006554D03*
X005230Y006553D03*
X005230Y006552D03*
D276*
X005230Y006555D03*
X006274Y006618D03*
D277*
X006274Y006620D03*
X006274Y006620D03*
X006274Y006621D03*
X005230Y006557D03*
X005230Y006556D03*
X005230Y006556D03*
D278*
X006265Y006558D03*
D279*
X006274Y006622D03*
X005230Y006558D03*
D280*
X005230Y006559D03*
X005230Y006560D03*
X005230Y006560D03*
X005230Y006561D03*
X006274Y006623D03*
X006274Y006624D03*
X006274Y006624D03*
D281*
X006275Y006625D03*
X005229Y006562D03*
D282*
X005229Y006563D03*
X005229Y006564D03*
X005229Y006564D03*
X006275Y006626D03*
X006275Y006627D03*
D283*
X006275Y006628D03*
X005229Y006565D03*
D284*
X005229Y006566D03*
X005229Y006567D03*
X005229Y006568D03*
X006275Y006628D03*
X006275Y006629D03*
X006275Y006630D03*
D285*
X006276Y006632D03*
X005228Y006572D03*
X005228Y006568D03*
D286*
X005228Y006569D03*
X005228Y006570D03*
X005228Y006571D03*
X006276Y006631D03*
X006276Y006632D03*
D287*
X006267Y006572D03*
X006267Y006571D03*
D288*
X006267Y006572D03*
D289*
X006276Y006633D03*
X006276Y006634D03*
X006276Y006636D03*
X005228Y006574D03*
X005228Y006573D03*
X005228Y006572D03*
D290*
X006267Y006575D03*
D291*
X006276Y006635D03*
X005228Y006575D03*
D292*
X005228Y006576D03*
X005228Y006576D03*
X005228Y006577D03*
X006276Y006636D03*
X006276Y006637D03*
D293*
X006276Y006638D03*
X005228Y006578D03*
D294*
X005227Y006579D03*
X005227Y006580D03*
X005227Y006580D03*
X005227Y006581D03*
D295*
X006268Y006582D03*
D296*
X006277Y006642D03*
X005227Y006582D03*
D297*
X006268Y006584D03*
X006268Y006583D03*
D298*
X006277Y006641D03*
X006277Y006643D03*
X006277Y006644D03*
X005227Y006584D03*
X005227Y006584D03*
X005227Y006583D03*
D299*
X005226Y006585D03*
X006278Y006645D03*
D300*
X006278Y006644D03*
X006278Y006646D03*
X005226Y006588D03*
X005226Y006587D03*
X005226Y006586D03*
D301*
X005226Y006588D03*
X005226Y006592D03*
X006278Y006648D03*
D302*
X006278Y006648D03*
X006278Y006647D03*
X006278Y006649D03*
X005226Y006591D03*
X005226Y006590D03*
X005226Y006589D03*
D303*
X006270Y006592D03*
D304*
X006270Y006592D03*
X006270Y006593D03*
X006270Y006594D03*
D305*
X005226Y006594D03*
X005226Y006593D03*
X005226Y006592D03*
D306*
X006270Y006595D03*
D307*
X005226Y006595D03*
D308*
X005225Y006596D03*
X005225Y006596D03*
X005225Y006597D03*
X006279Y006652D03*
X006279Y006653D03*
X006279Y006654D03*
D309*
X005225Y006598D03*
D310*
X005225Y006599D03*
X005225Y006600D03*
X005225Y006600D03*
X005225Y006601D03*
X006279Y006656D03*
X006279Y006656D03*
X006279Y006657D03*
D311*
X006280Y006658D03*
X005224Y006602D03*
D312*
X005224Y006603D03*
X005224Y006604D03*
X005224Y006604D03*
X006280Y006659D03*
X006280Y006660D03*
D313*
X006272Y006604D03*
X006272Y006604D03*
D314*
X006272Y006605D03*
D315*
X005224Y006605D03*
D316*
X005224Y006606D03*
X005224Y006607D03*
X005224Y006608D03*
D317*
X006272Y006608D03*
D318*
X006280Y006665D03*
X005224Y006612D03*
X005224Y006608D03*
D319*
X005224Y006609D03*
X005224Y006610D03*
X005224Y006611D03*
X006280Y006664D03*
X006280Y006664D03*
D320*
X006281Y006666D03*
X006281Y006667D03*
X006281Y006668D03*
X005223Y006614D03*
X005223Y006613D03*
X005223Y006612D03*
D321*
X005223Y006615D03*
D322*
X005223Y006616D03*
X005223Y006616D03*
X005223Y006617D03*
X006281Y006669D03*
X006281Y006670D03*
X006281Y006671D03*
D323*
X006281Y006668D03*
X005223Y006618D03*
D324*
X005222Y006619D03*
X005222Y006620D03*
X005222Y006620D03*
X005222Y006621D03*
D325*
X005222Y006622D03*
X006282Y006675D03*
D326*
X006282Y006676D03*
X006282Y006676D03*
X006282Y006674D03*
X005222Y006624D03*
X005222Y006624D03*
X005222Y006623D03*
D327*
X005222Y006625D03*
X006282Y006678D03*
D328*
X006282Y006677D03*
X006282Y006679D03*
X005222Y006628D03*
X005222Y006627D03*
X005222Y006626D03*
D329*
X005221Y006628D03*
X005221Y006632D03*
D330*
X005221Y006631D03*
X005221Y006630D03*
X005221Y006629D03*
X006283Y006680D03*
X006283Y006680D03*
X006283Y006681D03*
D331*
X006283Y006683D03*
X006283Y006684D03*
X006283Y006684D03*
X005221Y006634D03*
X005221Y006633D03*
X005221Y006632D03*
D332*
X005221Y006635D03*
X006283Y006682D03*
D333*
X006284Y006686D03*
X006284Y006687D03*
X005220Y006637D03*
X005220Y006636D03*
X005220Y006636D03*
D334*
X005220Y006638D03*
X006284Y006685D03*
D335*
X006277Y006640D03*
X006277Y006640D03*
X006277Y006639D03*
D336*
X006284Y006688D03*
X006284Y006689D03*
X006284Y006690D03*
X005220Y006641D03*
X005220Y006640D03*
X005220Y006640D03*
X005220Y006639D03*
D337*
X005220Y006642D03*
X006284Y006692D03*
D338*
X006284Y006692D03*
X006284Y006691D03*
X005220Y006644D03*
X005220Y006644D03*
X005220Y006643D03*
D339*
X005219Y006645D03*
X006285Y006695D03*
D340*
X006285Y006694D03*
X006285Y006693D03*
X005219Y006648D03*
X005219Y006647D03*
X005219Y006646D03*
D341*
X005219Y006648D03*
X005219Y006652D03*
X006285Y006698D03*
D342*
X006285Y006697D03*
X006285Y006696D03*
X006285Y006696D03*
X005219Y006651D03*
X005219Y006650D03*
X005219Y006649D03*
D343*
X006278Y006650D03*
X006278Y006651D03*
D344*
X006278Y006652D03*
D345*
X006286Y006699D03*
X006286Y006700D03*
X006286Y006700D03*
X005218Y006654D03*
X005218Y006653D03*
X005218Y006652D03*
D346*
X006279Y006655D03*
D347*
X005218Y006655D03*
D348*
X005218Y006656D03*
X005218Y006656D03*
X005218Y006657D03*
X006286Y006701D03*
X006286Y006703D03*
X006286Y006704D03*
D349*
X006286Y006702D03*
X005218Y006658D03*
D350*
X005218Y006659D03*
X005218Y006660D03*
X005218Y006660D03*
X005218Y006661D03*
X006286Y006704D03*
X006286Y006706D03*
D351*
X006280Y006663D03*
X006280Y006661D03*
X006280Y006660D03*
D352*
X006280Y006662D03*
D353*
X005217Y006662D03*
D354*
X005217Y006663D03*
X005217Y006664D03*
X005217Y006664D03*
D355*
X005217Y006665D03*
X006287Y006712D03*
D356*
X006287Y006711D03*
X006287Y006710D03*
X006287Y006709D03*
X005217Y006668D03*
X005217Y006667D03*
X005217Y006666D03*
D357*
X005216Y006668D03*
X005216Y006672D03*
D358*
X005216Y006671D03*
X005216Y006670D03*
X005216Y006669D03*
X006288Y006712D03*
X006288Y006713D03*
X006288Y006714D03*
D359*
X006282Y006672D03*
D360*
X006282Y006672D03*
X006282Y006673D03*
D361*
X006288Y006716D03*
X006288Y006716D03*
X006288Y006717D03*
X005216Y006674D03*
X005216Y006673D03*
X005216Y006672D03*
D362*
X005216Y006675D03*
X006288Y006715D03*
D363*
X005216Y006677D03*
X005216Y006676D03*
X005216Y006676D03*
D364*
X005216Y006678D03*
D365*
X005215Y006679D03*
X005215Y006680D03*
X005215Y006680D03*
X005215Y006681D03*
X006289Y006720D03*
X006289Y006721D03*
D366*
X006289Y006725D03*
X005215Y006682D03*
D367*
X005215Y006683D03*
X005215Y006684D03*
X005215Y006684D03*
X006289Y006723D03*
X006289Y006724D03*
X006289Y006724D03*
D368*
X005214Y006685D03*
D369*
X005214Y006686D03*
X005214Y006687D03*
X005214Y006688D03*
X006290Y006726D03*
X006290Y006727D03*
X006290Y006728D03*
D370*
X006284Y006688D03*
D371*
X005214Y006688D03*
X005214Y006692D03*
D372*
X005214Y006691D03*
X005214Y006690D03*
X005214Y006689D03*
D373*
X005214Y006692D03*
X005214Y006693D03*
X005214Y006694D03*
X006290Y006732D03*
X006290Y006733D03*
D374*
X006290Y006732D03*
X005214Y006695D03*
D375*
X005213Y006696D03*
X005213Y006696D03*
X005213Y006697D03*
X006291Y006734D03*
X006291Y006736D03*
D376*
X006291Y006735D03*
X005213Y006698D03*
D377*
X005213Y006699D03*
X005213Y006700D03*
X005213Y006700D03*
X005213Y006701D03*
X006291Y006736D03*
X006291Y006737D03*
X006291Y006739D03*
D378*
X005212Y006702D03*
D379*
X005212Y006703D03*
X005212Y006704D03*
X005212Y006704D03*
D380*
X006286Y006705D03*
D381*
X006292Y006742D03*
X005212Y006705D03*
D382*
X005212Y006706D03*
X005212Y006707D03*
X005212Y006708D03*
X006292Y006743D03*
X006292Y006744D03*
X006292Y006744D03*
D383*
X006287Y006708D03*
X006287Y006707D03*
D384*
X006287Y006708D03*
D385*
X006292Y006745D03*
X005212Y006712D03*
X005212Y006708D03*
D386*
X005212Y006709D03*
X005212Y006710D03*
X005212Y006711D03*
X006292Y006746D03*
X006292Y006747D03*
D387*
X006293Y006748D03*
X006293Y006749D03*
X005211Y006714D03*
X005211Y006713D03*
X005211Y006712D03*
D388*
X005211Y006715D03*
X006293Y006748D03*
D389*
X006293Y006750D03*
X006293Y006751D03*
X006293Y006752D03*
X005211Y006717D03*
X005211Y006716D03*
X005211Y006716D03*
D390*
X006288Y006718D03*
D391*
X006293Y006752D03*
X005211Y006718D03*
D392*
X006288Y006720D03*
X006288Y006719D03*
D393*
X006294Y006753D03*
X006294Y006754D03*
X005210Y006721D03*
X005210Y006720D03*
X005210Y006720D03*
X005210Y006719D03*
D394*
X006289Y006722D03*
D395*
X006294Y006758D03*
X005210Y006722D03*
D396*
X005210Y006723D03*
X005210Y006724D03*
X005210Y006724D03*
X006294Y006756D03*
X006294Y006756D03*
X006294Y006757D03*
D397*
X005210Y006725D03*
D398*
X005210Y006726D03*
X005210Y006727D03*
X005210Y006728D03*
X006294Y006759D03*
X006294Y006760D03*
X006294Y006760D03*
D399*
X006290Y006728D03*
D400*
X006295Y006762D03*
X005209Y006732D03*
X005209Y006728D03*
D401*
X006290Y006729D03*
X006290Y006730D03*
X006290Y006731D03*
D402*
X006295Y006761D03*
X006295Y006763D03*
X005209Y006731D03*
X005209Y006730D03*
X005209Y006729D03*
D403*
X005209Y006732D03*
X005209Y006733D03*
X005209Y006734D03*
X006295Y006764D03*
X006295Y006764D03*
X006295Y006766D03*
D404*
X006295Y006765D03*
X005209Y006735D03*
D405*
X005208Y006736D03*
X005208Y006736D03*
X005208Y006737D03*
X006296Y006767D03*
X006296Y006768D03*
D406*
X006291Y006738D03*
D407*
X006296Y006768D03*
X005208Y006738D03*
D408*
X005208Y006739D03*
X005208Y006740D03*
X005208Y006740D03*
X005208Y006741D03*
X006296Y006769D03*
X006296Y006770D03*
X006296Y006771D03*
D409*
X006292Y006741D03*
X006292Y006740D03*
X006292Y006740D03*
D410*
X005208Y006742D03*
D411*
X005208Y006743D03*
X005208Y006744D03*
X005208Y006744D03*
X006296Y006772D03*
X006296Y006773D03*
X006296Y006774D03*
D412*
X005207Y006745D03*
D413*
X005207Y006746D03*
X005207Y006747D03*
X005207Y006748D03*
D414*
X005207Y006748D03*
X005207Y006752D03*
X006297Y006778D03*
D415*
X006297Y006777D03*
X006297Y006779D03*
X006297Y006780D03*
X005207Y006751D03*
X005207Y006750D03*
X005207Y006749D03*
D416*
X005206Y006752D03*
X005206Y006753D03*
X005206Y006754D03*
X006298Y006780D03*
X006298Y006781D03*
D417*
X006294Y006755D03*
D418*
X006298Y006782D03*
X005206Y006755D03*
D419*
X005206Y006756D03*
X005206Y006756D03*
X005206Y006757D03*
X006298Y006783D03*
X006298Y006784D03*
X006298Y006784D03*
D420*
X006298Y006785D03*
X005206Y006758D03*
D421*
X005206Y006759D03*
X005206Y006760D03*
X005206Y006760D03*
X005206Y006761D03*
D422*
X005205Y006762D03*
X006299Y006788D03*
D423*
X006299Y006789D03*
X006299Y006790D03*
X005205Y006764D03*
X005205Y006764D03*
X005205Y006763D03*
D424*
X005205Y006765D03*
X006299Y006792D03*
D425*
X006299Y006792D03*
X006299Y006793D03*
X006299Y006791D03*
X005205Y006768D03*
X005205Y006767D03*
X005205Y006766D03*
D426*
X005204Y006768D03*
X005204Y006772D03*
X006300Y006795D03*
D427*
X006300Y006796D03*
X006300Y006794D03*
X005204Y006771D03*
X005204Y006770D03*
X005204Y006769D03*
D428*
X006296Y006772D03*
D429*
X005204Y006773D03*
X005204Y006772D03*
X005204Y006774D03*
D430*
X006297Y006775D03*
D431*
X005204Y006775D03*
D432*
X006297Y006776D03*
X006297Y006776D03*
D433*
X006300Y006800D03*
X006300Y006800D03*
X006300Y006801D03*
X005204Y006777D03*
X005204Y006776D03*
X005204Y006776D03*
D434*
X005204Y006778D03*
D435*
X005203Y006779D03*
X005203Y006780D03*
X005203Y006780D03*
X005203Y006781D03*
X006301Y006803D03*
X006301Y006804D03*
D436*
X006301Y006805D03*
X005203Y006782D03*
D437*
X005203Y006783D03*
X005203Y006784D03*
X005203Y006784D03*
X006301Y006804D03*
X006301Y006806D03*
X006301Y006807D03*
D438*
X005202Y006785D03*
D439*
X006298Y006786D03*
X006298Y006787D03*
X006298Y006788D03*
D440*
X005202Y006788D03*
X005202Y006787D03*
X005202Y006786D03*
D441*
X005202Y006788D03*
X005202Y006792D03*
X006302Y006812D03*
D442*
X006302Y006812D03*
X006302Y006811D03*
X006302Y006810D03*
X005202Y006791D03*
X005202Y006790D03*
X005202Y006789D03*
D443*
X005202Y006792D03*
X005202Y006793D03*
X005202Y006794D03*
X006302Y006813D03*
X006302Y006814D03*
D444*
X006302Y006815D03*
X005202Y006795D03*
D445*
X005201Y006796D03*
X005201Y006796D03*
X005201Y006797D03*
X006303Y006816D03*
X006303Y006816D03*
X006303Y006817D03*
D446*
X006300Y006799D03*
X006300Y006797D03*
X006300Y006796D03*
D447*
X006300Y006798D03*
D448*
X005201Y006798D03*
D449*
X005201Y006799D03*
X005201Y006800D03*
X005201Y006800D03*
X005201Y006801D03*
X006303Y006819D03*
X006303Y006820D03*
X006303Y006820D03*
D450*
X006301Y006802D03*
D451*
X006304Y006822D03*
X005200Y006802D03*
D452*
X005200Y006803D03*
X005200Y006804D03*
X005200Y006804D03*
X006304Y006821D03*
X006304Y006823D03*
D453*
X006304Y006825D03*
X005200Y006805D03*
D454*
X005200Y006806D03*
X005200Y006807D03*
X005200Y006808D03*
X006304Y006824D03*
X006304Y006824D03*
X006304Y006826D03*
D455*
X006302Y006809D03*
X006302Y006808D03*
D456*
X006302Y006808D03*
D457*
X006304Y006828D03*
X005200Y006812D03*
X005200Y006808D03*
D458*
X005200Y006809D03*
X005200Y006810D03*
X005200Y006811D03*
X006304Y006827D03*
X006304Y006828D03*
D459*
X006305Y006829D03*
X006305Y006830D03*
X006305Y006831D03*
X005199Y006814D03*
X005199Y006813D03*
X005199Y006812D03*
D460*
X005199Y006815D03*
D461*
X005199Y006816D03*
X005199Y006816D03*
X005199Y006817D03*
X006305Y006832D03*
X006305Y006833D03*
X006305Y006834D03*
D462*
X006303Y006818D03*
D463*
X006305Y006832D03*
X005199Y006818D03*
D464*
X005198Y006819D03*
X005198Y006820D03*
X005198Y006820D03*
X005198Y006821D03*
X006306Y006836D03*
X006306Y006836D03*
D465*
X006306Y006838D03*
X005198Y006822D03*
D466*
X005198Y006823D03*
X005198Y006824D03*
X005198Y006824D03*
X006306Y006837D03*
X006306Y006839D03*
X006306Y006840D03*
D467*
X006306Y006842D03*
X005198Y006825D03*
D468*
X005198Y006826D03*
X005198Y006827D03*
X005198Y006828D03*
X006306Y006840D03*
X006306Y006841D03*
D469*
X005197Y006832D03*
X005197Y006828D03*
D470*
X005197Y006829D03*
X005197Y006830D03*
X005197Y006831D03*
D471*
X005197Y006832D03*
X005197Y006833D03*
X005197Y006834D03*
X006307Y006846D03*
X006307Y006847D03*
X006307Y006848D03*
D472*
X006306Y006835D03*
D473*
X006307Y006845D03*
X005197Y006835D03*
D474*
X005196Y006836D03*
X005196Y006836D03*
X005196Y006837D03*
X006308Y006849D03*
X006308Y006850D03*
D475*
X006308Y006848D03*
X005196Y006838D03*
D476*
X005196Y006839D03*
X005196Y006840D03*
X005196Y006840D03*
X005196Y006841D03*
X006308Y006851D03*
X006308Y006852D03*
X006308Y006853D03*
D477*
X005196Y006842D03*
D478*
X006307Y006844D03*
X006307Y006844D03*
X006307Y006843D03*
D479*
X005196Y006844D03*
X005196Y006844D03*
X005196Y006843D03*
D480*
X005195Y006845D03*
X006309Y006858D03*
D481*
X006309Y006857D03*
X006309Y006856D03*
X005195Y006848D03*
X005195Y006847D03*
X005195Y006846D03*
D482*
X005195Y006848D03*
X005195Y006852D03*
D483*
X005195Y006851D03*
X005195Y006850D03*
X005195Y006849D03*
X006309Y006859D03*
X006309Y006860D03*
X006309Y006860D03*
X006309Y006861D03*
D484*
X006308Y006852D03*
D485*
X006310Y006863D03*
X006310Y006864D03*
X005194Y006854D03*
X005194Y006853D03*
X005194Y006852D03*
D486*
X006308Y006854D03*
X006308Y006856D03*
D487*
X006308Y006855D03*
D488*
X006310Y006862D03*
X005194Y006855D03*
D489*
X005194Y006856D03*
X005194Y006856D03*
X005194Y006857D03*
D490*
X005194Y006858D03*
D491*
X005194Y006859D03*
X005194Y006860D03*
X005194Y006860D03*
X005194Y006861D03*
X006310Y006868D03*
X006310Y006869D03*
D492*
X006311Y006872D03*
X005193Y006862D03*
D493*
X005193Y006863D03*
X005193Y006864D03*
X005193Y006864D03*
X006311Y006870D03*
X006311Y006871D03*
D494*
X006310Y006867D03*
X006310Y006866D03*
X006310Y006864D03*
D495*
X006310Y006865D03*
D496*
X006311Y006875D03*
X005193Y006865D03*
D497*
X005193Y006866D03*
X005193Y006867D03*
X005193Y006868D03*
X006311Y006872D03*
X006311Y006873D03*
X006311Y006874D03*
D498*
X006310Y006868D03*
D499*
X005192Y006868D03*
X005192Y006872D03*
D500*
X005192Y006871D03*
X005192Y006870D03*
X005192Y006869D03*
D501*
X005192Y006872D03*
X005192Y006873D03*
X005192Y006874D03*
X006312Y006879D03*
X006312Y006880D03*
X006312Y006880D03*
D502*
X006312Y006878D03*
X005192Y006875D03*
D503*
X006312Y006876D03*
X006312Y006876D03*
X006312Y006877D03*
D504*
X006312Y006881D03*
X006312Y006883D03*
X005192Y006877D03*
X005192Y006876D03*
X005192Y006876D03*
D505*
X005192Y006878D03*
X006312Y006882D03*
D506*
X006313Y006884D03*
X006313Y006884D03*
X005191Y006881D03*
X005191Y006880D03*
X005191Y006880D03*
X005191Y006879D03*
D507*
X005191Y006882D03*
X006313Y006888D03*
D508*
X006313Y006888D03*
X006313Y006887D03*
X006313Y006886D03*
X005191Y006884D03*
X005191Y006884D03*
X005191Y006883D03*
D509*
X006313Y006885D03*
D510*
X005190Y006885D03*
D511*
X005190Y006886D03*
X005190Y006887D03*
X005190Y006888D03*
X006314Y006889D03*
X006314Y006890D03*
X006314Y006891D03*
D512*
X006314Y006892D03*
X005190Y006892D03*
X005190Y006888D03*
D513*
X005190Y006889D03*
X005190Y006890D03*
X005190Y006891D03*
X006314Y006892D03*
X006314Y006893D03*
X006314Y006894D03*
D514*
X006314Y006896D03*
X006314Y006896D03*
X005190Y006894D03*
X005190Y006893D03*
X005190Y006892D03*
D515*
X005190Y006895D03*
X006314Y006895D03*
D516*
X006315Y006897D03*
X006315Y006899D03*
X005189Y006897D03*
X005189Y006896D03*
X005189Y006896D03*
D517*
X005189Y006898D03*
X006315Y006898D03*
D518*
X006315Y006900D03*
X006315Y006900D03*
X006315Y006901D03*
X005189Y006901D03*
X005189Y006900D03*
X005189Y006900D03*
X005189Y006899D03*
D519*
X006315Y006902D03*
D520*
X005188Y006902D03*
D521*
X005188Y006903D03*
X005188Y006904D03*
X005188Y006904D03*
X006316Y006904D03*
X006316Y006904D03*
X006316Y006903D03*
D522*
X006316Y006905D03*
X005188Y006905D03*
D523*
X005188Y006906D03*
X005188Y006907D03*
X005188Y006908D03*
X006316Y006908D03*
X006316Y006907D03*
X006316Y006906D03*
D524*
X006316Y006908D03*
X005188Y006908D03*
X005188Y006912D03*
D525*
X005188Y006911D03*
X005188Y006910D03*
X005188Y006909D03*
X006316Y006910D03*
X006316Y006909D03*
D526*
X006317Y006911D03*
X006317Y006912D03*
D527*
X006317Y006912D03*
D528*
X005187Y006913D03*
X005187Y006912D03*
X005187Y006914D03*
D529*
X005187Y006916D03*
X005187Y006916D03*
X005187Y006917D03*
X006317Y006916D03*
X006317Y006914D03*
X006317Y006913D03*
D530*
X006317Y006915D03*
X005187Y006918D03*
D531*
X005187Y006915D03*
D532*
X005186Y006919D03*
X005186Y006920D03*
X005186Y006920D03*
X005186Y006921D03*
X006318Y006917D03*
X006318Y006916D03*
D533*
X006318Y006918D03*
D534*
X006318Y006919D03*
X006318Y006920D03*
X006318Y006920D03*
X006318Y006921D03*
X005186Y006923D03*
X005186Y006924D03*
X005186Y006924D03*
D535*
X006318Y006922D03*
D536*
X005186Y006922D03*
D537*
X006318Y006924D03*
X006318Y006923D03*
D538*
X006319Y006924D03*
X006319Y006926D03*
X005185Y006929D03*
X005185Y006930D03*
X005185Y006931D03*
D539*
X005185Y006932D03*
X005185Y006928D03*
X006319Y006925D03*
D540*
X005186Y006925D03*
D541*
X005186Y006926D03*
X005186Y006927D03*
X005186Y006928D03*
D542*
X005185Y006932D03*
X005185Y006933D03*
X005185Y006934D03*
X006319Y006929D03*
X006319Y006928D03*
X006319Y006927D03*
D543*
X006319Y006928D03*
X005185Y006935D03*
D544*
X005184Y006936D03*
X005184Y006936D03*
X005184Y006937D03*
X006320Y006931D03*
X006320Y006930D03*
D545*
X006320Y006932D03*
X005184Y006938D03*
D546*
X006320Y006934D03*
X006320Y006933D03*
X006320Y006932D03*
D547*
X006320Y006935D03*
D548*
X006320Y006936D03*
X006320Y006936D03*
X006320Y006937D03*
X005184Y006943D03*
X005184Y006944D03*
X005184Y006944D03*
D549*
X005183Y006945D03*
X006321Y006938D03*
D550*
X006321Y006939D03*
X006321Y006940D03*
X005183Y006946D03*
X005183Y006947D03*
X005183Y006948D03*
D551*
X005184Y006941D03*
X005184Y006940D03*
X005184Y006940D03*
X005184Y006939D03*
D552*
X005183Y006949D03*
X005183Y006950D03*
X005183Y006951D03*
X006321Y006943D03*
X006321Y006941D03*
X006321Y006940D03*
D553*
X006321Y006942D03*
X005183Y006948D03*
X005183Y006952D03*
D554*
X005184Y006942D03*
D555*
X006322Y006944D03*
X006322Y006944D03*
D556*
X006322Y006945D03*
D557*
X006322Y006946D03*
X006322Y006947D03*
X006322Y006948D03*
X005182Y006956D03*
X005182Y006956D03*
X005182Y006957D03*
D558*
X005182Y006958D03*
X006322Y006948D03*
D559*
X006322Y006949D03*
X006322Y006950D03*
X006322Y006951D03*
X005182Y006959D03*
X005182Y006960D03*
X005182Y006960D03*
X005182Y006961D03*
D560*
X005181Y006962D03*
X006323Y006952D03*
D561*
X006323Y006952D03*
X006323Y006953D03*
X005181Y006963D03*
X005181Y006964D03*
X005181Y006964D03*
D562*
X005182Y006954D03*
X005182Y006953D03*
X005182Y006952D03*
D563*
X005181Y006966D03*
X005181Y006967D03*
X005181Y006968D03*
X006323Y006956D03*
X006323Y006956D03*
X006323Y006954D03*
D564*
X006323Y006955D03*
X005181Y006965D03*
D565*
X005182Y006955D03*
D566*
X005180Y006969D03*
X005180Y006970D03*
X005180Y006971D03*
X006324Y006959D03*
X006324Y006957D03*
D567*
X006324Y006958D03*
X005180Y006968D03*
X005180Y006972D03*
D568*
X005180Y006972D03*
X005180Y006973D03*
X005180Y006974D03*
X006324Y006961D03*
X006324Y006960D03*
X006324Y006960D03*
D569*
X006324Y006962D03*
X005180Y006975D03*
D570*
X005180Y006976D03*
X005180Y006976D03*
X005180Y006977D03*
X006324Y006964D03*
X006324Y006964D03*
X006324Y006963D03*
D571*
X006325Y006965D03*
D572*
X006325Y006966D03*
X006325Y006967D03*
X005179Y006979D03*
X005179Y006980D03*
X005179Y006980D03*
X005179Y006981D03*
D573*
X005179Y006983D03*
X005179Y006984D03*
X005179Y006984D03*
X006325Y006970D03*
X006325Y006969D03*
X006325Y006968D03*
D574*
X006325Y006968D03*
X005179Y006982D03*
D575*
X005178Y006986D03*
X005178Y006987D03*
X005178Y006988D03*
X006326Y006972D03*
X006326Y006971D03*
D576*
X006326Y006972D03*
X005178Y006985D03*
D577*
X005178Y006989D03*
X006326Y006976D03*
X006326Y006974D03*
X006326Y006973D03*
D578*
X006326Y006975D03*
X005178Y006988D03*
D579*
X006326Y006977D03*
X006326Y006976D03*
D580*
X006326Y006978D03*
D581*
X005180Y006978D03*
D582*
X006327Y006980D03*
X006327Y006980D03*
X006327Y006981D03*
X006327Y006979D03*
D583*
X006327Y006982D03*
D584*
X006327Y006983D03*
X006327Y006984D03*
D585*
X006328Y006984D03*
X006328Y006986D03*
D586*
X006328Y006985D03*
D587*
X006328Y006987D03*
X006328Y006988D03*
X006328Y006989D03*
D588*
X006328Y006988D03*
D589*
X006239Y006990D03*
X006239Y006991D03*
X006239Y006992D03*
X006239Y006993D03*
X006239Y006994D03*
X006239Y006996D03*
X006239Y006996D03*
X006239Y006997D03*
X006239Y006999D03*
X006239Y007000D03*
X006239Y007000D03*
X006239Y007001D03*
X006239Y007003D03*
X006239Y007004D03*
X006239Y007004D03*
X006239Y007006D03*
X006239Y007007D03*
X006239Y007008D03*
X006239Y007009D03*
X006239Y007010D03*
X006239Y007011D03*
X006239Y007012D03*
X006239Y007013D03*
X006239Y007014D03*
X006239Y007016D03*
X006239Y007016D03*
X006239Y007017D03*
X006239Y007019D03*
X006239Y007020D03*
X006239Y007020D03*
X006239Y007021D03*
X006239Y007023D03*
X006239Y007024D03*
X006239Y007024D03*
X006239Y007026D03*
X006239Y007027D03*
X006239Y007028D03*
X006239Y007029D03*
X006239Y007030D03*
X006239Y007031D03*
X005265Y007031D03*
X005265Y007030D03*
X005265Y007029D03*
X005265Y007028D03*
X005265Y007027D03*
X005265Y007026D03*
X005265Y007024D03*
X005265Y007024D03*
X005265Y007023D03*
X005265Y007021D03*
X005265Y007020D03*
X005265Y007020D03*
X005265Y007019D03*
X005265Y007017D03*
X005265Y007016D03*
X005265Y007016D03*
X005265Y007014D03*
X005265Y007013D03*
X005265Y007012D03*
X005265Y007011D03*
X005265Y007010D03*
X005265Y007009D03*
X005265Y007008D03*
X005265Y007007D03*
X005265Y007006D03*
X005265Y007004D03*
X005265Y007004D03*
X005265Y007003D03*
X005265Y007001D03*
X005265Y007000D03*
X005265Y007000D03*
X005265Y006999D03*
X005265Y006997D03*
X005265Y006996D03*
X005265Y006996D03*
X005265Y006994D03*
X005265Y006993D03*
X005265Y006992D03*
X005265Y006991D03*
X005265Y006990D03*
D590*
X005265Y006992D03*
X005265Y006995D03*
X005265Y006998D03*
X005265Y007002D03*
X005265Y007005D03*
X005265Y007008D03*
X005265Y007012D03*
X005265Y007015D03*
X005265Y007018D03*
X005265Y007022D03*
X005265Y007025D03*
X005265Y007028D03*
X006239Y007028D03*
X006239Y007025D03*
X006239Y007022D03*
X006239Y007018D03*
X006239Y007015D03*
X006239Y007012D03*
X006239Y007008D03*
X006239Y007005D03*
X006239Y007002D03*
X006239Y006998D03*
X006239Y006995D03*
X006239Y006992D03*
D591*
X005752Y007032D03*
X005752Y007035D03*
X005752Y007038D03*
X005752Y007042D03*
X005752Y007045D03*
X005752Y007048D03*
X005752Y007052D03*
X005752Y007055D03*
X005752Y007058D03*
X005752Y007062D03*
X005752Y007272D03*
X005752Y007275D03*
X005752Y007278D03*
X005752Y007282D03*
X005752Y007285D03*
X005752Y007288D03*
X005752Y007292D03*
X005752Y007295D03*
X005752Y007298D03*
X005752Y007302D03*
X005752Y007305D03*
X005752Y007308D03*
X005752Y007312D03*
X005752Y007315D03*
X005752Y007318D03*
X005752Y007322D03*
X005752Y007325D03*
D592*
X005752Y007324D03*
X005752Y007324D03*
X005752Y007323D03*
X005752Y007321D03*
X005752Y007320D03*
X005752Y007320D03*
X005752Y007319D03*
X005752Y007317D03*
X005752Y007316D03*
X005752Y007316D03*
X005752Y007314D03*
X005752Y007313D03*
X005752Y007312D03*
X005752Y007311D03*
X005752Y007310D03*
X005752Y007309D03*
X005752Y007308D03*
X005752Y007307D03*
X005752Y007306D03*
X005752Y007304D03*
X005752Y007304D03*
X005752Y007303D03*
X005752Y007301D03*
X005752Y007300D03*
X005752Y007300D03*
X005752Y007299D03*
X005752Y007297D03*
X005752Y007296D03*
X005752Y007296D03*
X005752Y007294D03*
X005752Y007293D03*
X005752Y007292D03*
X005752Y007291D03*
X005752Y007290D03*
X005752Y007289D03*
X005752Y007288D03*
X005752Y007287D03*
X005752Y007286D03*
X005752Y007284D03*
X005752Y007284D03*
X005752Y007283D03*
X005752Y007281D03*
X005752Y007280D03*
X005752Y007280D03*
X005752Y007279D03*
X005752Y007277D03*
X005752Y007276D03*
X005752Y007276D03*
X005752Y007274D03*
X005752Y007273D03*
X005752Y007272D03*
X005752Y007271D03*
X005752Y007270D03*
X005752Y007326D03*
X005752Y007327D03*
X005752Y007328D03*
X005752Y007064D03*
X005752Y007063D03*
X005752Y007061D03*
X005752Y007060D03*
X005752Y007060D03*
X005752Y007059D03*
X005752Y007057D03*
X005752Y007056D03*
X005752Y007056D03*
X005752Y007054D03*
X005752Y007053D03*
X005752Y007052D03*
X005752Y007051D03*
X005752Y007050D03*
X005752Y007049D03*
X005752Y007048D03*
X005752Y007047D03*
X005752Y007046D03*
X005752Y007044D03*
X005752Y007044D03*
X005752Y007043D03*
X005752Y007041D03*
X005752Y007040D03*
X005752Y007040D03*
X005752Y007039D03*
X005752Y007037D03*
X005752Y007036D03*
X005752Y007036D03*
X005752Y007034D03*
X005752Y007033D03*
X005752Y007032D03*
D593*
X006189Y007064D03*
X006189Y007066D03*
X006189Y007067D03*
X006189Y007068D03*
X006189Y007069D03*
X006189Y007070D03*
X006189Y007071D03*
X006189Y007072D03*
X006189Y007073D03*
X006189Y007074D03*
X006189Y007076D03*
X006189Y007076D03*
X006189Y007077D03*
X006189Y007079D03*
X006189Y007080D03*
X006189Y007080D03*
X006189Y007081D03*
X006189Y007083D03*
X006189Y007084D03*
X006189Y007084D03*
X006189Y007086D03*
X006189Y007087D03*
X006189Y007088D03*
X006189Y007089D03*
X006189Y007090D03*
X006189Y007091D03*
X006189Y007092D03*
X006189Y007093D03*
X006189Y007094D03*
X006189Y007096D03*
X006189Y007096D03*
X006189Y007097D03*
X006189Y007099D03*
X006189Y007100D03*
X006189Y007100D03*
X006189Y007101D03*
X006189Y007103D03*
X006189Y007104D03*
X006189Y007104D03*
X006189Y007106D03*
X006189Y007107D03*
X006189Y007108D03*
X006189Y007109D03*
X006189Y007110D03*
X006189Y007111D03*
X006189Y007112D03*
X006189Y007113D03*
X006189Y007114D03*
X006189Y007116D03*
X006189Y007116D03*
X006189Y007117D03*
X006189Y007119D03*
X006189Y007120D03*
X006189Y007120D03*
X006189Y007121D03*
X006189Y007123D03*
X006189Y007124D03*
X006189Y007124D03*
X006189Y007126D03*
X006189Y007127D03*
X006189Y007128D03*
X006189Y007129D03*
X006189Y007130D03*
X006189Y007131D03*
X006189Y007132D03*
X006189Y007133D03*
X006189Y007134D03*
X006189Y007136D03*
X006189Y007136D03*
X006189Y007137D03*
X006189Y007139D03*
X006189Y007140D03*
X006189Y007140D03*
X006189Y007141D03*
X006189Y007143D03*
X006189Y007144D03*
X006189Y007144D03*
X006189Y007146D03*
X006189Y007147D03*
X006189Y007148D03*
X006189Y007149D03*
X006189Y007150D03*
X006189Y007151D03*
X006189Y007152D03*
X006189Y007153D03*
X006189Y007154D03*
X006189Y007156D03*
X006189Y007156D03*
X006189Y007157D03*
X006189Y007159D03*
X006189Y007160D03*
X006189Y007160D03*
X006189Y007161D03*
X006189Y007163D03*
X006189Y007164D03*
X006189Y007164D03*
X006189Y007166D03*
X006189Y007167D03*
X006189Y007168D03*
X006189Y007169D03*
X006189Y007170D03*
X006189Y007171D03*
X006189Y007172D03*
X006189Y007173D03*
X006189Y007174D03*
X006189Y007176D03*
X006189Y007176D03*
X006189Y007177D03*
X006189Y007179D03*
X006189Y007180D03*
X006189Y007180D03*
X006189Y007181D03*
X006189Y007183D03*
X006189Y007184D03*
X006189Y007184D03*
X006189Y007186D03*
X006189Y007187D03*
X006189Y007188D03*
X006189Y007189D03*
X006189Y007190D03*
X006189Y007191D03*
X006189Y007192D03*
X006189Y007193D03*
X006189Y007194D03*
X006189Y007196D03*
X006189Y007196D03*
X006189Y007197D03*
X006189Y007199D03*
X006189Y007200D03*
X006189Y007200D03*
X006189Y007201D03*
X006189Y007203D03*
X006189Y007204D03*
X006189Y007204D03*
X006189Y007206D03*
X006189Y007207D03*
X006189Y007208D03*
X006189Y007209D03*
X006189Y007210D03*
X006189Y007211D03*
X006189Y007212D03*
X006189Y007213D03*
X006189Y007214D03*
X006189Y007216D03*
X006189Y007216D03*
X006189Y007217D03*
X006189Y007219D03*
X006189Y007220D03*
X006189Y007220D03*
X006189Y007221D03*
X006189Y007223D03*
X006189Y007224D03*
X006189Y007224D03*
X006189Y007226D03*
X006189Y007227D03*
X006189Y007228D03*
X006189Y007229D03*
X006189Y007230D03*
X006189Y007231D03*
X006189Y007232D03*
X006189Y007233D03*
X006189Y007234D03*
X006189Y007236D03*
X006189Y007236D03*
X006189Y007237D03*
X006189Y007239D03*
X006189Y007240D03*
X006189Y007240D03*
X006189Y007241D03*
X006189Y007243D03*
X006189Y007244D03*
X006189Y007244D03*
X006189Y007246D03*
X006189Y007247D03*
X006189Y007248D03*
X006189Y007249D03*
X006189Y007250D03*
X006189Y007251D03*
X006189Y007252D03*
X006189Y007253D03*
X006189Y007254D03*
X006189Y007256D03*
X006189Y007256D03*
X006189Y007257D03*
X006189Y007259D03*
X006189Y007260D03*
X006189Y007260D03*
X006189Y007261D03*
X006189Y007263D03*
X006189Y007264D03*
X006189Y007264D03*
X006189Y007266D03*
X006189Y007267D03*
X006189Y007268D03*
X006189Y007269D03*
D594*
X005302Y007269D03*
X005302Y007268D03*
X005302Y007267D03*
X005302Y007266D03*
X005302Y007264D03*
X005302Y007264D03*
X005302Y007263D03*
X005302Y007261D03*
X005302Y007260D03*
X005302Y007260D03*
X005302Y007259D03*
X005302Y007257D03*
X005302Y007256D03*
X005302Y007256D03*
X005302Y007254D03*
X005302Y007253D03*
X005302Y007252D03*
X005302Y007251D03*
X005302Y007250D03*
X005302Y007249D03*
X005302Y007248D03*
X005302Y007247D03*
X005302Y007246D03*
X005302Y007244D03*
X005302Y007244D03*
X005302Y007243D03*
X005302Y007241D03*
X005302Y007240D03*
X005302Y007240D03*
X005302Y007239D03*
X005302Y007237D03*
X005302Y007236D03*
X005302Y007236D03*
X005302Y007234D03*
X005302Y007233D03*
X005302Y007232D03*
X005302Y007231D03*
X005302Y007230D03*
X005302Y007229D03*
X005302Y007228D03*
X005302Y007227D03*
X005302Y007226D03*
X005302Y007224D03*
X005302Y007224D03*
X005302Y007223D03*
X005302Y007221D03*
X005302Y007220D03*
X005302Y007220D03*
X005302Y007219D03*
X005302Y007217D03*
X005302Y007216D03*
X005302Y007216D03*
X005302Y007214D03*
X005302Y007213D03*
X005302Y007212D03*
X005302Y007211D03*
X005302Y007210D03*
X005302Y007209D03*
X005302Y007208D03*
X005302Y007207D03*
X005302Y007206D03*
X005302Y007204D03*
X005302Y007204D03*
X005302Y007203D03*
X005302Y007201D03*
X005302Y007200D03*
X005302Y007200D03*
X005302Y007199D03*
X005302Y007197D03*
X005302Y007196D03*
X005302Y007196D03*
X005302Y007194D03*
X005302Y007193D03*
X005302Y007192D03*
X005302Y007191D03*
X005302Y007190D03*
X005302Y007189D03*
X005302Y007188D03*
X005302Y007187D03*
X005302Y007186D03*
X005302Y007184D03*
X005302Y007184D03*
X005302Y007183D03*
X005302Y007181D03*
X005302Y007180D03*
X005302Y007180D03*
X005302Y007179D03*
X005302Y007177D03*
X005302Y007176D03*
X005302Y007176D03*
X005302Y007174D03*
X005302Y007173D03*
X005302Y007172D03*
X005302Y007171D03*
X005302Y007170D03*
X005302Y007169D03*
X005302Y007168D03*
X005302Y007167D03*
X005302Y007166D03*
X005302Y007164D03*
X005302Y007164D03*
X005302Y007163D03*
X005302Y007161D03*
X005302Y007160D03*
X005302Y007160D03*
X005302Y007159D03*
X005302Y007157D03*
X005302Y007156D03*
X005302Y007156D03*
X005302Y007154D03*
X005302Y007153D03*
X005302Y007152D03*
X005302Y007151D03*
X005302Y007150D03*
X005302Y007149D03*
X005302Y007148D03*
X005302Y007147D03*
X005302Y007146D03*
X005302Y007144D03*
X005302Y007144D03*
X005302Y007143D03*
X005302Y007141D03*
X005302Y007140D03*
X005302Y007140D03*
X005302Y007139D03*
X005302Y007137D03*
X005302Y007136D03*
X005302Y007136D03*
X005302Y007134D03*
X005302Y007133D03*
X005302Y007132D03*
X005302Y007131D03*
X005302Y007130D03*
X005302Y007129D03*
X005302Y007128D03*
X005302Y007127D03*
X005302Y007126D03*
X005302Y007124D03*
X005302Y007124D03*
X005302Y007123D03*
X005302Y007121D03*
X005302Y007120D03*
X005302Y007120D03*
X005302Y007119D03*
X005302Y007117D03*
X005302Y007116D03*
X005302Y007116D03*
X005302Y007114D03*
X005302Y007113D03*
X005302Y007112D03*
X005302Y007111D03*
X005302Y007110D03*
X005302Y007109D03*
X005302Y007108D03*
X005302Y007107D03*
X005302Y007106D03*
X005302Y007104D03*
X005302Y007104D03*
X005302Y007103D03*
X005302Y007101D03*
X005302Y007100D03*
X005302Y007100D03*
X005302Y007099D03*
X005302Y007097D03*
X005302Y007096D03*
X005302Y007096D03*
X005302Y007094D03*
X005302Y007093D03*
X005302Y007092D03*
X005302Y007091D03*
X005302Y007090D03*
X005302Y007089D03*
X005302Y007088D03*
X005302Y007087D03*
X005302Y007086D03*
X005302Y007084D03*
X005302Y007084D03*
X005302Y007083D03*
X005302Y007081D03*
X005302Y007080D03*
X005302Y007080D03*
X005302Y007079D03*
X005302Y007077D03*
X005302Y007076D03*
X005302Y007076D03*
X005302Y007074D03*
X005302Y007073D03*
X005302Y007072D03*
X005302Y007071D03*
X005302Y007070D03*
X005302Y007069D03*
X005302Y007068D03*
X005302Y007067D03*
X005302Y007066D03*
X005302Y007064D03*
D595*
X006189Y007065D03*
X006189Y007068D03*
X006189Y007072D03*
X006189Y007075D03*
X006189Y007078D03*
X006189Y007082D03*
X006189Y007085D03*
X006189Y007088D03*
X006189Y007092D03*
X006189Y007095D03*
X006189Y007098D03*
X006189Y007102D03*
X006189Y007105D03*
X006189Y007108D03*
X006189Y007112D03*
X006189Y007115D03*
X006189Y007118D03*
X006189Y007122D03*
X006189Y007125D03*
X006189Y007128D03*
X006189Y007132D03*
X006189Y007135D03*
X006189Y007138D03*
X006189Y007142D03*
X006189Y007145D03*
X006189Y007148D03*
X006189Y007152D03*
X006189Y007155D03*
X006189Y007158D03*
X006189Y007162D03*
X006189Y007165D03*
X006189Y007168D03*
X006189Y007172D03*
X006189Y007175D03*
X006189Y007178D03*
X006189Y007182D03*
X006189Y007185D03*
X006189Y007188D03*
X006189Y007192D03*
X006189Y007195D03*
X006189Y007198D03*
X006189Y007202D03*
X006189Y007205D03*
X006189Y007208D03*
X006189Y007212D03*
X006189Y007215D03*
X006189Y007218D03*
X006189Y007222D03*
X006189Y007225D03*
X006189Y007228D03*
X006189Y007232D03*
X006189Y007235D03*
X006189Y007238D03*
X006189Y007242D03*
X006189Y007245D03*
X006189Y007248D03*
X006189Y007252D03*
X006189Y007255D03*
X006189Y007258D03*
X006189Y007262D03*
X006189Y007265D03*
X006189Y007268D03*
D596*
X005302Y007268D03*
X005302Y007265D03*
X005302Y007262D03*
X005302Y007258D03*
X005302Y007255D03*
X005302Y007252D03*
X005302Y007248D03*
X005302Y007245D03*
X005302Y007242D03*
X005302Y007238D03*
X005302Y007235D03*
X005302Y007232D03*
X005302Y007228D03*
X005302Y007225D03*
X005302Y007222D03*
X005302Y007218D03*
X005302Y007215D03*
X005302Y007212D03*
X005302Y007208D03*
X005302Y007205D03*
X005302Y007202D03*
X005302Y007198D03*
X005302Y007195D03*
X005302Y007192D03*
X005302Y007188D03*
X005302Y007185D03*
X005302Y007182D03*
X005302Y007178D03*
X005302Y007175D03*
X005302Y007172D03*
X005302Y007168D03*
X005302Y007165D03*
X005302Y007162D03*
X005302Y007158D03*
X005302Y007155D03*
X005302Y007152D03*
X005302Y007148D03*
X005302Y007145D03*
X005302Y007142D03*
X005302Y007138D03*
X005302Y007135D03*
X005302Y007132D03*
X005302Y007128D03*
X005302Y007125D03*
X005302Y007122D03*
X005302Y007118D03*
X005302Y007115D03*
X005302Y007112D03*
X005302Y007108D03*
X005302Y007105D03*
X005302Y007102D03*
X005302Y007098D03*
X005302Y007095D03*
X005302Y007092D03*
X005302Y007088D03*
X005302Y007085D03*
X005302Y007082D03*
X005302Y007078D03*
X005302Y007075D03*
X005302Y007072D03*
X005302Y007068D03*
X005302Y007065D03*
D597*
X005752Y007328D03*
D598*
X005752Y007329D03*
D599*
X005752Y007330D03*
X005752Y007331D03*
X005752Y007332D03*
X005752Y007333D03*
X005752Y007334D03*
D600*
X005752Y007335D03*
X005752Y007332D03*
D601*
X005752Y007336D03*
D602*
X005752Y007336D03*
X005752Y007337D03*
X005752Y007339D03*
X005752Y007340D03*
D603*
X005752Y007338D03*
D604*
X005752Y007340D03*
X005752Y007341D03*
D605*
X005752Y007342D03*
D606*
X005752Y007343D03*
X005752Y007344D03*
X005752Y007344D03*
D607*
X005752Y007345D03*
D608*
X005752Y007346D03*
D609*
X005752Y007347D03*
X005752Y007348D03*
D610*
X005752Y007348D03*
D611*
X005752Y007349D03*
X005752Y007350D03*
D612*
X005752Y007351D03*
X005752Y007352D03*
D613*
X005752Y007352D03*
D614*
X005752Y007353D03*
X005752Y007354D03*
D615*
X005752Y007355D03*
D616*
X005752Y007356D03*
X005752Y007356D03*
D617*
X005752Y007357D03*
D618*
X005752Y007358D03*
D619*
X005752Y007359D03*
X005752Y007360D03*
X005752Y007360D03*
D620*
X005752Y007361D03*
X005752Y007363D03*
X005752Y007364D03*
D621*
X005752Y007362D03*
D622*
X005752Y007364D03*
X005752Y007366D03*
X005752Y007367D03*
D623*
X005752Y007365D03*
D624*
X005752Y007368D03*
X005752Y007369D03*
X005752Y007370D03*
D625*
X005752Y007368D03*
D626*
X005752Y007371D03*
X005752Y007372D03*
X005752Y007373D03*
D627*
X005752Y007372D03*
D628*
X005752Y007374D03*
X005752Y007376D03*
D629*
X005752Y007375D03*
D630*
X005752Y007376D03*
D631*
X005752Y007377D03*
D632*
X005752Y007378D03*
D633*
X005752Y007379D03*
D634*
X005752Y007380D03*
X005752Y007380D03*
X005752Y007381D03*
D635*
X005752Y007382D03*
D636*
X005752Y007383D03*
X005752Y007384D03*
D637*
X005752Y007384D03*
D638*
X005752Y007385D03*
D639*
X005752Y007386D03*
D640*
X005752Y007387D03*
D641*
X005752Y007388D03*
D642*
X005752Y007388D03*
D643*
X005752Y007389D03*
D644*
X005752Y007390D03*
D645*
X005752Y007391D03*
D646*
X005752Y007392D03*
D647*
X005752Y007392D03*
D648*
X005752Y007393D03*
D649*
X005752Y007394D03*
D650*
X005752Y007395D03*
D651*
X005752Y007396D03*
D652*
X005752Y007396D03*
D653*
X005752Y007397D03*
D654*
X005752Y007398D03*
D655*
X005752Y007399D03*
D656*
X005752Y007400D03*
D657*
X005752Y007400D03*
D658*
X005752Y007401D03*
D659*
X005752Y007402D03*
D660*
X005752Y007403D03*
D661*
X005752Y007404D03*
D662*
X005752Y007404D03*
D663*
X005752Y007405D03*
D664*
X005752Y007406D03*
D665*
X005752Y007407D03*
D666*
X005752Y007408D03*
D667*
X005752Y007408D03*
D668*
X005752Y007409D03*
D669*
X005752Y007410D03*
D670*
X005752Y007411D03*
D671*
X005752Y007412D03*
D672*
X005752Y007412D03*
D673*
X005752Y007413D03*
D674*
X005752Y007414D03*
D675*
X005752Y007415D03*
D676*
X005752Y007416D03*
D677*
X005752Y007416D03*
D678*
X005752Y007417D03*
D679*
X005752Y007418D03*
D680*
X005752Y007419D03*
D681*
X005752Y007420D03*
D682*
X005752Y007420D03*
D683*
X005752Y007421D03*
D684*
X005752Y007422D03*
D685*
X005752Y007423D03*
D686*
X005752Y007424D03*
D687*
X005752Y007424D03*
D688*
X005752Y007425D03*
D689*
X005752Y007426D03*
D690*
X005752Y007427D03*
D691*
X005752Y007428D03*
D692*
X005752Y007428D03*
D693*
X005752Y007429D03*
D694*
X005752Y007430D03*
D695*
X005752Y007431D03*
D696*
X005752Y007432D03*
D697*
X005752Y007432D03*
D698*
X005752Y007433D03*
D699*
X005752Y007434D03*
D700*
X005752Y007435D03*
D701*
X005752Y007436D03*
D702*
X005752Y007436D03*
D703*
X005752Y007437D03*
D704*
X005752Y007438D03*
D705*
X005752Y007439D03*
D706*
X005752Y007440D03*
D707*
X005752Y007440D03*
D708*
X005752Y007441D03*
D709*
X005752Y007442D03*
D710*
X005752Y007443D03*
D711*
X005752Y007444D03*
D712*
X005752Y007444D03*
D713*
X005752Y007445D03*
D714*
X005752Y007446D03*
D715*
X005752Y007447D03*
D716*
X005752Y007448D03*
D717*
X005752Y007448D03*
D718*
X005752Y007449D03*
D719*
X005752Y007450D03*
D720*
X005752Y007451D03*
D721*
X005752Y007452D03*
D722*
X005752Y007452D03*
D723*
X005752Y007453D03*
D724*
X005752Y007454D03*
D725*
X005752Y007455D03*
D726*
X005752Y007456D03*
D727*
X005752Y007456D03*
D728*
X005752Y007457D03*
D729*
X005752Y007458D03*
D730*
X005752Y007459D03*
D731*
X005752Y007460D03*
D732*
X005752Y007460D03*
D733*
X005752Y007461D03*
D734*
X005752Y007462D03*
D735*
X005752Y007463D03*
D736*
X005752Y007464D03*
D737*
X005752Y007464D03*
D738*
X005752Y007465D03*
D739*
X005752Y007466D03*
D740*
X005752Y007467D03*
D741*
X005752Y007468D03*
D742*
X005752Y007468D03*
D743*
X005752Y007469D03*
D744*
X005752Y007470D03*
D745*
X005752Y007471D03*
D746*
X005752Y007472D03*
D747*
X005752Y007472D03*
D748*
X005752Y007473D03*
D749*
X005752Y007474D03*
D750*
X005752Y007475D03*
D751*
X005752Y007476D03*
D752*
X005752Y007476D03*
D753*
X005752Y007477D03*
D754*
X005752Y007478D03*
D755*
X005752Y007479D03*
D756*
X005752Y007480D03*
D757*
X005752Y007480D03*
D758*
X005752Y007481D03*
D759*
X005752Y007482D03*
D760*
X005752Y007483D03*
D761*
X005752Y007484D03*
D762*
X005752Y007484D03*
D763*
X005752Y007485D03*
D764*
X005752Y007486D03*
D765*
X005752Y007487D03*
D766*
X005752Y007488D03*
D767*
X005752Y007488D03*
D768*
X005752Y007489D03*
D769*
X005752Y007490D03*
D770*
X005752Y007491D03*
D771*
X005752Y007492D03*
D772*
X005752Y007492D03*
D773*
X005752Y007493D03*
D774*
X005752Y007494D03*
D775*
X005752Y007495D03*
D776*
X005752Y007496D03*
D777*
X005752Y007496D03*
D778*
X005752Y007497D03*
D779*
X005752Y007498D03*
D780*
X005752Y007499D03*
D781*
X005752Y007500D03*
D782*
X005752Y007500D03*
D783*
X005752Y007501D03*
D784*
X005752Y007502D03*
D785*
X005752Y007503D03*
D786*
X005752Y007504D03*
D787*
X005752Y007504D03*
D788*
X005752Y007505D03*
D789*
X005752Y007506D03*
D790*
X005752Y007507D03*
D791*
X005752Y007508D03*
D792*
X005752Y007508D03*
D793*
X005752Y007509D03*
D794*
X005752Y007510D03*
D795*
X005752Y007511D03*
D796*
X005752Y007512D03*
D797*
X005752Y007512D03*
D798*
X005752Y007513D03*
D799*
X005752Y007514D03*
D800*
X005752Y007515D03*
D801*
X005752Y007516D03*
D802*
X005752Y007516D03*
D803*
X005752Y007517D03*
D804*
X005752Y007518D03*
D805*
X005752Y007519D03*
D806*
X005752Y007520D03*
D807*
X005752Y007520D03*
D808*
X005752Y007521D03*
D809*
X005752Y007522D03*
D810*
X005752Y007523D03*
D811*
X005752Y007524D03*
D812*
X005752Y007524D03*
D813*
X005752Y007525D03*
D814*
X005752Y007526D03*
D815*
X005752Y007527D03*
D816*
X005752Y007528D03*
D817*
X005752Y007528D03*
D818*
X005752Y007529D03*
D819*
X005752Y007530D03*
D820*
X005752Y007531D03*
D821*
X005752Y007532D03*
D822*
X005752Y007532D03*
D823*
X005752Y007533D03*
D824*
X005752Y007534D03*
D825*
X005752Y007535D03*
D826*
X005752Y007536D03*
D827*
X005752Y007536D03*
D828*
X005752Y007537D03*
D829*
X005752Y007538D03*
D830*
X005752Y007539D03*
D831*
X005752Y007540D03*
D832*
X005752Y007540D03*
D833*
X005752Y007541D03*
D834*
X005752Y007542D03*
D835*
X005752Y007543D03*
D836*
X005752Y007544D03*
D837*
X005752Y007544D03*
D838*
X005752Y007545D03*
D839*
X005752Y007546D03*
D840*
X005752Y007547D03*
D841*
X005752Y007548D03*
D842*
X005752Y007548D03*
D843*
X005752Y007549D03*
D844*
X005752Y007550D03*
D845*
X005752Y007551D03*
D846*
X005752Y007552D03*
D847*
X005752Y007552D03*
D848*
X005752Y007553D03*
D849*
X005752Y007554D03*
D850*
X005752Y007555D03*
D851*
X005752Y007556D03*
D852*
X005752Y007556D03*
D853*
X005752Y007557D03*
D854*
X005752Y007558D03*
D855*
X005752Y007559D03*
D856*
X005752Y007560D03*
D857*
X005752Y007560D03*
D858*
X005752Y007561D03*
D859*
X005752Y007562D03*
D860*
X005752Y007563D03*
D861*
X005752Y007564D03*
D862*
X005752Y007564D03*
D863*
X005752Y007565D03*
D864*
X005752Y007566D03*
D865*
X005752Y007567D03*
D866*
X005752Y007568D03*
D867*
X005752Y007568D03*
D868*
X005752Y007569D03*
D869*
X005752Y007570D03*
D870*
X005752Y007571D03*
D871*
X005752Y007572D03*
D872*
X005752Y007572D03*
D873*
X005752Y007573D03*
D874*
X005752Y007574D03*
D875*
X005752Y007575D03*
D876*
X005752Y007576D03*
D877*
X005752Y007576D03*
D878*
X005752Y007577D03*
D879*
X005752Y007578D03*
D880*
X005752Y007579D03*
D881*
X005752Y007580D03*
D882*
X005752Y007580D03*
D883*
X005752Y007581D03*
D884*
X005752Y007582D03*
D885*
X005752Y007583D03*
D886*
X005752Y007584D03*
D887*
X005752Y007584D03*
D888*
X005752Y007585D03*
D889*
X005752Y007586D03*
D890*
X005752Y007587D03*
D891*
X005752Y007588D03*
D892*
X005752Y007588D03*
D893*
X005752Y007589D03*
D894*
X005752Y007590D03*
D895*
X005752Y007591D03*
D896*
X005752Y007592D03*
D897*
X005752Y007592D03*
D898*
X005752Y007593D03*
D899*
X005752Y007594D03*
D900*
X005752Y007595D03*
D901*
X005752Y007596D03*
D902*
X005752Y007596D03*
D903*
X005752Y007597D03*
D904*
X005752Y007598D03*
D905*
X005752Y007599D03*
D906*
X005752Y007600D03*
D907*
X005752Y007600D03*
D908*
X005752Y007601D03*
D909*
X005752Y007602D03*
D910*
X005752Y007603D03*
D911*
X005752Y007604D03*
D912*
X005752Y007604D03*
D913*
X005752Y007605D03*
D914*
X005752Y007606D03*
D915*
X005752Y007607D03*
D916*
X005752Y007608D03*
D917*
X005752Y007608D03*
D918*
X005752Y007609D03*
D919*
X005752Y007610D03*
D920*
X005752Y007611D03*
D921*
X005752Y007612D03*
D922*
X005752Y007612D03*
D923*
X005752Y007613D03*
D924*
X005752Y007614D03*
D925*
X005752Y007615D03*
D926*
X005752Y007616D03*
D927*
X005752Y007616D03*
D928*
X005752Y007617D03*
D929*
X005752Y007618D03*
D930*
X005752Y007619D03*
D931*
X005752Y007620D03*
D932*
X005752Y007620D03*
D933*
X005752Y007621D03*
D934*
X005752Y007622D03*
D935*
X005752Y007623D03*
D936*
X005752Y007624D03*
D937*
X005752Y007624D03*
D938*
X005753Y007625D03*
D939*
X005753Y007626D03*
D940*
X005753Y007627D03*
D941*
X005753Y007628D03*
D942*
X005753Y007628D03*
D943*
X005753Y007629D03*
D944*
X005753Y007630D03*
D945*
X005753Y007631D03*
D946*
X005753Y007632D03*
D947*
X005754Y007632D03*
D948*
X006557Y005947D02*
X006557Y005947D01*
X006557Y005946D01*
X006557Y005946D01*
X006558Y005946D01*
X006558Y005945D02*
X006558Y005947D01*
X006557Y005947D01*
X006559Y005947D02*
X006559Y005946D01*
X006559Y005947D01*
X006559Y005947D01*
X006559Y005947D01*
X006559Y005947D01*
X006560Y005947D01*
X006560Y005946D01*
X006560Y005947D01*
X006560Y005947D01*
X006561Y005947D01*
X006561Y005948D02*
X006561Y005946D01*
X006560Y005946D01*
X006560Y005946D01*
X006562Y005946D02*
X006562Y005946D01*
X006562Y005946D01*
X006562Y005946D01*
X006562Y005946D01*
X006562Y005947D01*
X006563Y005947D01*
X006563Y005947D01*
X006563Y005947D01*
X006563Y005946D01*
X006563Y005946D01*
X006563Y005946D01*
X006562Y005946D01*
X006564Y005946D02*
X006565Y005946D01*
X006565Y005946D01*
X006565Y005947D01*
X006565Y005947D01*
X006564Y005947D01*
X006564Y005946D01*
X006564Y005945D01*
X006564Y005945D01*
X006565Y005946D02*
X006565Y005947D01*
X006566Y005947D01*
X006566Y005947D01*
X006566Y005947D01*
X006566Y005946D01*
X006566Y005946D01*
X006566Y005946D01*
X006565Y005946D01*
X006567Y005946D02*
X006567Y005946D01*
X006567Y005948D01*
X006567Y005948D01*
X006569Y005946D02*
X006568Y005946D01*
X006569Y005946D02*
X006570Y005946D01*
X006571Y005946D01*
X006571Y005946D01*
X006571Y005947D01*
X006570Y005947D01*
X006570Y005947D01*
X006570Y005946D01*
X006570Y005947D01*
X006570Y005947D01*
X006571Y005947D01*
X006572Y005948D02*
X006573Y005946D01*
X006573Y005947D01*
X006573Y005947D01*
X006574Y005947D01*
X006574Y005947D01*
X006574Y005946D01*
X006574Y005946D01*
X006573Y005946D01*
X006573Y005946D01*
X006575Y005946D02*
X006575Y005946D01*
X006576Y005946D01*
X006576Y005947D01*
X006577Y005947D01*
X006577Y005947D01*
X006577Y005947D01*
X006576Y005947D01*
X006576Y005946D01*
X006576Y005946D01*
X006577Y005946D01*
X006578Y005946D02*
X006578Y005946D01*
X006578Y005947D01*
X006578Y005947D01*
X006579Y005947D02*
X006580Y005946D01*
X006581Y005946D02*
X006580Y005948D01*
X006580Y005947D02*
X006579Y005946D01*
X006578Y005948D02*
X006578Y005948D01*
X006576Y005947D02*
X006575Y005947D01*
X006575Y005947D01*
X006570Y005948D02*
X006570Y005948D01*
X006582Y005947D02*
X006582Y005947D01*
X006582Y005947D01*
X006582Y005947D01*
X006583Y005947D01*
X006583Y005946D01*
X006583Y005947D01*
X006583Y005947D01*
X006584Y005947D01*
X006584Y005947D01*
X006584Y005946D01*
X006584Y005947D01*
X006584Y005947D01*
X006585Y005947D01*
X006586Y005947D01*
X006586Y005946D01*
X006585Y005946D01*
X006585Y005946D01*
X006584Y005946D01*
X006584Y005947D01*
X006585Y005947D02*
X006585Y005947D01*
X006586Y005947D02*
X006586Y005946D01*
X006586Y005947D02*
X006586Y005947D01*
X006587Y005947D01*
X006587Y005947D01*
X006587Y005948D02*
X006587Y005946D01*
X006588Y005946D02*
X006587Y005948D01*
X006583Y005947D02*
X006582Y005947D01*
X006582Y005946D02*
X006583Y005946D01*
X006582Y005946D02*
X006582Y005946D01*
M02*
