G75*
%MOIN*%
%OFA0B0*%
%FSLAX24Y24*%
%IPPOS*%
%LPD*%
%AMOC8*
5,1,8,0,0,1.08239X$1,22.5*
%
%ADD10C,0.0820*%
%ADD11R,0.0740X0.0740*%
%ADD12C,0.0740*%
%ADD13C,0.1580*%
%ADD14C,0.4080*%
%ADD15C,0.0050*%
D10*
X001585Y007546D03*
X002292Y008254D03*
X009085Y008254D03*
X009792Y007546D03*
D11*
X005688Y010400D03*
D12*
X005688Y009400D03*
D13*
X001488Y004150D03*
X009888Y004150D03*
D14*
X005688Y004150D03*
D15*
X002986Y002848D02*
X003148Y002554D01*
X003343Y002280D01*
X003567Y002029D01*
X003818Y001805D01*
X004092Y001610D01*
X004387Y001447D01*
X004698Y001318D01*
X005021Y001225D01*
X005353Y001169D01*
X005688Y001150D01*
X006024Y001169D01*
X006356Y001225D01*
X006679Y001318D01*
X006990Y001447D01*
X007285Y001610D01*
X007559Y001805D01*
X007810Y002029D01*
X008034Y002280D01*
X008229Y002554D01*
X008391Y002848D01*
X008520Y003159D01*
X008613Y003482D01*
X008670Y003814D01*
X008688Y004150D01*
X008670Y004486D01*
X008613Y004818D01*
X008520Y005141D01*
X008391Y005452D01*
X008229Y005746D01*
X008034Y006020D01*
X007810Y006271D01*
X007559Y006495D01*
X007285Y006690D01*
X006990Y006853D01*
X006679Y006982D01*
X006356Y007075D01*
X006024Y007131D01*
X005688Y007150D01*
X005353Y007131D01*
X005021Y007075D01*
X004698Y006982D01*
X004387Y006853D01*
X004092Y006690D01*
X003818Y006495D01*
X003567Y006271D01*
X003343Y006020D01*
X003148Y005746D01*
X002986Y005452D01*
X002857Y005141D01*
X002764Y004818D01*
X002707Y004486D01*
X002688Y004150D01*
X002707Y003814D01*
X002764Y003482D01*
X002857Y003159D01*
X002986Y002848D01*
X002978Y002866D02*
X008399Y002866D01*
X008419Y002915D02*
X002958Y002915D01*
X002938Y002963D02*
X008439Y002963D01*
X008459Y003012D02*
X002918Y003012D01*
X002898Y003060D02*
X008479Y003060D01*
X008499Y003109D02*
X002878Y003109D01*
X002858Y003157D02*
X008519Y003157D01*
X008533Y003206D02*
X002843Y003206D01*
X002830Y003254D02*
X008547Y003254D01*
X008561Y003303D02*
X002816Y003303D01*
X002802Y003351D02*
X008575Y003351D01*
X008589Y003400D02*
X002788Y003400D01*
X002774Y003448D02*
X008603Y003448D01*
X008616Y003497D02*
X002761Y003497D01*
X002753Y003545D02*
X008624Y003545D01*
X008632Y003594D02*
X002745Y003594D01*
X002737Y003642D02*
X008640Y003642D01*
X008649Y003691D02*
X002728Y003691D01*
X002720Y003739D02*
X008657Y003739D01*
X008665Y003788D02*
X002712Y003788D01*
X002706Y003836D02*
X008671Y003836D01*
X008674Y003885D02*
X002703Y003885D01*
X002701Y003933D02*
X008676Y003933D01*
X008679Y003982D02*
X002698Y003982D01*
X002695Y004030D02*
X008682Y004030D01*
X008684Y004079D02*
X002692Y004079D01*
X002690Y004127D02*
X008687Y004127D01*
X008687Y004176D02*
X002690Y004176D01*
X002693Y004224D02*
X008684Y004224D01*
X008682Y004273D02*
X002695Y004273D01*
X002698Y004321D02*
X008679Y004321D01*
X008676Y004370D02*
X002701Y004370D01*
X002704Y004418D02*
X008673Y004418D01*
X008671Y004467D02*
X002706Y004467D01*
X002712Y004515D02*
X008665Y004515D01*
X008656Y004564D02*
X002721Y004564D01*
X002729Y004612D02*
X008648Y004612D01*
X008640Y004661D02*
X002737Y004661D01*
X002745Y004709D02*
X008632Y004709D01*
X008623Y004758D02*
X002753Y004758D01*
X002762Y004806D02*
X008615Y004806D01*
X008603Y004855D02*
X002774Y004855D01*
X002788Y004903D02*
X008589Y004903D01*
X008575Y004952D02*
X002802Y004952D01*
X002816Y005000D02*
X008561Y005000D01*
X008547Y005049D02*
X002830Y005049D01*
X002844Y005097D02*
X008533Y005097D01*
X008518Y005146D02*
X002859Y005146D01*
X002879Y005194D02*
X008498Y005194D01*
X008478Y005243D02*
X002899Y005243D01*
X002919Y005291D02*
X008458Y005291D01*
X008438Y005340D02*
X002939Y005340D01*
X002959Y005388D02*
X008418Y005388D01*
X008398Y005437D02*
X002979Y005437D01*
X003004Y005485D02*
X008373Y005485D01*
X008346Y005534D02*
X003031Y005534D01*
X003058Y005582D02*
X008319Y005582D01*
X008293Y005631D02*
X003084Y005631D01*
X003111Y005679D02*
X008266Y005679D01*
X008239Y005728D02*
X003138Y005728D01*
X003170Y005776D02*
X008207Y005776D01*
X008173Y005825D02*
X003204Y005825D01*
X003238Y005873D02*
X008139Y005873D01*
X008104Y005922D02*
X003273Y005922D01*
X003307Y005970D02*
X008070Y005970D01*
X008035Y006019D02*
X003342Y006019D01*
X003385Y006067D02*
X007992Y006067D01*
X007949Y006116D02*
X003428Y006116D01*
X003471Y006164D02*
X007906Y006164D01*
X007862Y006213D02*
X003515Y006213D01*
X003558Y006261D02*
X007819Y006261D01*
X007767Y006310D02*
X003610Y006310D01*
X003664Y006358D02*
X007713Y006358D01*
X007658Y006407D02*
X003718Y006407D01*
X003773Y006455D02*
X007604Y006455D01*
X007548Y006504D02*
X003829Y006504D01*
X003898Y006552D02*
X007479Y006552D01*
X007411Y006601D02*
X003966Y006601D01*
X004034Y006649D02*
X007343Y006649D01*
X007271Y006698D02*
X004106Y006698D01*
X004193Y006746D02*
X007184Y006746D01*
X007096Y006795D02*
X004281Y006795D01*
X004369Y006843D02*
X007008Y006843D01*
X006897Y006892D02*
X004480Y006892D01*
X004597Y006940D02*
X006780Y006940D01*
X006655Y006989D02*
X004722Y006989D01*
X004890Y007037D02*
X006487Y007037D01*
X006293Y007086D02*
X005084Y007086D01*
X005404Y007134D02*
X005973Y007134D01*
X008374Y002818D02*
X003003Y002818D01*
X003029Y002769D02*
X008348Y002769D01*
X008321Y002721D02*
X003056Y002721D01*
X003083Y002672D02*
X008294Y002672D01*
X008267Y002624D02*
X003110Y002624D01*
X003137Y002575D02*
X008240Y002575D01*
X008209Y002527D02*
X003168Y002527D01*
X003202Y002478D02*
X008175Y002478D01*
X008140Y002430D02*
X003237Y002430D01*
X003271Y002381D02*
X008106Y002381D01*
X008072Y002333D02*
X003305Y002333D01*
X003340Y002284D02*
X008037Y002284D01*
X007995Y002236D02*
X003382Y002236D01*
X003426Y002187D02*
X007951Y002187D01*
X007908Y002139D02*
X003469Y002139D01*
X003512Y002090D02*
X007865Y002090D01*
X007821Y002042D02*
X003556Y002042D01*
X003607Y001993D02*
X007770Y001993D01*
X007716Y001945D02*
X003661Y001945D01*
X003716Y001896D02*
X007661Y001896D01*
X007607Y001848D02*
X003770Y001848D01*
X003826Y001799D02*
X007551Y001799D01*
X007483Y001751D02*
X003894Y001751D01*
X003962Y001702D02*
X007414Y001702D01*
X007346Y001654D02*
X004031Y001654D01*
X004101Y001605D02*
X007276Y001605D01*
X007188Y001557D02*
X004189Y001557D01*
X004277Y001508D02*
X007100Y001508D01*
X007013Y001460D02*
X004364Y001460D01*
X004474Y001411D02*
X006903Y001411D01*
X006786Y001363D02*
X004591Y001363D01*
X004713Y001314D02*
X006664Y001314D01*
X006496Y001266D02*
X004881Y001266D01*
X005069Y001217D02*
X006308Y001217D01*
X006018Y001169D02*
X005359Y001169D01*
M02*
